<?xml version="1.0" encoding="UTF-8"?>
<svg width="439.89" height="284.6" version="1.1" viewBox="0 0 439.89 284.6" xmlns="http://www.w3.org/2000/svg">
 <defs>
  <style>.cls-1 {
        fill: #fff;
      }

      .cls-2 {
        fill: #e9f2f5;
      }</style>
  <filter id="filter150" x="-.11986" y="-.19915" width="1.2647" height="1.4398" color-interpolation-filters="sRGB">
   <feFlood flood-color="rgb(0,0,0)" flood-opacity=".30196" result="flood"/>
   <feComposite in="flood" in2="SourceGraphic" operator="in" result="composite1"/>
   <feGaussianBlur in="composite1" result="blur" stdDeviation="12"/>
   <feOffset dx="6" dy="6" result="offset"/>
   <feComposite in="SourceGraphic" in2="offset" result="composite2"/>
  </filter>
  <filter id="filter162" x="-.087474" y="-.13823" width="1.1932" height="1.3053" color-interpolation-filters="sRGB">
   <feFlood flood-color="rgb(0,0,0)" flood-opacity=".30196" result="flood"/>
   <feComposite in="flood" in2="SourceGraphic" operator="in" result="composite1"/>
   <feGaussianBlur in="composite1" result="blur" stdDeviation="12"/>
   <feOffset dx="6" dy="6" result="offset"/>
   <feComposite in="SourceGraphic" in2="offset" result="composite2"/>
  </filter>
 </defs>
 <g transform="translate(28.772 28.781)" data-name="Layer 2">
  <g id="_Layer_" data-name="&lt;Layer&gt;">
   <path class="cls-1" d="m315.88 73.2c-1.3 0-2.59 0.06-3.86 0.15a50.6 50.6 0 0 0-66.39-30.28 49.11 49.11 0 0 0-91.8-1.47 42.59 42.59 0 0 0-7.46-0.67 43.2 43.2 0 0 0-42.95 38.63 48.73 48.73 0 1 0-9.64 96.49h1.27a44.89 44.89 0 0 0 82.15 12.47 61.63 61.63 0 0 0 109.57-6.06 58.49 58.49 0 1 0 29.11-109.26z"/>
   <path class="cls-2" d="m317.88 75.21c-1.3 0-2.57 0.05-3.85 0.15a50.61 50.61 0 0 0-66.4-30.28 49.11 49.11 0 0 0-91.8-1.48 43.12 43.12 0 0 0-50.4 38 49.4 49.4 0 0 0-9.64-1 48.71 48.71 0 1 0 0 97.42l1.21-0.02a44.92 44.92 0 0 0 82.18 12.46 61.62 61.62 0 0 0 109.55-6.08 58.48 58.48 0 1 0 29.11-109.2z" filter="url(#filter162)"/>
   <path class="cls-1" d="m201.72 54.72a40.26 40.26 0 0 0-14.81 2 70.42 70.42 0 0 0-135.44-9.82 48.9 48.9 0 1 0 31.05 84.37 70.36 70.36 0 0 0 85-11 40.67 40.67 0 1 0 34.22-65.56z" filter="url(#filter150)"/>
  </g>
 </g>
</svg>
