<?xml version="1.0" encoding="UTF-8"?>
<svg width="331.61" height="355.27" version="1.1" viewBox="0 0 331.61 355.27" xmlns="http://www.w3.org/2000/svg" xmlns:xlink="http://www.w3.org/1999/xlink">
 <defs>
  <style>.dew-cls-1 {
        isolation: isolate;
      }

      .dew-cls-2 {
        fill: #76e036;
      }

      .dew-cls-3 {
        fill: #479600;
      }

      .dew-cls-4 {
        fill: url(#dew-linear-gradient);
      }

      .dew-cls-5, .dew-cls-7 {
        mix-blend-mode: multiply;
      }

      .dew-cls-5 {
        fill: url(#dew-linear-gradient-2);
      }

      .dew-cls-6 {
        fill: url(#dew-linear-gradient-3);
      }

      .dew-cls-7 {
        fill: url(#dew-linear-gradient-4);
      }

      .dew-cls-8 {
        fill: #fff;
      }

      .dew-cls-9 {
        fill: url(#dew-linear-gradient-5);
      }

      .dew-cls-10 {
        fill: url(#dew-linear-gradient-6);
      }

      .dew-cls-11 {
        fill: url(#dew-linear-gradient-7);
      }</style>
  <linearGradient id="dew-linear-gradient" x1="-2450.1" x2="-2321.4" y1="-1984" y2="-1855.4" gradientTransform="rotate(45 -3626 2273.6)" gradientUnits="userSpaceOnUse">
   <stop stop-color="#65bf2e" offset="0"/>
   <stop stop-color="#459a0f" offset=".62"/>
   <stop stop-color="#358900" offset="1"/>
  </linearGradient>
  <linearGradient id="dew-linear-gradient-2" x1="-4909.1" x2="-4980" y1="-1945.1" y2="-1920.7" gradientTransform="matrix(-.71 -.71 -.71 .71 -4659.2 -1974.9)" gradientUnits="userSpaceOnUse">
   <stop stop-color="#fff" offset="0"/>
   <stop stop-color="#eee" offset=".4"/>
   <stop stop-color="#ccc" offset="1"/>
  </linearGradient>
  <linearGradient id="dew-linear-gradient-3" x1="19.92" x2="184.31" y1="76.26" y2="240.65" xlink:href="#dew-linear-gradient"/>
  <linearGradient id="dew-linear-gradient-4" x1="-7378.8" x2="-7469.4" y1="126.01" y2="157.15" gradientTransform="matrix(-1 0 0 1 -7360.9 0)" xlink:href="#dew-linear-gradient-2"/>
  <linearGradient id="dew-linear-gradient-5" x1="100.62" x2="146.42" y1="179.75" y2="225.55" gradientUnits="userSpaceOnUse">
   <stop stop-color="#6bd9ff" offset="0"/>
   <stop stop-color="#3ec9f7" offset="1"/>
  </linearGradient>
  <linearGradient id="dew-linear-gradient-6" x1="200.54" x2="235.65" y1="99.07" y2="134.18" xlink:href="#dew-linear-gradient-5"/>
  <linearGradient id="dew-linear-gradient-7" x1="59.15" x2="88.07" y1="124.31" y2="153.23" xlink:href="#dew-linear-gradient-5"/>
  <filter id="filter94" x="-.70416" y="-.70416" width="2.555" height="2.555" color-interpolation-filters="sRGB">
   <feFlood flood-color="rgb(0,0,0)" flood-opacity=".30196" result="flood"/>
   <feComposite in="flood" in2="SourceGraphic" operator="in" result="composite1"/>
   <feGaussianBlur in="composite1" result="blur" stdDeviation="12"/>
   <feOffset dx="6" dy="6" result="offset"/>
   <feComposite in="SourceGraphic" in2="offset" result="composite2"/>
  </filter>
  <filter id="filter106" x="-.57994" y="-.57994" width="2.2807" height="2.2807" color-interpolation-filters="sRGB">
   <feFlood flood-color="rgb(0,0,0)" flood-opacity=".30196" result="flood"/>
   <feComposite in="flood" in2="SourceGraphic" operator="in" result="composite1"/>
   <feGaussianBlur in="composite1" result="blur" stdDeviation="12"/>
   <feOffset dx="6" dy="6" result="offset"/>
   <feComposite in="SourceGraphic" in2="offset" result="composite2"/>
  </filter>
  <filter id="filter118" x="-.44458" y="-.44458" width="1.9818" height="1.9818" color-interpolation-filters="sRGB">
   <feFlood flood-color="rgb(0,0,0)" flood-opacity=".30196" result="flood"/>
   <feComposite in="flood" in2="SourceGraphic" operator="in" result="composite1"/>
   <feGaussianBlur in="composite1" result="blur" stdDeviation="12"/>
   <feOffset dx="6" dy="6" result="offset"/>
   <feComposite in="SourceGraphic" in2="offset" result="composite2"/>
  </filter>
  <filter id="filter187" x="-.17843" y="-.15831" width="1.394" height="1.3496" color-interpolation-filters="sRGB">
   <feFlood flood-color="rgb(0,0,0)" flood-opacity=".30196" result="flood"/>
   <feComposite in="flood" in2="SourceGraphic" operator="in" result="composite1"/>
   <feGaussianBlur in="composite1" result="blur" stdDeviation="12"/>
   <feOffset dx="6" dy="6" result="offset"/>
   <feComposite in="SourceGraphic" in2="offset" result="composite2"/>
  </filter>
  <filter id="filter199" x="-.32168" y="-.098742" width="1.7104" height="1.2181" color-interpolation-filters="sRGB">
   <feFlood flood-color="rgb(0,0,0)" flood-opacity=".30196" result="flood"/>
   <feComposite in="flood" in2="SourceGraphic" operator="in" result="composite1"/>
   <feGaussianBlur in="composite1" result="blur" stdDeviation="12"/>
   <feOffset dx="6" dy="6" result="offset"/>
   <feComposite in="SourceGraphic" in2="offset" result="composite2"/>
  </filter>
  <linearGradient id="linearGradient220" x1="-2450.1" x2="-2321.4" y1="-1984" y2="-1855.4" gradientTransform="rotate(45 -3626 2273.6)" gradientUnits="userSpaceOnUse" xlink:href="#dew-linear-gradient"/>
  <linearGradient id="linearGradient222" x1="-4909.1" x2="-4980" y1="-1945.1" y2="-1920.7" gradientTransform="matrix(-.71 -.71 -.71 .71 -4659.2 -1974.9)" gradientUnits="userSpaceOnUse" xlink:href="#dew-linear-gradient-2"/>
  <linearGradient id="linearGradient224" x1="100.62" x2="146.42" y1="179.75" y2="225.55" gradientUnits="userSpaceOnUse" xlink:href="#dew-linear-gradient-5"/>
 </defs>
 <g class="dew-cls-1" transform="translate(0 25.47)">
  <g data-name="Layer 2">
   <g id="_Layer_" data-name="&lt;Layer&gt;">
    <path class="dew-cls-2" d="m234.47 252.31a70.053 70.053 0 0 1-99.07-99.07c41-41 161.41-62.34 161.41-62.34s-21.32 120.41-62.34 161.41z"/>
    <path class="dew-cls-3" d="m234.47 256a70.053 70.053 0 0 1-99.07-99.07c41-41 161.41-62.34 161.41-62.34s-21.32 120.41-62.34 161.41z"/>
    <path class="dew-cls-4" d="m234.47 256c41-41 62.34-161.41 62.34-161.41l-161.41 161.41a70.07 70.07 0 0 0 99.07 0z" fill="url(#linearGradient220)" filter="url(#filter187)"/>
    <path class="dew-cls-5" d="m135.4 156.93c41-41 161.41-62.34 161.41-62.34l-161.41 161.41a70.06 70.06 0 0 1 0-99.07z" fill="url(#linearGradient222)"/>
    <path class="dew-cls-2" d="m179 202.19a89.52 89.52 0 0 1-179 0c0-74.14 89.52-202.19 89.52-202.19s89.48 128.05 89.48 202.19z"/>
    <path class="dew-cls-3" d="m182.37 205.51a89.52 89.52 0 1 1-179 0c-0.04-74.12 89.47-202.18 89.47-202.18s89.53 128.06 89.53 202.18z"/>
    <path class="dew-cls-6" d="m182.37 205.51c0-74.12-89.53-202.18-89.53-202.18v291.67a89.52 89.52 0 0 0 89.53-89.49z" fill="url(#dew-linear-gradient-3)" filter="url(#filter199)"/>
    <path class="dew-cls-7" d="m3.33 205.51c0-74.12 89.51-202.18 89.51-202.18v291.67a89.51 89.51 0 0 1-89.51-89.49z" fill="url(#dew-linear-gradient-4)"/>
    <path class="dew-cls-8" d="m153.07 201.23a32.39 32.39 0 1 1-32.39-32.4 32.39 32.39 0 0 1 32.39 32.4z"/>
    <path class="dew-cls-9" d="m155.91 202.65a32.39 32.39 0 1 1-32.38-32.38 32.38 32.38 0 0 1 32.38 32.38z" fill="url(#linearGradient224)" filter="url(#filter118)"/>
    <path class="dew-cls-8" d="m240.73 115.54a24.82 24.82 0 1 1-24.81-24.82 24.81 24.81 0 0 1 24.81 24.82z"/>
    <path class="dew-cls-10" d="m242.92 116.63a24.83 24.83 0 1 1-24.83-24.82 24.82 24.82 0 0 1 24.83 24.82z" fill="url(#dew-linear-gradient-6)" filter="url(#filter106)"/>
    <path class="dew-cls-8" d="m92.27 137.88a20.46 20.46 0 1 1-20.45-20.46 20.45 20.45 0 0 1 20.45 20.46z"/>
    <path class="dew-cls-11" d="m94.06 138.76a20.45 20.45 0 1 1-20.45-20.44 20.45 20.45 0 0 1 20.45 20.44z" fill="url(#dew-linear-gradient-7)" filter="url(#filter94)"/>
   </g>
  </g>
 </g>
</svg>
