<?xml version="1.0" encoding="UTF-8"?>
<svg width="531.33" height="268.42" version="1.1" viewBox="0 0 531.33 268.42" xmlns="http://www.w3.org/2000/svg">
 <defs>
  <style>.cls-1 {
        fill: #fff;
      }

      .cls-2 {
        fill: #e4f1f5;
      }

      .cls-3 {
        fill: #eef7fa;
      }</style>
  <filter id="filter50" x="-.13154" y="-.63255" width="1.2905" height="2.3969" color-interpolation-filters="sRGB">
   <feFlood flood-color="rgb(0,0,0)" flood-opacity=".30196" result="flood"/>
   <feComposite in="flood" in2="SourceGraphic" operator="in" result="composite1"/>
   <feGaussianBlur in="composite1" result="blur" stdDeviation="12"/>
   <feOffset dx="6" dy="6" result="offset"/>
   <feComposite in="SourceGraphic" in2="offset" result="composite2"/>
  </filter>
  <filter id="filter62" x="-.13307" y="-.66961" width="1.2939" height="2.4787" color-interpolation-filters="sRGB">
   <feFlood flood-color="rgb(0,0,0)" flood-opacity=".30196" result="flood"/>
   <feComposite in="flood" in2="SourceGraphic" operator="in" result="composite1"/>
   <feGaussianBlur in="composite1" result="blur" stdDeviation="12"/>
   <feOffset dx="6" dy="6" result="offset"/>
   <feComposite in="SourceGraphic" in2="offset" result="composite2"/>
  </filter>
  <filter id="filter74" x="-.076334" y="-.63241" width="1.1686" height="2.3966" color-interpolation-filters="sRGB">
   <feFlood flood-color="rgb(0,0,0)" flood-opacity=".30196" result="flood"/>
   <feComposite in="flood" in2="SourceGraphic" operator="in" result="composite1"/>
   <feGaussianBlur in="composite1" result="blur" stdDeviation="12"/>
   <feOffset dx="6" dy="6" result="offset"/>
   <feComposite in="SourceGraphic" in2="offset" result="composite2"/>
  </filter>
  <filter id="filter86" x="-.076334" y="-.63255" width="1.1686" height="2.3969" color-interpolation-filters="sRGB">
   <feFlood flood-color="rgb(0,0,0)" flood-opacity=".30196" result="flood"/>
   <feComposite in="flood" in2="SourceGraphic" operator="in" result="composite1"/>
   <feGaussianBlur in="composite1" result="blur" stdDeviation="12"/>
   <feOffset dx="6" dy="6" result="offset"/>
   <feComposite in="SourceGraphic" in2="offset" result="composite2"/>
  </filter>
  <filter id="filter98" x="-.10318" y="-.63283" width="1.2279" height="2.3975" color-interpolation-filters="sRGB">
   <feFlood flood-color="rgb(0,0,0)" flood-opacity=".30196" result="flood"/>
   <feComposite in="flood" in2="SourceGraphic" operator="in" result="composite1"/>
   <feGaussianBlur in="composite1" result="blur" stdDeviation="12"/>
   <feOffset dx="6" dy="6" result="offset"/>
   <feComposite in="SourceGraphic" in2="offset" result="composite2"/>
  </filter>
 </defs>
 <g transform="translate(28.8 28.8)" data-name="Layer 2">
  <g id="_Layer_" data-name="&lt;Layer&gt;">
   <g filter="url(#filter86)">
    <path class="cls-1" d="m374.78 117.07a21.51 21.51 0 0 1-21.5 21.52h-331.77a21.52 21.52 0 0 1-21.51-21.52 21.51 21.51 0 0 1 21.51-21.5h331.77a21.51 21.51 0 0 1 21.5 21.5z"/>
    <path class="cls-2" d="m377.29 119.58a21.52 21.52 0 0 1-21.51 21.52h-331.78a21.52 21.52 0 0 1-21.5-21.52 21.5 21.5 0 0 1 21.5-21.51h331.78a21.51 21.51 0 0 1 21.51 21.51z"/>
   </g>
   <g filter="url(#filter74)">
    <path class="cls-1" d="m465.23 86.44a21.53 21.53 0 0 1-21.53 21.56h-331.7a21.52 21.52 0 0 1-21.56-21.56 21.52 21.52 0 0 1 21.56-21.52h331.7a21.53 21.53 0 0 1 21.53 21.52z"/>
    <path class="cls-3" d="m467.73 88.93a21.52 21.52 0 0 1-21.5 21.53h-331.77a21.53 21.53 0 0 1-21.46-21.53 21.51 21.51 0 0 1 21.51-21.5h331.72a21.5 21.5 0 0 1 21.5 21.5z"/>
   </g>
   <g filter="url(#filter50)">
    <path class="cls-1" d="m299.73 21.5a21.51 21.51 0 0 1-21.51 21.5h-173.42a21.53 21.53 0 0 1-21.51-21.5 21.52 21.52 0 0 1 21.51-21.5h173.42a21.51 21.51 0 0 1 21.51 21.5z"/>
    <path class="cls-2" d="m302.23 24a21.51 21.51 0 0 1-21.5 21.53h-173.43a21.51 21.51 0 0 1-21.5-21.53 21.49 21.49 0 0 1 21.5-21.5h173.43a21.49 21.49 0 0 1 21.5 21.5z"/>
   </g>
   <path class="cls-1" d="m375.5 55.21a21.48 21.48 0 0 1-21.5 21.5h-173.43a21.5 21.5 0 0 1-21.5-21.5 21.51 21.51 0 0 1 21.5-21.51h173.43a21.49 21.49 0 0 1 21.5 21.51z" filter="url(#filter62)"/>
   <g filter="url(#filter98)">
    <path class="cls-1" d="m427.49 180.81a21.51 21.51 0 0 1-21.49 21.51h-233.63a21.49 21.49 0 0 1-21.5-21.51 21.49 21.49 0 0 1 21.5-21.5h233.63a21.51 21.51 0 0 1 21.53 21.5z"/>
    <path class="cls-2" d="m430 183.32a21.48 21.48 0 0 1-21.5 21.5h-233.64a21.49 21.49 0 0 1-21.5-21.5 21.5 21.5 0 0 1 21.5-21.51h233.61a21.49 21.49 0 0 1 21.53 21.51z"/>
   </g>
  </g>
 </g>
</svg>
