<?xml version="1.0" encoding="UTF-8"?>
<svg width="492.82" height="411.77" version="1.1" viewBox="0 0 492.82 411.77" xmlns="http://www.w3.org/2000/svg">
 <defs>
  <style>.hail-cls-1 {
        fill: #eef7fa;
      }

      .hail-cls-2 {
        fill: #91d5eb;
      }

      .hail-cls-3 {
        fill: #fff;
      }

      .hail-cls-4 {
        fill: #9ddef2;
      }

      .hail-cls-5 {
        fill: #a2def2;
      }

      .hail-cls-6 {
        fill: #bee9f7;
      }

      .hail-cls-7 {
        fill: #c8eefa;
      }</style>
  <filter id="filter96" x="-.10068" y="-.17127" width="1.2223" height="1.3782" color-interpolation-filters="sRGB">
   <feFlood flood-color="rgb(0,0,0)" flood-opacity=".30196" result="flood"/>
   <feComposite in="flood" in2="SourceGraphic" operator="in" result="composite1"/>
   <feGaussianBlur in="composite1" result="blur" stdDeviation="12"/>
   <feOffset dx="6" dy="6" result="offset"/>
   <feComposite in="SourceGraphic" in2="offset" result="composite2"/>
  </filter>
  <filter id="filter108" x="-.16685" y="-.27609" width="1.3685" height="1.6097" color-interpolation-filters="sRGB">
   <feFlood flood-color="rgb(0,0,0)" flood-opacity=".30196" result="flood"/>
   <feComposite in="flood" in2="SourceGraphic" operator="in" result="composite1"/>
   <feGaussianBlur in="composite1" result="blur" stdDeviation="12"/>
   <feOffset dx="6" dy="6" result="offset"/>
   <feComposite in="SourceGraphic" in2="offset" result="composite2"/>
  </filter>
  <filter id="filter120" x="-.10913" y="-.18352" width="1.241" height="1.4053" color-interpolation-filters="sRGB">
   <feFlood flood-color="rgb(0,0,0)" flood-opacity=".30196" result="flood"/>
   <feComposite in="flood" in2="SourceGraphic" operator="in" result="composite1"/>
   <feGaussianBlur in="composite1" result="blur" stdDeviation="12"/>
   <feOffset dx="6" dy="6" result="offset"/>
   <feComposite in="SourceGraphic" in2="offset" result="composite2"/>
  </filter>
  <filter id="filter132" x="-.1326" y="-.20879" width="1.2928" height="1.4611" color-interpolation-filters="sRGB">
   <feFlood flood-color="rgb(0,0,0)" flood-opacity=".30196" result="flood"/>
   <feComposite in="flood" in2="SourceGraphic" operator="in" result="composite1"/>
   <feGaussianBlur in="composite1" result="blur" stdDeviation="12"/>
   <feOffset dx="6" dy="6" result="offset"/>
   <feComposite in="SourceGraphic" in2="offset" result="composite2"/>
  </filter>
  <filter id="filter144" x="-.069107" y="-.13088" width="1.1526" height="1.289" color-interpolation-filters="sRGB">
   <feFlood flood-color="rgb(0,0,0)" flood-opacity=".30196" result="flood"/>
   <feComposite in="flood" in2="SourceGraphic" operator="in" result="composite1"/>
   <feGaussianBlur in="composite1" result="blur" stdDeviation="12"/>
   <feOffset dx="6" dy="6" result="offset"/>
   <feComposite in="SourceGraphic" in2="offset" result="composite2"/>
  </filter>
  <filter id="filter174" x="-.68021" y="-.68021" width="2.5021" height="2.5021" color-interpolation-filters="sRGB">
   <feFlood flood-color="rgb(0,0,0)" flood-opacity=".30196" result="flood"/>
   <feComposite in="flood" in2="SourceGraphic" operator="in" result="composite1"/>
   <feGaussianBlur in="composite1" result="blur" stdDeviation="12"/>
   <feOffset dx="6" dy="6" result="offset"/>
   <feComposite in="SourceGraphic" in2="offset" result="composite2"/>
  </filter>
  <filter id="filter186" x="-.83237" y="-.85056" width="2.8382" height="2.8783" color-interpolation-filters="sRGB">
   <feFlood flood-color="rgb(0,0,0)" flood-opacity=".30196" result="flood"/>
   <feComposite in="flood" in2="SourceGraphic" operator="in" result="composite1"/>
   <feGaussianBlur in="composite1" result="blur" stdDeviation="12"/>
   <feOffset dx="6" dy="6" result="offset"/>
   <feComposite in="SourceGraphic" in2="offset" result="composite2"/>
  </filter>
  <filter id="filter198" x="-.83237" y="-.85006" width="2.8382" height="2.8772" color-interpolation-filters="sRGB">
   <feFlood flood-color="rgb(0,0,0)" flood-opacity=".30196" result="flood"/>
   <feComposite in="flood" in2="SourceGraphic" operator="in" result="composite1"/>
   <feGaussianBlur in="composite1" result="blur" stdDeviation="12"/>
   <feOffset dx="6" dy="6" result="offset"/>
   <feComposite in="SourceGraphic" in2="offset" result="composite2"/>
  </filter>
  <filter id="filter210" x="-.65203" y="-.66574" width="2.4399" height="2.4702" color-interpolation-filters="sRGB">
   <feFlood flood-color="rgb(0,0,0)" flood-opacity=".30196" result="flood"/>
   <feComposite in="flood" in2="SourceGraphic" operator="in" result="composite1"/>
   <feGaussianBlur in="composite1" result="blur" stdDeviation="12"/>
   <feOffset dx="6" dy="6" result="offset"/>
   <feComposite in="SourceGraphic" in2="offset" result="composite2"/>
  </filter>
  <filter id="filter222" x="-1.2198" y="-1.2457" width="3.6938" height="3.7509" color-interpolation-filters="sRGB">
   <feFlood flood-color="rgb(0,0,0)" flood-opacity=".30196" result="flood"/>
   <feComposite in="flood" in2="SourceGraphic" operator="in" result="composite1"/>
   <feGaussianBlur in="composite1" result="blur" stdDeviation="12"/>
   <feOffset dx="6" dy="6" result="offset"/>
   <feComposite in="SourceGraphic" in2="offset" result="composite2"/>
  </filter>
  <filter id="filter234" x="-.86904" y="-.86904" width="2.9191" height="2.9191" color-interpolation-filters="sRGB">
   <feFlood flood-color="rgb(0,0,0)" flood-opacity=".30196" result="flood"/>
   <feComposite in="flood" in2="SourceGraphic" operator="in" result="composite1"/>
   <feGaussianBlur in="composite1" result="blur" stdDeviation="12"/>
   <feOffset dx="6" dy="6" result="offset"/>
   <feComposite in="SourceGraphic" in2="offset" result="composite2"/>
  </filter>
  <filter id="filter246" x="-1.2219" y="-1.2435" width="3.6984" height="3.7461" color-interpolation-filters="sRGB">
   <feFlood flood-color="rgb(0,0,0)" flood-opacity=".30196" result="flood"/>
   <feComposite in="flood" in2="SourceGraphic" operator="in" result="composite1"/>
   <feGaussianBlur in="composite1" result="blur" stdDeviation="12"/>
   <feOffset dx="6" dy="6" result="offset"/>
   <feComposite in="SourceGraphic" in2="offset" result="composite2"/>
  </filter>
 </defs>
 <g transform="translate(28.76 28.801)" data-name="Layer 2">
  <g id="_Layer_" data-name="&lt;Layer&gt;">
   <g filter="url(#filter144)">
    <path class="hail-cls-1" d="m388.64 179.08a60.57 60.57 0 0 0-21.43-31.38 71.82 71.82 0 0 0-132.84-54.46c-2.07-0.25-4.17-0.46-6.31-0.55a73 73 0 0 0-61.65 29.23 38.92 38.92 0 0 0-52.36 44.94 27 27 0 0 0-18.64 12.57 37.58 37.58 0 0 0-65 8.29c-0.73-0.09-1.46-0.16-2.21-0.2a27 27 0 1 0 17.51 46.48 37.51 37.51 0 0 0 17.72 5.39 39 39 0 0 0 70.39 1.61 38.71 38.71 0 0 0 14.57 3.52 40.66 40.66 0 0 0 4.83-0.13 52.68 52.68 0 0 0 80.78 4.27 39 39 0 0 0 68.83 0.7 60.41 60.41 0 0 0 74.51-15.46 28.32 28.32 0 1 0 11.27-54.82z"/>
    <path class="hail-cls-2" d="m389.75 180.21a60.52 60.52 0 0 0-21.42-31.39 71.82 71.82 0 0 0-132.85-54.45q-3.1-0.42-6.3-0.55a73 73 0 0 0-61.66 29.18 39.72 39.72 0 0 0-12.65-2.71 39.06 39.06 0 0 0-40.68 37.34 39.94 39.94 0 0 0 1 10.32 27.12 27.12 0 0 0-18.64 12.58 37.56 37.56 0 0 0-65 8.3c-0.73-0.09-1.46-0.19-2.2-0.22a27 27 0 1 0 17.47 46.49 37.36 37.36 0 0 0 17.73 5.42 39 39 0 0 0 70.39 1.56 37.67 37.67 0 0 0 19.41 3.4 52.64 52.64 0 0 0 80.79 4.29 39 39 0 0 0 68.83 0.7 60.4 60.4 0 0 0 74.51-15.47 29.65 29.65 0 0 0 8.7 1.77 28.324 28.324 0 0 0 2.57-56.59z"/>
   </g>
   <g filter="url(#filter120)">
    <path class="hail-cls-3" d="m275.31 139a77.57 77.57 0 1 0-149.93-39.75c-0.79 0-1.58-0.07-2.37-0.07a48.27 48.27 0 0 0-40.48 21.95 37.57 37.57 0 1 0 9.66 63.61 48.29 48.29 0 0 0 64.46-2.54 77.52 77.52 0 0 0 84.56 2.15 29.28 29.28 0 1 0 34.1-45.35z"/>
    <path class="hail-cls-4" d="m276.42 140.16a77.57 77.57 0 1 0-149.93-39.8c-0.78 0-1.57-0.06-2.36-0.06a48.25 48.25 0 0 0-40.47 22 37.56 37.56 0 1 0 9.66 63.59 48.29 48.29 0 0 0 64.46-2.52 77.51 77.51 0 0 0 84.54 2.14 29.28 29.28 0 1 0 34.1-45.3z"/>
   </g>
   <g filter="url(#filter132)">
    <path class="hail-cls-3" d="m389.59 126.3c-0.86 0-1.7 0-2.54 0.1a33.2 33.2 0 0 0-31.31-22.19 32.82 32.82 0 0 0-12.22 2.34 32.2 32.2 0 0 0-60.19-1 29.07 29.07 0 0 0-4.89-0.42 28.33 28.33 0 0 0-28.16 25.32 31.95 31.95 0 1 0-6.28 63.28h0.83a29.43 29.43 0 0 0 53.87 8.17 40.41 40.41 0 0 0 71.84-4 38.35 38.35 0 0 0 57.44-33.26 38.36 38.36 0 0 0-38.39-38.34z"/>
    <path class="hail-cls-5" d="m390.9 127.61c-0.85 0-1.69 0-2.53 0.09a33.17 33.17 0 0 0-43.53-19.84 32.21 32.21 0 0 0-60.2-1 30 30 0 0 0-4.87-0.42 28.33 28.33 0 0 0-28.18 25.34 31.94 31.94 0 1 0-6.32 63.22h0.84a29.44 29.44 0 0 0 53.89 8.2 40.4 40.4 0 0 0 71.82-4 38.35 38.35 0 1 0 19.1-71.61z"/>
   </g>
   <g filter="url(#filter96)">
    <path class="hail-cls-3" d="m358.2 48.83a41.56 41.56 0 0 0-5.16 0.32 48.09 48.09 0 0 0-72-24.73 37.18 37.18 0 0 0-71.42 5.67 30.76 30.76 0 0 0-48.87 21h-0.23a44.3 44.3 0 1 0 21.49 83 31.88 31.88 0 0 0 60.24 9.11 54.25 54.25 0 0 0 96.44-13.66 42.71 42.71 0 1 0 19.51-80.71z"/>
    <path class="hail-cls-6" d="m359.49 50a48.63 48.63 0 0 0-5.16 0.31 48.09 48.09 0 0 0-72-24.73 37.19 37.19 0 0 0-71.43 5.68 30.79 30.79 0 0 0-48.87 21h-0.23a44.29 44.29 0 1 0 21.49 83 31.89 31.89 0 0 0 60.25 9.08 54.23 54.23 0 0 0 96.46-13.63 42.71 42.71 0 1 0 19.49-80.71z"/>
   </g>
   <g filter="url(#filter108)">
    <path class="hail-cls-3" d="m219.93 154a28.92 28.92 0 0 0-10.56 1.4 50.17 50.17 0 0 0-96.5-7 34.85 34.85 0 1 0 22.13 60.09 50.12 50.12 0 0 0 60.57-7.81 29 29 0 1 0 24.36-46.68z"/>
    <path class="hail-cls-7" d="m221.24 155.27a29 29 0 0 0-10.56 1.4 50.16 50.16 0 0 0-96.5-7 34.84 34.84 0 1 0 22.12 60.11 50.21 50.21 0 0 0 60.56-7.78 29 29 0 1 0 24.38-46.73z"/>
   </g>
   <path class="hail-cls-3" d="m216.43 264.64a21.16 21.16 0 1 1-21.15-21.15 21.17 21.17 0 0 1 21.15 21.15z"/>
   <path class="hail-cls-7" d="m218.29 265.58a21.17 21.17 0 1 1-21.16-21.15 21.16 21.16 0 0 1 21.16 21.15z" filter="url(#filter174)"/>
   <g filter="url(#filter210)">
    <path class="hail-cls-3" d="m358 325.8a21.16 21.16 0 1 1-21.14-21.17 21.14 21.14 0 0 1 21.14 21.17z"/>
    <path class="hail-cls-7" d="m359.85 326.72a21.16 21.16 0 1 1-21.15-21.15 21.15 21.15 0 0 1 21.15 21.15z"/>
   </g>
   <g filter="url(#filter234)">
    <circle class="hail-cls-3" cx="131.46" cy="327.06" r="16.57"/>
    <path class="hail-cls-4" d="m149.48 327.77a16.57 16.57 0 1 1-16.56-16.56 16.56 16.56 0 0 1 16.56 16.56z"/>
   </g>
   <g filter="url(#filter186)">
    <path class="hail-cls-3" d="m316.73 212.77a16.57 16.57 0 1 1-16.56-16.55 16.55 16.55 0 0 1 16.56 16.55z"/>
    <path class="hail-cls-7" d="m318.19 213.5a16.57 16.57 0 1 1-16.57-16.56 16.58 16.58 0 0 1 16.57 16.56z"/>
   </g>
   <g filter="url(#filter198)">
    <path class="hail-cls-3" d="m405.33 264.47a16.57 16.57 0 1 1-16.56-16.58 16.55 16.55 0 0 1 16.56 16.58z"/>
    <path class="hail-cls-4" d="m406.79 265.19a16.57 16.57 0 1 1-16.57-16.56 16.57 16.57 0 0 1 16.57 16.56z"/>
   </g>
   <g filter="url(#filter222)">
    <path class="hail-cls-3" d="m249.83 336.34a11.31 11.31 0 1 1-11.31-11.29 11.31 11.31 0 0 1 11.31 11.29z"/>
    <path class="hail-cls-4" d="m250.82 336.84a11.31 11.31 0 1 1-11.32-11.29 11.32 11.32 0 0 1 11.32 11.29z"/>
   </g>
   <g filter="url(#filter246)">
    <path class="hail-cls-3" d="m88.05 285.35a11.31 11.31 0 1 1-11.31-11.35 11.3 11.3 0 0 1 11.31 11.35z"/>
    <path class="hail-cls-7" d="m89 285.85a11.31 11.31 0 1 1-11.31-11.31 11.3 11.3 0 0 1 11.31 11.31z"/>
   </g>
  </g>
 </g>
</svg>
