<?xml version="1.0" encoding="UTF-8"?>
<svg width="492.85" height="331.81" version="1.1" viewBox="0 0 492.85 331.81" xmlns="http://www.w3.org/2000/svg">
 <defs>
  <style>.cls-1 {
        isolation: isolate;
      }

      .cls-2 {
        fill: #eef7fa;
      }

      .cls-3 {
        fill: #e4f1f5;
      }

      .cls-4 {
        mix-blend-mode: multiply;
      }

      .cls-5, .cls-6 {
        fill: #fff;
      }

      .cls-5 {
        opacity: 0;
      }

      .cls-7 {
        fill: #e9f2f5;
      }</style>
  <filter id="filter298" x="-.16811" y="-.27947" width="1.3712" height="1.6172" color-interpolation-filters="sRGB">
   <feFlood flood-color="rgb(0,0,0)" flood-opacity=".30196" result="flood"/>
   <feComposite in="flood" in2="SourceGraphic" operator="in" result="composite1"/>
   <feGaussianBlur in="composite1" result="blur" stdDeviation="12"/>
   <feOffset dx="6" dy="6" result="offset"/>
   <feComposite in="SourceGraphic" in2="offset" result="composite2"/>
  </filter>
  <filter id="filter310" x="-.13288" y="-.20878" width="1.2934" height="1.461" color-interpolation-filters="sRGB">
   <feFlood flood-color="rgb(0,0,0)" flood-opacity=".30196" result="flood"/>
   <feComposite in="flood" in2="SourceGraphic" operator="in" result="composite1"/>
   <feGaussianBlur in="composite1" result="blur" stdDeviation="12"/>
   <feOffset dx="6" dy="6" result="offset"/>
   <feComposite in="SourceGraphic" in2="offset" result="composite2"/>
  </filter>
  <filter id="filter322" x="-.069126" y="-.13079" width="1.1527" height="1.2888" color-interpolation-filters="sRGB">
   <feFlood flood-color="rgb(0,0,0)" flood-opacity=".30196" result="flood"/>
   <feComposite in="flood" in2="SourceGraphic" operator="in" result="composite1"/>
   <feGaussianBlur in="composite1" result="blur" stdDeviation="12"/>
   <feOffset dx="6" dy="6" result="offset"/>
   <feComposite in="SourceGraphic" in2="offset" result="composite2"/>
  </filter>
  <filter id="filter334" x="-.10095" y="-.17129" width="1.2229" height="1.3783" color-interpolation-filters="sRGB">
   <feFlood flood-color="rgb(0,0,0)" flood-opacity=".30196" result="flood"/>
   <feComposite in="flood" in2="SourceGraphic" operator="in" result="composite1"/>
   <feGaussianBlur in="composite1" result="blur" stdDeviation="12"/>
   <feOffset dx="6" dy="6" result="offset"/>
   <feComposite in="SourceGraphic" in2="offset" result="composite2"/>
  </filter>
 </defs>
 <g class="cls-1" transform="translate(27.098 51.523)">
  <g data-name="Layer 2">
   <g id="_Layer_" data-name="&lt;Layer&gt;">
    <g transform="translate(1.6229 -22.721)">
     <g filter="url(#filter322)">
      <path class="cls-2" d="m388.65 176.45a60.58 60.58 0 0 0-21.43-31.39 71.82 71.82 0 0 0-132.85-54.45c-2.06-0.26-4.16-0.48-6.3-0.57a73.12 73.12 0 0 0-61.66 29.24 38.42 38.42 0 0 0-12.64-2.72 38.89 38.89 0 0 0-39.71 47.65 27 27 0 0 0-18.64 12.59 37.57 37.57 0 0 0-65 8.27c-0.72-0.07-1.45-0.17-2.2-0.2a27 27 0 1 0 17.54 46.47 37.3 37.3 0 0 0 17.72 5.4 39 39 0 0 0 70.39 1.59 39.27 39.27 0 0 0 14.57 3.5 38.68 38.68 0 0 0 4.83-0.11 52.7 52.7 0 0 0 80.73 4.28 39 39 0 0 0 68.83 0.7 60.36 60.36 0 0 0 74.5-15.46 27.9 27.9 0 0 0 8.7 1.77 28.314 28.314 0 0 0 2.58-56.57z"/>
      <path class="cls-3" d="m389.75 177.55a60.29 60.29 0 0 0-21.41-31.36 71.82 71.82 0 0 0-132.85-54.46c-2.08-0.27-4.18-0.48-6.3-0.57a73 73 0 0 0-61.66 29.23 38.94 38.94 0 0 0-53.33 34.61 39.58 39.58 0 0 0 1 10.33 27 27 0 0 0-18.64 12.59 37.57 37.57 0 0 0-65 8.27c-0.72-0.09-1.46-0.16-2.2-0.2a27 27 0 1 0 17.53 46.48 37.67 37.67 0 0 0 17.73 5.4 39 39 0 0 0 70.38 1.56 38.62 38.62 0 0 0 14.51 3.57 39 39 0 0 0 4.85-0.13 52.65 52.65 0 0 0 80.78 4.31 39 39 0 0 0 68.85 0.7 60.36 60.36 0 0 0 74.5-15.46 28.32 28.32 0 1 0 11.26-54.82z"/>
     </g>
     <g class="cls-4">
      <path class="cls-5" d="m344.53 216c18.43-32.27-0.37-76.29-9.25-99.25-6.71-17.32-29-40.93-46.36-49.63s-24-17.93-47.81-20.32c-31-3.1-72.12 20.58-97.3 27.31-27.19 7.27-73.81 29.55-99.17 57.34-29.64 32.55-30.32 58.32-22.34 77.26 8.52 20.2 22.7 31.27 31.43 39.2a123.85 123.85 0 0 0 29.18 20c20.6 9.87 38.48 9.38 53.87 10.45 11.67 0.83 41.79 3.26 72.14-3.08 21.54-4.5 41-7.72 52.08-11.17 23.46-7.23 68.13-21.18 83.53-48.11z"/>
     </g>
     <path class="cls-6" d="m275.32 136.4a77.57 77.57 0 1 0-149.93-39.8q-1.19-0.06-2.37-0.06a48.32 48.32 0 0 0-40.48 21.93 37.57 37.57 0 1 0 9.66 63.61 48.26 48.26 0 0 0 64.46-2.54 77.51 77.51 0 0 0 84.57 2.16 29.27 29.27 0 1 0 34.09-45.3z"/>
     <path class="cls-3" d="m276.42 137.53a77.56 77.56 0 1 0-149.92-39.81c-0.78 0-1.57-0.07-2.36-0.07a48.23 48.23 0 0 0-40.47 21.95 37.57 37.57 0 1 0 9.65 63.61 48.29 48.29 0 0 0 64.46-2.54 77.5 77.5 0 0 0 84.55 2.15 29.27 29.27 0 1 0 34.09-45.29z"/>
     <g filter="url(#filter310)">
      <path class="cls-6" d="m389.61 123.65c-0.87 0-1.7 0-2.55 0.09a33.19 33.19 0 0 0-43.52-19.84 32.2 32.2 0 0 0-60.19-1 30.57 30.57 0 0 0-4.9-0.41 28.31 28.31 0 0 0-28.16 25.32 32.88 32.88 0 0 0-6.32-0.62 31.95 31.95 0 0 0 0 63.89h0.83a29.45 29.45 0 0 0 53.88 8.16 40.41 40.41 0 0 0 71.83-4 38.35 38.35 0 1 0 19.1-71.61z"/>
      <path class="cls-7" d="m390.91 125c-0.86 0-1.69 0-2.52 0.09a33.18 33.18 0 0 0-43.55-19.85 32.21 32.21 0 0 0-60.2-1 27.89 27.89 0 0 0-4.86-0.45 28.35 28.35 0 0 0-28.18 25.34 32.88 32.88 0 0 0-6.32-0.62 31.94 31.94 0 1 0 0 63.88h0.83a29.44 29.44 0 0 0 53.89 8.16 40.4 40.4 0 0 0 71.83-4 38.34 38.34 0 1 0 19.08-71.55z"/>
     </g>
     <g filter="url(#filter334)">
      <path class="cls-6" d="m360.86 48.85a46.14 46.14 0 0 0-5.16 0.3 48.11 48.11 0 0 0-72-24.73 37.19 37.19 0 0 0-71.44 5.69 30.75 30.75 0 0 0-48.85 21h-0.24a44.3 44.3 0 0 0 0 88.59 43.81 43.81 0 0 0 21.48-5.57 31.88 31.88 0 0 0 60.24 9.1 54.25 54.25 0 0 0 96.45-13.67 42.7 42.7 0 1 0 19.54-80.66z"/>
      <path class="cls-2" d="m362.17 50a44.19 44.19 0 0 0-5.18 0.33 48.09 48.09 0 0 0-72-24.73 37.18 37.18 0 0 0-71.42 5.68 30.76 30.76 0 0 0-48.87 21h-0.23a44.28 44.28 0 1 0 21.49 83 31.88 31.88 0 0 0 60.24 9.1 54.24 54.24 0 0 0 96.43-13.67 42.71 42.71 0 1 0 19.54-80.71z"/>
     </g>
     <path class="cls-6" d="m221.25 152.62a28.54 28.54 0 0 0-10.56 1.38 50.18 50.18 0 0 0-96.51-7 34.85 34.85 0 1 0 22.12 60.11 50.14 50.14 0 0 0 60.59-7.81 29 29 0 1 0 24.38-46.73z" filter="url(#filter298)"/>
    </g>
   </g>
  </g>
 </g>
</svg>
