<?xml version="1.0" encoding="UTF-8"?>
<svg width="492.82" height="436.1" version="1.1" viewBox="0 0 492.82 436.1" xmlns="http://www.w3.org/2000/svg">
 <defs>
  <style>.mix-cls-1 {
        fill: #eef7fa;
      }

      .mix-cls-2 {
        fill: #91d5eb;
      }

      .mix-cls-3 {
        fill: #fff;
      }

      .mix-cls-4 {
        fill: #e1f0fa;
      }

      .mix-cls-5 {
        fill: #9ddef2;
      }

      .mix-cls-6 {
        fill: #a2def2;
      }

      .mix-cls-7 {
        fill: #bee9f7;
      }

      .mix-cls-8 {
        fill: #c8eefa;
      }

      .mix-cls-9 {
        fill: #b3edff;
      }

      .mix-cls-10 {
        fill: #61d7ff;
      }</style>
  <filter id="filter204" x="-.10068" y="-.17126" width="1.2223" height="1.3782" color-interpolation-filters="sRGB">
   <feFlood flood-color="rgb(0,0,0)" flood-opacity=".30196" result="flood"/>
   <feComposite in="flood" in2="SourceGraphic" operator="in" result="composite1"/>
   <feGaussianBlur in="composite1" result="blur" stdDeviation="12"/>
   <feOffset dx="6" dy="6" result="offset"/>
   <feComposite in="SourceGraphic" in2="offset" result="composite2"/>
  </filter>
  <filter id="filter216" x="-.16687" y="-.27609" width="1.3685" height="1.6097" color-interpolation-filters="sRGB">
   <feFlood flood-color="rgb(0,0,0)" flood-opacity=".30196" result="flood"/>
   <feComposite in="flood" in2="SourceGraphic" operator="in" result="composite1"/>
   <feGaussianBlur in="composite1" result="blur" stdDeviation="12"/>
   <feOffset dx="6" dy="6" result="offset"/>
   <feComposite in="SourceGraphic" in2="offset" result="composite2"/>
  </filter>
  <filter id="filter228" x="-.10915" y="-.18407" width="1.241" height="1.4065" color-interpolation-filters="sRGB">
   <feFlood flood-color="rgb(0,0,0)" flood-opacity=".30196" result="flood"/>
   <feComposite in="flood" in2="SourceGraphic" operator="in" result="composite1"/>
   <feGaussianBlur in="composite1" result="blur" stdDeviation="12"/>
   <feOffset dx="6" dy="6" result="offset"/>
   <feComposite in="SourceGraphic" in2="offset" result="composite2"/>
  </filter>
  <filter id="filter240" x="-.13234" y="-.2088" width="1.2922" height="1.4611" color-interpolation-filters="sRGB">
   <feFlood flood-color="rgb(0,0,0)" flood-opacity=".30196" result="flood"/>
   <feComposite in="flood" in2="SourceGraphic" operator="in" result="composite1"/>
   <feGaussianBlur in="composite1" result="blur" stdDeviation="12"/>
   <feOffset dx="6" dy="6" result="offset"/>
   <feComposite in="SourceGraphic" in2="offset" result="composite2"/>
  </filter>
  <filter id="filter252" x="-.069115" y="-.1308" width="1.1526" height="1.2888" color-interpolation-filters="sRGB">
   <feFlood flood-color="rgb(0,0,0)" flood-opacity=".30196" result="flood"/>
   <feComposite in="flood" in2="SourceGraphic" operator="in" result="composite1"/>
   <feGaussianBlur in="composite1" result="blur" stdDeviation="12"/>
   <feOffset dx="6" dy="6" result="offset"/>
   <feComposite in="SourceGraphic" in2="offset" result="composite2"/>
  </filter>
  <filter id="filter282" x="-.29702" y="-.30053" width="1.6559" height="1.6637" color-interpolation-filters="sRGB">
   <feFlood flood-color="rgb(0,0,0)" flood-opacity=".30196" result="flood"/>
   <feComposite in="flood" in2="SourceGraphic" operator="in" result="composite1"/>
   <feGaussianBlur in="composite1" result="blur" stdDeviation="12"/>
   <feOffset dx="6" dy="6" result="offset"/>
   <feComposite in="SourceGraphic" in2="offset" result="composite2"/>
  </filter>
  <filter id="filter294" x="-.46707" y="-.47224" width="2.0314" height="2.0429" color-interpolation-filters="sRGB">
   <feFlood flood-color="rgb(0,0,0)" flood-opacity=".30196" result="flood"/>
   <feComposite in="flood" in2="SourceGraphic" operator="in" result="composite1"/>
   <feGaussianBlur in="composite1" result="blur" stdDeviation="12"/>
   <feOffset dx="6" dy="6" result="offset"/>
   <feComposite in="SourceGraphic" in2="offset" result="composite2"/>
  </filter>
  <filter id="filter324" x="-.74805" y="-.48706" width="2.6519" height="2.0756" color-interpolation-filters="sRGB">
   <feFlood flood-color="rgb(0,0,0)" flood-opacity=".30196" result="flood"/>
   <feComposite in="flood" in2="SourceGraphic" operator="in" result="composite1"/>
   <feGaussianBlur in="composite1" result="blur" stdDeviation="12"/>
   <feOffset dx="6" dy="6" result="offset"/>
   <feComposite in="SourceGraphic" in2="offset" result="composite2"/>
  </filter>
  <filter id="filter336" x="-1.1963" y="-.7726" width="3.6417" height="2.7062" color-interpolation-filters="sRGB">
   <feFlood flood-color="rgb(0,0,0)" flood-opacity=".30196" result="flood"/>
   <feComposite in="flood" in2="SourceGraphic" operator="in" result="composite1"/>
   <feGaussianBlur in="composite1" result="blur" stdDeviation="12"/>
   <feOffset dx="6" dy="6" result="offset"/>
   <feComposite in="SourceGraphic" in2="offset" result="composite2"/>
  </filter>
  <filter id="filter348" x="-.89441" y="-.58276" width="2.9752" height="2.2869" color-interpolation-filters="sRGB">
   <feFlood flood-color="rgb(0,0,0)" flood-opacity=".30196" result="flood"/>
   <feComposite in="flood" in2="SourceGraphic" operator="in" result="composite1"/>
   <feGaussianBlur in="composite1" result="blur" stdDeviation="12"/>
   <feOffset dx="6" dy="6" result="offset"/>
   <feComposite in="SourceGraphic" in2="offset" result="composite2"/>
  </filter>
  <filter id="filter360" x="-1.197" y="-.78007" width="3.6434" height="2.7226" color-interpolation-filters="sRGB">
   <feFlood flood-color="rgb(0,0,0)" flood-opacity=".30196" result="flood"/>
   <feComposite in="flood" in2="SourceGraphic" operator="in" result="composite1"/>
   <feGaussianBlur in="composite1" result="blur" stdDeviation="12"/>
   <feOffset dx="6" dy="6" result="offset"/>
   <feComposite in="SourceGraphic" in2="offset" result="composite2"/>
  </filter>
 </defs>
 <g transform="translate(28.758 28.812)" data-name="Layer 2">
  <g id="_Layer_" data-name="&lt;Layer&gt;">
   <g filter="url(#filter252)">
    <path class="mix-cls-1" d="m388.64 179.08a60.38 60.38 0 0 0-21.43-31.36 71.81 71.81 0 0 0-132.83-54.46c-2.08-0.27-4.18-0.48-6.31-0.57a73 73 0 0 0-61.65 29.23 39 39 0 0 0-53.34 34.62 38.3 38.3 0 0 0 1 10.32 27 27 0 0 0-18.63 12.59 37.57 37.57 0 0 0-65 8.27c-0.73-0.09-1.46-0.16-2.21-0.2a27 27 0 1 0 17.47 46.48 37.51 37.51 0 0 0 17.72 5.39 39 39 0 0 0 70.4 1.57 38.66 38.66 0 0 0 14.56 3.52 35.36 35.36 0 0 0 4.84-0.13 52.67 52.67 0 0 0 80.8 4.31 39 39 0 0 0 68.83 0.7 60.37 60.37 0 0 0 74.51-15.46 28.32 28.32 0 1 0 11.27-54.82z"/>
    <path class="mix-cls-2" d="m389.76 180.2a60.61 60.61 0 0 0-21.43-31.38 71.81 71.81 0 0 0-132.84-54.43c-2.08-0.28-4.18-0.48-6.31-0.57a73 73 0 0 0-61.65 29.18 39.53 39.53 0 0 0-12.66-2.73 39.05 39.05 0 0 0-40.68 37.36 39.67 39.67 0 0 0 1 10.32 27.06 27.06 0 0 0-18.63 12.56 37.57 37.57 0 0 0-65 8.3 20 20 0 0 0-2.19-0.21 27 27 0 1 0 17.45 46.5 37.47 37.47 0 0 0 17.73 5.42 39 39 0 0 0 70.39 1.56 38.66 38.66 0 0 0 14.56 3.52 39.08 39.08 0 0 0 4.85-0.12 52.65 52.65 0 0 0 80.8 4.29 39 39 0 0 0 68.82 0.72 60.37 60.37 0 0 0 74.51-15.49 28.33 28.33 0 1 0 11.28-54.83z"/>
   </g>
   <g filter="url(#filter282)">
    <path class="mix-cls-3" d="m201.82 252.77a2.28 2.28 0 0 1-0.3 0.17l-88.25 40.87a2.26 2.26 0 0 1-1.73 0.08 2.23 2.23 0 0 1-1.27-1.18 2.27 2.27 0 0 1 0.81-2.84 1.61 1.61 0 0 1 0.28-0.17l88.26-40.89a2.2825 2.2825 0 0 1 2.2 4z"/>
    <path class="mix-cls-3" d="m196.72 263a2.09 2.09 0 0 1-0.28 0.17 2.3 2.3 0 0 1-3-1.11l-6-12.92a2.3 2.3 0 0 1 0.82-2.85 1.59 1.59 0 0 1 0.29-0.15 2.27 2.27 0 0 1 3 1.09l6 12.92a2.3 2.3 0 0 1-0.83 2.85z"/>
    <path class="mix-cls-3" d="m124.64 296.37-0.29 0.17a2.27 2.27 0 0 1-3-1.11l-6-12.93a2.28 2.28 0 0 1 0.82-2.84l0.29-0.17a2.29 2.29 0 0 1 3 1.11l6 12.92a2.27 2.27 0 0 1-0.82 2.85z"/>
    <path class="mix-cls-3" d="m178.13 317.33a1.81 1.81 0 0 1-0.31 0.18 2.16 2.16 0 0 1-1.71 0.07 2.35 2.35 0 0 1-1.29-1.19l-40.82-88.25a2.28 2.28 0 0 1 0.81-2.84 1.59 1.59 0 0 1 0.29-0.15 2.19 2.19 0 0 1 1.74-0.07 2.17 2.17 0 0 1 1.27 1.18l40.88 88.23a2.27 2.27 0 0 1-0.86 2.84z"/>
    <path class="mix-cls-3" d="m180.85 306.27a2.8 2.8 0 0 1-0.3 0.15l-12.92 6a2.3 2.3 0 0 1-1.73 0.07 2.26 2.26 0 0 1-0.47-4 2.09 2.09 0 0 1 0.29-0.16l12.93-6a2.26 2.26 0 0 1 1.73-0.08 2.28 2.28 0 0 1 0.47 4z"/>
    <path class="mix-cls-3" d="m147.46 234.18-0.3 0.18-12.92 6a2.26 2.26 0 0 1-1.73 0.08 2.32 2.32 0 0 1-1.28-1.18 2.27 2.27 0 0 1 0.81-2.84 1.26 1.26 0 0 1 0.3-0.18l12.92-6a2.2 2.2 0 0 1 1.74-0.08 2.23 2.23 0 0 1 1.27 1.18 2.26 2.26 0 0 1-0.81 2.84z"/>
    <path class="mix-cls-3" d="m140.94 318.87a1.51 1.51 0 0 1-0.28 0.15 2.16 2.16 0 0 1-1.74 0.07 2.25 2.25 0 0 1-1.29-1.17 2.28 2.28 0 0 1 0-1.74l33.48-91.29a2 2 0 0 1 0.89-1.1 2.17 2.17 0 0 1 2-0.24 2.14 2.14 0 0 1 1.27 1.16 2.22 2.22 0 0 1 0.08 1.73l-33.49 91.31a2.23 2.23 0 0 1-0.92 1.12z"/>
    <path class="mix-cls-3" d="m150.7 313a1.05 1.05 0 0 1-0.3 0.15 2.21 2.21 0 0 1-1.73 0.09l-13.37-4.9a2.32 2.32 0 0 1-1.28-1.18 2.24 2.24 0 0 1-0.07-1.74 2.27 2.27 0 0 1 0.88-1.12 2.32 2.32 0 0 1 2-0.24l13.38 4.9a2.33 2.33 0 0 1 1.27 1.18 2.26 2.26 0 0 1 0.07 1.75 2.34 2.34 0 0 1-0.85 1.11z"/>
    <path class="mix-cls-3" d="m178.05 238.38-0.29 0.17a2.38 2.38 0 0 1-1.74 0.07l-13.36-4.92a2.26 2.26 0 0 1-0.46-4 2.19 2.19 0 0 1 2-0.22l13.37 4.9a2.25 2.25 0 0 1 1.34 2.9 2.22 2.22 0 0 1-0.86 1.1z"/>
    <path class="mix-cls-3" d="m203.35 290c-0.09 0.06-0.21 0.11-0.31 0.17a2.28 2.28 0 0 1-1.72 0.07l-91.32-33.54a2.25 2.25 0 0 1-1.34-2.9 2.17 2.17 0 0 1 0.88-1.12 2.28 2.28 0 0 1 2-0.24l91.29 33.5a2.25 2.25 0 0 1 1.28 1.16 2.33 2.33 0 0 1-0.8 2.86z"/>
    <path class="mix-cls-3" d="m118 266.23-0.29 0.16a2.21 2.21 0 0 1-1.73 0.07 2.27 2.27 0 0 1-1.36-2.91l4.9-13.38a2.25 2.25 0 0 1 0.89-1.1 2.19 2.19 0 0 1 2-0.24 2.28 2.28 0 0 1 1.28 1.18 2.25 2.25 0 0 1 0.07 1.73l-4.91 13.38a2.29 2.29 0 0 1-0.85 1.11z"/>
    <path class="mix-cls-3" d="m192.52 293.59a1.91 1.91 0 0 1-0.28 0.15 2.28 2.28 0 0 1-3-1.11 2.17 2.17 0 0 1-0.06-1.73l4.9-13.36a2.27 2.27 0 0 1 0.88-1.12 2.31 2.31 0 0 1 2-0.24 2.3 2.3 0 0 1 1.34 2.93l-4.9 13.36a2.27 2.27 0 0 1-0.88 1.12z"/>
    <path class="mix-cls-3" d="m168.94 297.59a0.84 0.84 0 0 1-0.26 0.15 2 2 0 0 1-1.86-0.08l-9.51-5.36-9.05 6.14a2.07 2.07 0 0 1-1.85 0.22 2.1 2.1 0 0 1-1.26-1.37l-3-10.52-10.71-2.06a2.06 2.06 0 0 1-1.47-1.14 2.09 2.09 0 0 1 0.08-1.87l5.35-9.5-6.11-9.07a2 2 0 0 1-0.24-1.82 2 2 0 0 1 0.8-1 1.83 1.83 0 0 1 0.57-0.26l10.58-2.97 2.07-10.72a2.06 2.06 0 0 1 0.88-1.31c0.09-0.05 0.17-0.11 0.26-0.15a2 2 0 0 1 1.86 0.08l9.52 5.34 9-6.12a2 2 0 0 1 3.11 1.15l2.94 10.52 10.72 2.06a2.06 2.06 0 0 1 1.39 3l-5.35 9.51 6 8.82a1.87 1.87 0 0 1 0.34 0.52 2 2 0 0 1-0.73 2.54l-0.27 0.17h-0.06a1.71 1.71 0 0 1-0.27 0.09l-10.51 2.95-2.07 10.72a2 2 0 0 1-0.89 1.34zm-12.87-9.36c0.09-0.06 0.19-0.09 0.28-0.15a2.1 2.1 0 0 1 1.86 0.06l8.15 4.58 1.77-9.17a2.06 2.06 0 0 1 0.89-1.31 1.73 1.73 0 0 1 0.57-0.26l9-2.54-5.23-7.74a2.06 2.06 0 0 1-0.1-2.14l4.58-8.16-9.17-1.77a2.06 2.06 0 0 1-1.58-1.46l-2.52-9-7.76 5.25a2.11 2.11 0 0 1-2.14 0.08l-8.15-4.59-1.78 9.19a2 2 0 0 1-0.89 1.31 2.2 2.2 0 0 1-0.56 0.26l-9 2.52 5.25 7.76a2.05 2.05 0 0 1 0.08 2.16l-4.62 8.13 9.17 1.77a2 2 0 0 1 1.58 1.46l2.53 9 7.74-5.25z"/>
    <path class="mix-cls-3" d="m183.92 297.29a1.43 1.43 0 0 1-0.26 0.15 2.12 2.12 0 0 1-1.11 0.17l-14.75-1.77-8.18 12.4a1.89 1.89 0 0 1-0.59 0.57 1.77 1.77 0 0 1-1 0.33 2 2 0 0 1-1.69-0.77l-9.18-11.68-14.56 3a2 2 0 0 1-1.78-0.5 2 2 0 0 1-0.65-1.75l1.77-14.74-12.39-8.18a2 2 0 0 1-0.91-1.62 2 2 0 0 1 0.77-1.7l11.66-9.2-3-14.56a2 2 0 0 1 0.51-1.77 1.91 1.91 0 0 1 0.37-0.33 2.14 2.14 0 0 1 1.37-0.32l14.75 1.77 8.19-12.4a1.82 1.82 0 0 1 0.57-0.57 2.15 2.15 0 0 1 1-0.35 2.09 2.09 0 0 1 1.69 0.79l9.23 11.74 14.56-3a2 2 0 0 1 2.43 2.25l-1.74 14.75 12.4 8.2a2 2 0 0 1 0.13 3.28l-11.69 9.2 3 14.54a2 2 0 0 1-0.5 1.8 2.76 2.76 0 0 1-0.42 0.27zm-18.24-5.29a2.18 2.18 0 0 1 1.36-0.33l13.2 1.58-2.66-13a2 2 0 0 1 0.73-2l10.45-8.25-11.09-7.31a2.05 2.05 0 0 1-0.9-1.95l1.59-13.2-13 2.67a2 2 0 0 1-2-0.73l-8.24-10.48-7.33 11.09a2 2 0 0 1-0.58 0.57 2 2 0 0 1-1.37 0.32l-13.19-1.59 2.66 13a2 2 0 0 1-0.74 2l-10.44 8.22 11.09 7.39a2 2 0 0 1 0.9 1.94l-1.58 13.19 13-2.65a2 2 0 0 1 2 0.74l8.22 10.44 7.32-11.07a1.73 1.73 0 0 1 0.6-0.59z"/>
    <path class="mix-cls-4" d="m203 252.77a1.38 1.38 0 0 1-0.29 0.17l-88.25 40.87a2.26 2.26 0 0 1-1.73 0.08 2.27 2.27 0 0 1-0.47-4 1.78 1.78 0 0 1 0.3-0.17l88.25-40.89a2.2801 2.2801 0 0 1 2.19 4z"/>
    <path class="mix-cls-4" d="m197.87 263a1.69 1.69 0 0 1-0.29 0.17 2.26 2.26 0 0 1-3-1.11l-6-12.92a2.26 2.26 0 0 1 0.81-2.85 1.51 1.51 0 0 1 0.28-0.15 2.27 2.27 0 0 1 3 1.09l6 12.92a2.3 2.3 0 0 1-0.8 2.85z"/>
    <path class="mix-cls-4" d="m125.8 296.37-0.3 0.17a2.27 2.27 0 0 1-3-1.11l-6-12.93a2.29 2.29 0 0 1 0.82-2.84c0.08-0.06 0.19-0.11 0.29-0.17a2.3 2.3 0 0 1 3 1.11l6 12.92a2.29 2.29 0 0 1-0.81 2.85z"/>
    <path class="mix-cls-4" d="m179.28 317.33a2.82 2.82 0 0 1-0.29 0.18 2.24 2.24 0 0 1-1.74 0.07 2.33 2.33 0 0 1-1.28-1.19l-40.88-88.25a2.29 2.29 0 0 1 0.82-2.84 1.59 1.59 0 0 1 0.29-0.15 2.26 2.26 0 0 1 3 1.11l40.88 88.23a2.27 2.27 0 0 1-0.8 2.84z"/>
    <path class="mix-cls-4" d="m182 306.27a2.1 2.1 0 0 1-0.3 0.15l-12.92 6a2.33 2.33 0 0 1-1.74 0.07 2.2 2.2 0 0 1-1.27-1.18 2.27 2.27 0 0 1 0.81-2.84 2.09 2.09 0 0 1 0.29-0.16l12.93-6a2.24 2.24 0 0 1 3 1.1 2.28 2.28 0 0 1-0.8 2.86z"/>
    <path class="mix-cls-4" d="m148.61 234.18c-0.09 0.06-0.2 0.11-0.3 0.18l-12.92 6a2.28 2.28 0 0 1-1.74 0.08 2.33 2.33 0 0 1-1.27-1.18 2.27 2.27 0 0 1 0.81-2.84 1.49 1.49 0 0 1 0.3-0.18l12.92-6a2.17 2.17 0 0 1 1.73-0.08 2.27 2.27 0 0 1 0.47 4z"/>
    <path class="mix-cls-4" d="m142.09 318.87a1.59 1.59 0 0 1-0.29 0.15 2.13 2.13 0 0 1-1.73 0.07 2.17 2.17 0 0 1-1.28-1.17 2.28 2.28 0 0 1-0.07-1.74l33.49-91.29a2.06 2.06 0 0 1 0.88-1.1 2.28 2.28 0 0 1 3.31 0.92 2.26 2.26 0 0 1 0.07 1.73l-33.47 91.31a2.29 2.29 0 0 1-0.91 1.12z"/>
    <path class="mix-cls-4" d="m151.84 313a1.08 1.08 0 0 1-0.28 0.15 2.26 2.26 0 0 1-1.75 0.09l-13.37-4.9a2.3 2.3 0 0 1-1.27-1.18 2.28 2.28 0 0 1 2.83-3.16l13.37 4.9a2.27 2.27 0 0 1 0.46 4z"/>
    <path class="mix-cls-4" d="m179.2 238.38-0.29 0.17a2.38 2.38 0 0 1-1.74 0.07l-13.37-4.92a2.26 2.26 0 0 1-1.34-2.91 2.29 2.29 0 0 1 0.88-1.11 2.22 2.22 0 0 1 2-0.22l13.38 4.9a2.27 2.27 0 0 1 1.34 2.9 2.24 2.24 0 0 1-0.86 1.12z"/>
    <path class="mix-cls-4" d="m204.49 290-0.3 0.17a2.3 2.3 0 0 1-1.73 0.07l-91.3-33.5a2.25 2.25 0 0 1-1.28-1.18 2.29 2.29 0 0 1 0.82-2.84 2.27 2.27 0 0 1 2-0.24l91.3 33.46a2.33 2.33 0 0 1 1.27 1.16 2.24 2.24 0 0 1 0.07 1.74 2.17 2.17 0 0 1-0.85 1.16z"/>
    <path class="mix-cls-4" d="m119.1 266.23-0.3 0.16a2.21 2.21 0 0 1-1.73 0.07 2.28 2.28 0 0 1-1.35-2.91l4.91-13.38a2.13 2.13 0 0 1 0.88-1.1 2.19 2.19 0 0 1 2-0.24 2.25 2.25 0 0 1 1.34 2.91l-4.85 13.38a2.34 2.34 0 0 1-0.9 1.11z"/>
    <path class="mix-cls-4" d="m193.67 293.59a1.91 1.91 0 0 1-0.28 0.15 2.28 2.28 0 0 1-3-1.11 2.25 2.25 0 0 1-0.07-1.73l4.9-13.36a2.34 2.34 0 0 1 0.89-1.12 2.29 2.29 0 0 1 2-0.24 2.18 2.18 0 0 1 1.28 1.19 2.28 2.28 0 0 1 0.07 1.74l-4.9 13.36a2.33 2.33 0 0 1-0.89 1.12z"/>
    <path class="mix-cls-4" d="m170.09 297.59a1.1 1.1 0 0 1-0.25 0.15 2 2 0 0 1-1.86-0.08l-9.52-5.36-9.05 6.14a2 2 0 0 1-3.11-1.15l-2.94-10.52-10.73-2.06a2 2 0 0 1-1.38-3l5.35-9.5-6.12-9.07a2 2 0 0 1-0.22-1.82 1.91 1.91 0 0 1 0.8-1 1.6 1.6 0 0 1 0.56-0.26l10.52-2.95 2.07-10.72a2 2 0 0 1 0.89-1.31 1.27 1.27 0 0 1 0.26-0.15 2 2 0 0 1 1.85 0.08l9.52 5.34 9.05-6.12a2.09 2.09 0 0 1 1.85-0.22 2.06 2.06 0 0 1 1.25 1.37l3 10.52 10.72 2.06a2 2 0 0 1 1.39 3l-5.35 9.51 5.95 8.82a1.67 1.67 0 0 1 0.34 0.52 2 2 0 0 1-0.72 2.54l-0.26 0.17h-0.07a2 2 0 0 1-0.26 0.09l-10.52 2.95-2.1 10.72a2 2 0 0 1-0.91 1.31zm-12.87-9.36c0.09-0.06 0.19-0.09 0.28-0.15a2.1 2.1 0 0 1 1.86 0.06l8.15 4.58 1.78-9.17a2 2 0 0 1 0.88-1.31 1.64 1.64 0 0 1 0.57-0.26l9-2.54-5.24-7.74a2.06 2.06 0 0 1-0.09-2.14l4.59-8.16-9.18-1.77a2.08 2.08 0 0 1-1.59-1.46l-2.52-9-7.71 5.24a2.11 2.11 0 0 1-2.14 0.08l-8.15-4.59-1.78 9.19a2 2 0 0 1-0.89 1.31 2.2 2.2 0 0 1-0.56 0.26l-9 2.52 5.23 7.76a2.07 2.07 0 0 1 0.1 2.16l-4.59 8.14 9.19 1.77a2.08 2.08 0 0 1 1.57 1.46l2.52 9 7.76-5.25z"/>
    <path class="mix-cls-4" d="m185.07 297.29a1.49 1.49 0 0 1-0.27 0.15 2.08 2.08 0 0 1-1.1 0.17l-14.7-1.77-8.18 12.4a2.24 2.24 0 0 1-0.58 0.57 1.76 1.76 0 0 1-1 0.33 2 2 0 0 1-1.69-0.77l-9.18-11.68-14.54 3a2 2 0 0 1-1.8-0.5 2.06 2.06 0 0 1-0.65-1.75l1.78-14.74-12.39-8.18a2.07 2.07 0 0 1-0.91-1.62 2 2 0 0 1 0.77-1.7l11.59-9.2-3-14.56a2 2 0 0 1 0.5-1.77 1.7 1.7 0 0 1 0.38-0.33 2.09 2.09 0 0 1 1.36-0.32l14.74 1.77 8.19-12.4a2 2 0 0 1 0.58-0.57 2.15 2.15 0 0 1 1-0.35 2.09 2.09 0 0 1 1.69 0.79l9.25 11.74 14.54-3a2 2 0 0 1 2.44 2.25l-1.77 14.75 12.39 8.2a2 2 0 0 1 0.91 1.6 2 2 0 0 1-0.77 1.68l-11.65 9.16 3 14.54a2 2 0 0 1-0.49 1.8 3.57 3.57 0 0 1-0.44 0.31zm-18.25-5.29a2.21 2.21 0 0 1 1.37-0.33l13.19 1.58-2.65-13a2 2 0 0 1 0.74-2l10.44-8.25-11.09-7.31a2 2 0 0 1-0.9-1.95l1.58-13.2-13 2.67a2 2 0 0 1-2-0.73l-8.23-10.48-7.34 11.09a2.05 2.05 0 0 1-1.93 0.91l-13.2-1.59 2.66 13a2 2 0 0 1-0.73 2l-10.45 8.22 11.09 7.37a2 2 0 0 1 0.9 1.94l-1.59 13.19 13-2.65a2 2 0 0 1 2 0.74l8.21 10.44 7.33-11.07a1.79 1.79 0 0 1 0.6-0.59z"/>
   </g>
   <g filter="url(#filter294)">
    <path class="mix-cls-3" d="m112 330.22-0.19 0.12-56.12 26a1.39 1.39 0 0 1-1.11 0.05 1.36 1.36 0 0 1-0.81-0.73 1.48 1.48 0 0 1 0.52-1.83l0.18-0.11 56.13-26a1.44 1.44 0 0 1 1.4 2.5z"/>
    <path class="mix-cls-3" d="m108.73 336.71-0.18 0.11a1.45 1.45 0 0 1-1.92-0.7l-3.81-8.22a1.45 1.45 0 0 1 0.52-1.8l0.18-0.11a1.45 1.45 0 0 1 1.92 0.7l3.81 8.22a1.42 1.42 0 0 1-0.52 1.8z"/>
    <path class="mix-cls-3" d="m62.89 358a0.82 0.82 0 0 1-0.19 0.09 1.44 1.44 0 0 1-1.92-0.7l-3.78-8.26a1.43 1.43 0 0 1 0.51-1.8l0.2-0.12a1.45 1.45 0 0 1 1.9 0.71l3.82 8.23a1.46 1.46 0 0 1-0.54 1.85z"/>
    <path class="mix-cls-3" d="m96.91 371.28a0.93 0.93 0 0 1-0.19 0.11 1.32 1.32 0 0 1-1.1 0 1.29 1.29 0 0 1-0.81-0.74l-26-56.13a1.42 1.42 0 0 1 0.51-1.8l0.19-0.12a1.44 1.44 0 0 1 1.1 0 1.42 1.42 0 0 1 0.81 0.73l26 56.14a1.44 1.44 0 0 1-0.51 1.81z"/>
    <path class="mix-cls-3" d="m98.64 364.24a1.18 1.18 0 0 1-0.19 0.11l-8.22 3.8a1.44 1.44 0 0 1-1.92-0.7 1.47 1.47 0 0 1 0.52-1.81l0.18-0.11 8.23-3.79a1.32 1.32 0 0 1 1.1 0 1.34 1.34 0 0 1 0.81 0.74 1.44 1.44 0 0 1-0.51 1.76z"/>
    <path class="mix-cls-3" d="m77.39 318.39-0.18 0.11-8.21 3.8a1.43 1.43 0 0 1-1.11 0.06 1.47 1.47 0 0 1-0.81-0.74 1.49 1.49 0 0 1 0.52-1.83l0.18-0.11 8.22-3.79a1.35 1.35 0 0 1 1.11 0 1.32 1.32 0 0 1 0.81 0.74 1.42 1.42 0 0 1-0.53 1.76z"/>
    <path class="mix-cls-3" d="m73.26 372.26a0.93 0.93 0 0 1-0.19 0.11 1.36 1.36 0 0 1-1.1 0 1.42 1.42 0 0 1-0.82-0.74 1.47 1.47 0 0 1 0-1.11l21.3-58.06a1.32 1.32 0 0 1 0.56-0.72 1.44 1.44 0 0 1 2.15 1.69l-21.3 58.09a1.52 1.52 0 0 1-0.6 0.74z"/>
    <path class="mix-cls-3" d="m79.46 368.52-0.19 0.07a1.41 1.41 0 0 1-1.1 0.08l-8.51-3.14a1.54 1.54 0 0 1-0.81-0.74 1.45 1.45 0 0 1 0-1.1 1.38 1.38 0 0 1 0.56-0.72 1.47 1.47 0 0 1 1.29-0.15l8.5 3.12a1.46 1.46 0 0 1 0.81 0.75 1.38 1.38 0 0 1 0 1.11 1.63 1.63 0 0 1-0.55 0.72z"/>
    <path class="mix-cls-3" d="m96.85 321.07-0.18 0.11a1.57 1.57 0 0 1-1.11 0.05l-8.49-3.13a1.43 1.43 0 0 1-0.3-2.56 1.38 1.38 0 0 1 1.29-0.15l8.5 3.11a1.47 1.47 0 0 1 0.81 0.76 1.42 1.42 0 0 1 0 1.09 1.5 1.5 0 0 1-0.52 0.72z"/>
    <path class="mix-cls-3" d="m112.94 353.89-0.18 0.09a1.47 1.47 0 0 1-1.11 0l-58.07-21.3a1.54 1.54 0 0 1-0.82-0.75 1.52 1.52 0 0 1 0-1.11 1.5 1.5 0 0 1 0.57-0.7 1.46 1.46 0 0 1 1.28-0.17l58.08 21.31a1.49 1.49 0 0 1 0.81 0.75 1.43 1.43 0 0 1 0 1.11 1.58 1.58 0 0 1-0.56 0.77z"/>
    <path class="mix-cls-3" d="m58.62 338.78-0.18 0.11a1.36 1.36 0 0 1-1.1 0 1.51 1.51 0 0 1-0.82-0.73 1.53 1.53 0 0 1 0-1.11l3.12-8.51a1.35 1.35 0 0 1 0.56-0.7 1.38 1.38 0 0 1 1.29-0.15 1.44 1.44 0 0 1 0.81 0.74 1.36 1.36 0 0 1 0.05 1.1l-3.12 8.52a1.4 1.4 0 0 1-0.61 0.73z"/>
    <path class="mix-cls-3" d="m106.06 356.17-0.18 0.11a1.32 1.32 0 0 1-1.1 0 1.29 1.29 0 0 1-0.81-0.74 1.4 1.4 0 0 1-0.06-1.1l3.09-8.44a1.61 1.61 0 0 1 0.57-0.7 1.43 1.43 0 0 1 2.1 0.61 1.38 1.38 0 0 1 0 1.09l-3.12 8.51a1.34 1.34 0 0 1-0.49 0.66z"/>
    <path class="mix-cls-3" d="m91.07 358.73a0.75 0.75 0 0 1-0.17 0.1 1.29 1.29 0 0 1-1.18-0.06l-6.06-3.39-5.75 3.89a1.34 1.34 0 0 1-1.18 0.14 1.28 1.28 0 0 1-0.79-0.86l-1.88-6.69-6.82-1.33a1.29 1.29 0 0 1-0.94-0.74 1.25 1.25 0 0 1 0.06-1.16l3.4-6.06-3.88-5.75a1.28 1.28 0 0 1-0.15-1.18 1.18 1.18 0 0 1 0.5-0.62 1.57 1.57 0 0 1 0.36-0.19l6.69-1.83 1.32-6.84a1.33 1.33 0 0 1 0.56-0.83 0.47 0.47 0 0 0 0.17-0.09 1.3 1.3 0 0 1 1.18 0.06l6 3.41 5.76-3.91a1.31 1.31 0 0 1 1.17-0.13 1.26 1.26 0 0 1 0.8 0.85l1.88 6.71 6.88 1.27a1.33 1.33 0 0 1 0.92 0.74 1.26 1.26 0 0 1 0 1.18l-3.41 6.05 3.79 5.6a1.52 1.52 0 0 1 0.21 0.33 1.28 1.28 0 0 1-0.51 1.6l-0.16 0.11a0.37 0.37 0 0 1-0.16 0.07l-6.68 1.9-1.33 6.82a1.27 1.27 0 0 1-0.6 0.83zm-8.19-6 0.17-0.11a1.29 1.29 0 0 1 1.18 0.06l5.19 2.91 1.13-5.85a1.32 1.32 0 0 1 0.56-0.82 1.19 1.19 0 0 1 0.36-0.17l5.73-1.6-3.32-4.94a1.27 1.27 0 0 1-0.07-1.35l2.92-5.19-5.84-1.13a1.3 1.3 0 0 1-1-0.94l-1.61-5.71-4.93 3.32a1.35 1.35 0 0 1-1.36 0.07l-5.19-2.88-1.13 5.84a1.31 1.31 0 0 1-0.56 0.85 1.19 1.19 0 0 1-0.35 0.15l-5.76 1.62 3.33 4.94a1.23 1.23 0 0 1 0.06 1.34l-2.91 5.18 5.84 1.14a1.33 1.33 0 0 1 1 0.92l1.68 5.74 4.92-3.34z"/>
    <path class="mix-cls-3" d="m100.58 358.55a1.29 1.29 0 0 0-0.16 0.09 1.52 1.52 0 0 1-0.7 0.11l-9.38-1.14-5.21 7.89a1.36 1.36 0 0 1-1 0.58 1.28 1.28 0 0 1-1.07-0.49l-5.84-7.43-9.25 1.9a1.37 1.37 0 0 1-1.14-0.31 1.3 1.3 0 0 1-0.41-1.13l1.13-9.38-7.89-5.19a1.37 1.37 0 0 1-0.58-1 1.28 1.28 0 0 1 0.5-1.06l7.42-5.89-1.89-9.27a1.26 1.26 0 0 1 0.32-1.12 2.61 2.61 0 0 1 0.24-0.22 1.31 1.31 0 0 1 0.86-0.19l9.39 1.13 5.21-7.89a1.19 1.19 0 0 1 0.37-0.37 1.36 1.36 0 0 1 0.65-0.22 1.44 1.44 0 0 1 1.08 0.5l5.77 7.43 9.29-1.88a1.26 1.26 0 0 1 1.14 0.31 1.35 1.35 0 0 1 0.41 1.11l-1.13 9.37 7.89 5.21a1.29 1.29 0 0 1 0.57 1 1.26 1.26 0 0 1-0.49 1.07l-7.43 5.93 1.9 9.25a1.36 1.36 0 0 1-0.33 1.15 1.59 1.59 0 0 1-0.24 0.15zm-11.58-3.39a1.36 1.36 0 0 1 0.87-0.21l8.39 1-1.68-8.27a1.26 1.26 0 0 1 0.42-1.28l6.65-5.23-7.06-4.66a1.33 1.33 0 0 1-0.57-1.24l1-8.38-8.29 1.69a1.32 1.32 0 0 1-1.28-0.46l-5.22-6.65-4.66 7.06a1.62 1.62 0 0 1-0.37 0.37 1.32 1.32 0 0 1-0.87 0.18l-8.39-1 1.69 8.27a1.3 1.3 0 0 1-0.46 1.29l-6.65 5.22 7.06 4.64a1.38 1.38 0 0 1 0.57 1.25l-1 8.39 8.29-1.68a1.27 1.27 0 0 1 1.28 0.46l5.28 6.66 4.67-7.05a1.27 1.27 0 0 1 0.33-0.37z"/>
    <path class="mix-cls-4" d="m112.7 330.22-0.18 0.12-56.13 26a1.36 1.36 0 0 1-1.1 0.05 1.38 1.38 0 0 1-0.82-0.73 1.48 1.48 0 0 1 0.52-1.83l0.18-0.11 56.13-26a1.44 1.44 0 0 1 1.4 2.5z"/>
    <path class="mix-cls-4" d="m109.46 336.71a0.86 0.86 0 0 1-0.19 0.11 1.43 1.43 0 0 1-1.9-0.7l-3.82-8.22a1.45 1.45 0 0 1 0.52-1.8 1.18 1.18 0 0 1 0.19-0.11 1.44 1.44 0 0 1 1.91 0.7l3.8 8.22a1.42 1.42 0 0 1-0.51 1.8z"/>
    <path class="mix-cls-4" d="m63.62 358a0.82 0.82 0 0 1-0.19 0.09 1.42 1.42 0 0 1-1.91-0.7l-3.82-8.22a1.44 1.44 0 0 1 0.53-1.8l0.18-0.12a1.47 1.47 0 0 1 1.92 0.71l3.8 8.23a1.45 1.45 0 0 1-0.51 1.81z"/>
    <path class="mix-cls-4" d="m97.64 371.28a0.78 0.78 0 0 1-0.2 0.11 1.3 1.3 0 0 1-1.09 0 1.34 1.34 0 0 1-0.81-0.74l-26-56.13a1.45 1.45 0 0 1 0.52-1.8l0.18-0.12a1.47 1.47 0 0 1 1.11 0 1.42 1.42 0 0 1 0.81 0.73l26 56.14a1.42 1.42 0 0 1-0.52 1.81z"/>
    <path class="mix-cls-4" d="m99.37 364.24a1.86 1.86 0 0 1-0.19 0.11l-8.18 3.8a1.44 1.44 0 0 1-1.92-0.7 1.46 1.46 0 0 1 0.52-1.81l0.18-0.11 8.22-3.79a1.32 1.32 0 0 1 1.1 0 1.34 1.34 0 0 1 0.81 0.74 1.43 1.43 0 0 1-0.54 1.76z"/>
    <path class="mix-cls-4" d="m78.13 318.39-0.18 0.11-8.22 3.8a1.43 1.43 0 0 1-1.11 0.06 1.38 1.38 0 0 1-0.81-0.74 1.48 1.48 0 0 1 0.52-1.83l0.18-0.11 8.22-3.79a1.34 1.34 0 0 1 1.11 0 1.4 1.4 0 0 1 0.81 0.74 1.45 1.45 0 0 1-0.52 1.76z"/>
    <path class="mix-cls-4" d="m74 372.26a0.67 0.67 0 0 1-0.18 0.11 1.38 1.38 0 0 1-1.11 0 1.43 1.43 0 0 1-0.85-1.85l21.3-58.06a1.32 1.32 0 0 1 0.56-0.72 1.43 1.43 0 0 1 2.1 0.61 1.31 1.31 0 0 1 0 1.08l-21.3 58.09a1.55 1.55 0 0 1-0.52 0.74z"/>
    <path class="mix-cls-4" d="m80.19 368.52-0.19 0.07a1.41 1.41 0 0 1-1.1 0.08l-8.51-3.14a1.54 1.54 0 0 1-0.81-0.74 1.41 1.41 0 0 1 0-1.1 1.45 1.45 0 0 1 1.86-0.87l8.5 3.12a1.46 1.46 0 0 1 0.86 1.86 1.56 1.56 0 0 1-0.61 0.72z"/>
    <path class="mix-cls-4" d="m97.59 321.07-0.18 0.11a1.57 1.57 0 0 1-1.11 0.05l-8.5-3.13a1.45 1.45 0 0 1-0.86-1.86 1.43 1.43 0 0 1 0.56-0.7 1.38 1.38 0 0 1 1.29-0.15l8.51 3.11a1.58 1.58 0 0 1 0.81 0.76 1.42 1.42 0 0 1 0 1.09 1.48 1.48 0 0 1-0.52 0.72z"/>
    <path class="mix-cls-4" d="m113.68 353.89a1.76 1.76 0 0 1-0.2 0.09 1.42 1.42 0 0 1-1.09 0l-58.08-21.3a1.49 1.49 0 0 1-0.81-0.75 1.44 1.44 0 0 1 0.52-1.81 1.45 1.45 0 0 1 1.28-0.12l58.08 21.31a1.47 1.47 0 0 1 0.3 2.58z"/>
    <path class="mix-cls-4" d="m59.35 338.78-0.18 0.11a1.36 1.36 0 0 1-1.1 0 1.42 1.42 0 0 1-0.81-0.73 1.39 1.39 0 0 1 0-1.11l3.11-8.51a1.35 1.35 0 0 1 0.56-0.7 1.38 1.38 0 0 1 1.29-0.15 1.42 1.42 0 0 1 0.86 1.84l-3.12 8.52a1.4 1.4 0 0 1-0.61 0.73z"/>
    <path class="mix-cls-4" d="m106.79 356.17a1.08 1.08 0 0 1-0.18 0.11 1.32 1.32 0 0 1-1.1 0 1.36 1.36 0 0 1-0.82-0.74 1.45 1.45 0 0 1 0-1.1l3.11-8.52a1.55 1.55 0 0 1 0.57-0.7 1.45 1.45 0 0 1 1.28-0.15 1.43 1.43 0 0 1 0.82 0.76 1.38 1.38 0 0 1 0 1.09l-3.11 8.51a1.41 1.41 0 0 1-0.57 0.74z"/>
    <path class="mix-cls-4" d="m91.79 358.73a0.54 0.54 0 0 1-0.16 0.1 1.29 1.29 0 0 1-1.18-0.06l-6-3.39-5.76 3.89a1.32 1.32 0 0 1-1.17 0.14 1.3 1.3 0 0 1-0.8-0.86l-1.88-6.69-6.84-1.33a1.25 1.25 0 0 1-0.93-0.74 1.23 1.23 0 0 1 0-1.16l3.4-6.06-3.9-5.75a1.3 1.3 0 0 1-0.13-1.18 1.23 1.23 0 0 1 0.56-0.64 1.24 1.24 0 0 1 0.36-0.19l6.64-1.81 1.32-6.84a1.33 1.33 0 0 1 0.56-0.83 0.47 0.47 0 0 0 0.17-0.09 1.29 1.29 0 0 1 1.18 0.06l6.05 3.41 5.77-3.91a1.29 1.29 0 0 1 1.16-0.13 1.26 1.26 0 0 1 0.8 0.85l1.88 6.71 6.82 1.3a1.42 1.42 0 0 1 0.93 0.74 1.3 1.3 0 0 1-0.05 1.18l-3.4 6.05 3.78 5.6a1.58 1.58 0 0 1 0.22 0.33 1.27 1.27 0 0 1-0.46 1.62l-0.16 0.11a0.36 0.36 0 0 1-0.17 0.07l-6.69 1.88-1.31 6.82a1.33 1.33 0 0 1-0.61 0.8zm-8.19-6 0.19-0.11a1.3 1.3 0 0 1 1.18 0.06l5.18 2.91 1.14-5.85a1.2 1.2 0 0 1 0.55-0.82 1.14 1.14 0 0 1 0.37-0.17l5.73-1.6-3.33-4.94a1.27 1.27 0 0 1-0.06-1.35l2.91-5.19-5.84-1.13a1.3 1.3 0 0 1-1-0.94l-1.62-5.66-4.93 3.32a1.35 1.35 0 0 1-1.36 0.07l-5.18-2.93-1.13 5.84a1.39 1.39 0 0 1-0.56 0.85 1.14 1.14 0 0 1-0.36 0.15l-5.74 1.62 3.33 4.94a1.27 1.27 0 0 1 0.07 1.34l-2.92 5.18 5.84 1.14a1.32 1.32 0 0 1 1 0.92l1.6 5.74 4.93-3.34z"/>
    <path class="mix-cls-4" d="m101.31 358.55a1.29 1.29 0 0 0-0.16 0.09 1.5 1.5 0 0 1-0.69 0.11l-9.39-1.14-5.21 7.89a1.36 1.36 0 0 1-1 0.58 1.27 1.27 0 0 1-1.07-0.49l-5.84-7.43-9.25 1.9a1.36 1.36 0 0 1-1.14-0.31 1.33 1.33 0 0 1-0.41-1.13l1.13-9.38-7.88-5.19a1.32 1.32 0 0 1-0.58-1 1.26 1.26 0 0 1 0.48-1.06l7.43-5.85-1.89-9.27a1.26 1.26 0 0 1 0.32-1.12c0.08-0.07 0.15-0.15 0.24-0.22a1.33 1.33 0 0 1 0.87-0.19l9.38 1.13 5.21-7.89a1.41 1.41 0 0 1 0.36-0.37 1.44 1.44 0 0 1 0.67-0.22 1.41 1.41 0 0 1 1.07 0.5l5.84 7.43 9.2-1.92a1.26 1.26 0 0 1 1.14 0.31 1.33 1.33 0 0 1 0.42 1.11l-1.14 9.37 7.88 5.22a1.28 1.28 0 0 1 0.59 1 1.27 1.27 0 0 1-0.5 1.07l-7.39 5.92 1.88 9.25a1.29 1.29 0 0 1-0.32 1.15 1.21 1.21 0 0 1-0.25 0.15zm-11.59-3.39a1.32 1.32 0 0 1 0.87-0.21l8.41 1.05-1.68-8.27a1.29 1.29 0 0 1 0.47-1.28l6.64-5.23-7.05-4.66a1.34 1.34 0 0 1-0.58-1.24l1-8.38-8.27 1.69a1.32 1.32 0 0 1-1.28-0.46l-5.25-6.7-4.67 7.06a1.41 1.41 0 0 1-0.36 0.37 1.33 1.33 0 0 1-0.87 0.18l-8.4-1 1.71 8.27a1.32 1.32 0 0 1-0.48 1.29l-6.64 5.22 7.05 4.64a1.32 1.32 0 0 1 0.58 1.25l-1 8.39 8.28-1.68a1.27 1.27 0 0 1 1.28 0.46l5.22 6.65 4.66-7.05a1.19 1.19 0 0 1 0.36-0.36z"/>
   </g>
   <g filter="url(#filter228)">
    <path class="mix-cls-3" d="m275.31 139.06a77.57 77.57 0 1 0-149.93-39.81c-0.78 0-1.57-0.07-2.36-0.07a48.3 48.3 0 0 0-40.49 21.94 37.57 37.57 0 1 0 9.67 63.62 48.28 48.28 0 0 0 64.45-2.54 77.52 77.52 0 0 0 84.56 2.15 29.27 29.27 0 1 0 34.1-45.29z"/>
    <path class="mix-cls-5" d="m276.42 140.16a77.56 77.56 0 1 0-149.93-39.78c-0.78-0.06-1.57-0.08-2.35-0.08a48.27 48.27 0 0 0-40.48 22 37.57 37.57 0 1 0 9.66 63.61 48.32 48.32 0 0 0 64.46-2.54 77.56 77.56 0 0 0 84.54 2.16 29.28 29.28 0 1 0 34.1-45.32z"/>
   </g>
   <g filter="url(#filter240)">
    <path class="mix-cls-3" d="m389.59 126.3c-0.85 0-1.7 0-2.53 0.1a33.23 33.23 0 0 0-43.53-19.85 32.21 32.21 0 0 0-60.2-1 29 29 0 0 0-4.88-0.42 28.33 28.33 0 0 0-28.17 25.32 32 32 0 1 0-6.28 63.3h0.83a29.45 29.45 0 0 0 53.88 8.18 40.4 40.4 0 0 0 71.83-4 38.35 38.35 0 1 0 19.09-71.61z"/>
    <path class="mix-cls-6" d="m390.9 127.63c-0.84 0-1.69 0-2.52 0.07a33.21 33.21 0 0 0-31.32-22.16 32.85 32.85 0 0 0-12.22 2.34 32.2 32.2 0 0 0-60.19-1 28 28 0 0 0-4.88-0.44 28.34 28.34 0 0 0-28.17 25.33 33 33 0 0 0-6.32-0.62 31.95 31.95 0 0 0 0 63.89h0.83a29.44 29.44 0 0 0 53.89 8.16 40.41 40.41 0 0 0 71.83-4 38.34 38.34 0 1 0 19.09-71.59z"/>
   </g>
   <g filter="url(#filter204)">
    <path class="mix-cls-3" d="m358.2 48.83a41.68 41.68 0 0 0-5.16 0.32 48.08 48.08 0 0 0-72-24.73 37.18 37.18 0 0 0-71.43 5.69 30.76 30.76 0 0 0-48.86 21h-0.24a44.3 44.3 0 1 0 21.49 83 31.89 31.89 0 0 0 60.25 9.1 54.25 54.25 0 0 0 96.43-13.67 42.71 42.71 0 1 0 19.52-80.71z"/>
    <path class="mix-cls-7" d="m359.49 50a48.79 48.79 0 0 0-5.16 0.31 48.13 48.13 0 0 0-72-24.73 37.2 37.2 0 0 0-71.44 5.68 30.77 30.77 0 0 0-48.85 21h-0.23a44.29 44.29 0 1 0 21.49 83 31.89 31.89 0 0 0 60.24 9.1 54.24 54.24 0 0 0 96.46-13.65 42.71 42.71 0 1 0 19.49-80.71z"/>
   </g>
   <g filter="url(#filter216)">
    <path class="mix-cls-3" d="m219.93 154a29 29 0 0 0-10.56 1.4 50.17 50.17 0 0 0-96.5-7 34.85 34.85 0 1 0 22.13 60.11 50.14 50.14 0 0 0 60.59-7.81 29 29 0 1 0 24.34-46.7z"/>
    <path class="mix-cls-8" d="m221.24 155.27a29.61 29.61 0 0 0-10.56 1.4 50.17 50.17 0 0 0-96.5-7 34.84 34.84 0 1 0 22.11 60.11 50.21 50.21 0 0 0 60.57-7.78 29 29 0 1 0 24.38-46.73z"/>
   </g>
   <g filter="url(#filter348)">
    <path class="mix-cls-9" d="m366.87 335.86a15.16 15.16 0 0 1-15.17 15.14c-8.38 0-15.74-6.78-15.74-15.15 0-14.22 15.88-33.22 15.88-33.22l1.15-0.59a2.41 2.41 0 0 0 0.29 1.09c2.89 4.5 13.59 21.87 13.59 32.73z"/>
    <path class="mix-cls-10" d="m368.16 336.29a15.17 15.17 0 0 1-30.34 0c0-12.55 15.17-34.24 15.17-34.24s15.17 21.69 15.17 34.24z"/>
   </g>
   <g filter="url(#filter360)">
    <path class="mix-cls-9" d="m417.4 281.39a11.32 11.32 0 0 1-11.33 11.33c-6.26 0-11.77-5.06-11.77-11.33 0-10.63 11.87-24.84 11.87-24.84l0.86-0.44a1.84 1.84 0 0 0 0.21 0.81c2.17 3.37 10.16 16.36 10.16 24.47z"/>
    <path class="mix-cls-10" d="m418.36 281.7a11.33 11.33 0 1 1-22.66 0c0-9.37 11.33-25.59 11.33-25.59s11.33 16.22 11.33 25.59z"/>
   </g>
   <g filter="url(#filter336)">
    <path class="mix-cls-9" d="m305.25 306.54a11.34 11.34 0 0 1-11.33 11.34c-6.27 0-11.78-5.07-11.78-11.34 0-10.63 11.87-24.84 11.87-24.84l0.87-0.44a1.7 1.7 0 0 0 0.21 0.81c2.17 3.38 10.16 16.35 10.16 24.47z"/>
    <path class="mix-cls-10" d="m306.21 306.86a11.34 11.34 0 1 1-22.67 0c0-9.38 11.34-25.6 11.34-25.6s11.33 16.22 11.33 25.6z"/>
   </g>
   <g filter="url(#filter324)">
    <path class="mix-cls-9" d="m255.91 346.46a18.14 18.14 0 0 1-18.14 18.13c-10 0-18.82-8.12-18.82-18.13 0-17 19-39.75 19-39.75l1.38-0.7a2.93 2.93 0 0 0 0.33 1.29c3.46 5.38 16.25 26.17 16.25 39.16z"/>
    <path class="mix-cls-10" d="m257.45 347a18.14 18.14 0 1 1-36.28 0c0-15 18.15-40.95 18.15-40.95s18.13 25.95 18.13 40.95z"/>
   </g>
  </g>
 </g>
</svg>
