<?xml version="1.0" encoding="UTF-8"?>
<svg width="489.98" height="428.56" version="1.1" viewBox="0 0 489.98 428.56" xmlns="http://www.w3.org/2000/svg">
 <defs>
  <style>.cls-1 {
        isolation: isolate;
      }

      .cls-2, .cls-7 {
        fill: #fff;
      }

      .cls-3 {
        fill: #e9f2f5;
      }

      .cls-4 {
        fill: #ffe3ab;
      }

      .cls-5 {
        fill: url(#linear-gradient);
      }

      .cls-6 {
        mix-blend-mode: multiply;
      }

      .cls-7 {
        opacity: 0;
      }</style>
  <linearGradient id="linear-gradient" x1="1026.3" x2="1211.2" y1="519.19" y2="704.15" gradientTransform="rotate(-45 126.84 1364.9)" gradientUnits="userSpaceOnUse">
   <stop stop-color="#ffd45c" offset="0"/>
   <stop stop-color="#ff9d00" offset="1"/>
  </linearGradient>
  <filter id="filter51" x="-.10925" y="-.11003" width="1.2413" height="1.243" color-interpolation-filters="sRGB">
   <feFlood flood-color="rgb(0,0,0)" flood-opacity=".30196" result="flood"/>
   <feComposite in="flood" in2="SourceGraphic" operator="in" result="composite1"/>
   <feGaussianBlur in="composite1" result="blur" stdDeviation="12"/>
   <feOffset dx="6" dy="6" result="offset"/>
   <feComposite in="SourceGraphic" in2="offset" result="composite2"/>
  </filter>
  <filter id="filter63" x="-.087893" y="-.12394" width="1.1941" height="1.2737" color-interpolation-filters="sRGB">
   <feFlood flood-color="rgb(0,0,0)" flood-opacity=".30196" result="flood"/>
   <feComposite in="flood" in2="SourceGraphic" operator="in" result="composite1"/>
   <feGaussianBlur in="composite1" result="blur" stdDeviation="12"/>
   <feOffset dx="6" dy="6" result="offset"/>
   <feComposite in="SourceGraphic" in2="offset" result="composite2"/>
  </filter>
  <filter id="filter75" x="-.086937" y="-.13693" width="1.192" height="1.3024" color-interpolation-filters="sRGB">
   <feFlood flood-color="rgb(0,0,0)" flood-opacity=".30196" result="flood"/>
   <feComposite in="flood" in2="SourceGraphic" operator="in" result="composite1"/>
   <feGaussianBlur in="composite1" result="blur" stdDeviation="12"/>
   <feOffset dx="6" dy="6" result="offset"/>
   <feComposite in="SourceGraphic" in2="offset" result="composite2"/>
  </filter>
 </defs>
 <g class="cls-1" transform="translate(28.798 28.8)">
  <g data-name="Layer 2">
   <g id="_Layer_" data-name="&lt;Layer&gt;">
    <g filter="url(#filter75)">
     <path class="cls-2" d="m333.27 187.44c-1.29 0-2.58 0-3.85 0.13a50.64 50.64 0 0 0-66.42-30.26 49.11 49.11 0 0 0-91.79-1.49 44.37 44.37 0 0 0-7.44-0.65 43.21 43.21 0 0 0-43 38.63 48.72 48.72 0 1 0-9.63 96.48h1.27a44.89 44.89 0 0 0 82.15 12.47 61.62 61.62 0 0 0 109.55-6.08 58.49 58.49 0 1 0 29.12-109.2z"/>
     <path class="cls-3" d="m335.28 189.45c-1.29 0-2.58 0.05-3.87 0.13a50.62 50.62 0 0 0-66.41-30.26 49.11 49.11 0 0 0-91.79-1.49 42.53 42.53 0 0 0-7.44-0.65 43.19 43.19 0 0 0-43 38.62 49.29 49.29 0 0 0-9.63-1 48.72 48.72 0 1 0 0 97.44h1.25a44.9 44.9 0 0 0 82.17 12.45 61.63 61.63 0 0 0 109.55-6.06 58.48 58.48 0 1 0 29.12-109.2z"/>
    </g>
    <g filter="url(#filter51)">
     <path class="cls-4" d="m392 184.16a109.86 109.86 0 0 1-155.35-155.37c16.81-16.79 39.73-25 61.53-28.65-34.44-1.57-70.91 10.06-97.09 36.26a130.81 130.81 0 0 0 185 185c28.81-28.78 43.38-65.6 39.72-103.19-3.33 24.84-14.81 46.95-33.81 65.95z"/>
     <path class="cls-5" d="m394 186.19a109.85 109.85 0 1 1-95.82-186.05 130.82 130.82 0 1 0 127.58 118.05 109.43 109.43 0 0 1-31.76 68z" fill="url(#linear-gradient)"/>
    </g>
    <g filter="url(#filter63)">
     <g class="cls-6">
      <path class="cls-7" d="m316.52 301.1c19.6-29.13 10.11-82.94-3.58-101.76-18-24.71-46.14-28.12-62.58-36.34s-47.69-30.4-68.73-30.4c-29.43 0-44.38 10.87-68.19 17.25-25.69 6.87-69.32 47-93.26 73.23-28 30.7-20.9 76.9-13.75 85.85 13.38 16.75 29.57 33.38 49.91 43.14 19.47 9.33 36.35 8.87 50.91 9.88 11 0.77 23.88 6.23 52.58 0.24 20.34-4.24 30-5.9 40.52-9.16 22.15-6.89 92.43-16.66 116.17-51.93z"/>
     </g>
     <path class="cls-2" d="m219.11 195.51a40.74 40.74 0 0 0-14.82 2 70.4 70.4 0 0 0-135.42-9.8 48.9 48.9 0 1 0 31 84.36 70.45 70.45 0 0 0 85.05-11 40.67 40.67 0 1 0 34.2-65.58z"/>
    </g>
   </g>
  </g>
 </g>
</svg>
