<?xml version="1.0" encoding="UTF-8"?>
<svg width="523.48" height="337.32" version="1.1" viewBox="0 0 523.48 337.32" xmlns="http://www.w3.org/2000/svg">
 <defs>
  <style>.cls-1 {
        fill: none;
      }

      .cls-2 {
        isolation: isolate;
      }

      .cls-3 {
        clip-path: url(#clip-path);
      }

      .cls-4 {
        fill: #c86eff;
      }

      .cls-5 {
        fill: #8f37c4;
      }

      .cls-6 {
        mix-blend-mode: multiply;
      }

      .cls-7, .cls-81 {
        fill: #fff;
      }

      .cls-7 {
        opacity: 0;
      }

      .cls-8 {
        fill: #f9fbfb;
      }

      .cls-35, .cls-58, .cls-8 {
        opacity: 0.05;
      }

      .cls-9 {
        fill: #f3f6f7;
      }

      .cls-36, .cls-59, .cls-9 {
        opacity: 0.1;
      }

      .cls-10 {
        fill: #eef2f4;
      }

      .cls-10, .cls-37, .cls-60 {
        opacity: 0.14;
      }

      .cls-11 {
        fill: #e8edf0;
      }

      .cls-11, .cls-38, .cls-61 {
        opacity: 0.19;
      }

      .cls-12 {
        fill: #e2e9ec;
      }

      .cls-12, .cls-39, .cls-62 {
        opacity: 0.24;
      }

      .cls-13 {
        fill: #dce4e8;
      }

      .cls-13, .cls-40, .cls-63 {
        opacity: 0.29;
      }

      .cls-14 {
        fill: #d7e0e5;
      }

      .cls-14, .cls-41, .cls-64 {
        opacity: 0.33;
      }

      .cls-15 {
        fill: #d1dce1;
      }

      .cls-15, .cls-42, .cls-65 {
        opacity: 0.38;
      }

      .cls-16 {
        fill: #cbd7dd;
      }

      .cls-16, .cls-43, .cls-66 {
        opacity: 0.43;
      }

      .cls-17 {
        fill: #c5d3d9;
      }

      .cls-17, .cls-44, .cls-67 {
        opacity: 0.48;
      }

      .cls-18 {
        fill: #c0ced6;
      }

      .cls-18, .cls-45, .cls-68 {
        opacity: 0.52;
      }

      .cls-19 {
        fill: #bacad2;
      }

      .cls-19, .cls-46, .cls-69 {
        opacity: 0.57;
      }

      .cls-20 {
        fill: #b4c5ce;
      }

      .cls-20, .cls-47, .cls-70 {
        opacity: 0.62;
      }

      .cls-21 {
        fill: #aec1ca;
      }

      .cls-21, .cls-48, .cls-71 {
        opacity: 0.67;
      }

      .cls-22 {
        fill: #a9bdc7;
      }

      .cls-22, .cls-49, .cls-72 {
        opacity: 0.71;
      }

      .cls-23 {
        fill: #a3b8c3;
      }

      .cls-23, .cls-50, .cls-73 {
        opacity: 0.76;
      }

      .cls-24 {
        fill: #9db4bf;
      }

      .cls-24, .cls-51, .cls-74 {
        opacity: 0.81;
      }

      .cls-25 {
        fill: #97afbb;
      }

      .cls-25, .cls-52, .cls-75 {
        opacity: 0.86;
      }

      .cls-26 {
        fill: #92abb8;
      }

      .cls-26, .cls-53, .cls-76 {
        opacity: 0.9;
      }

      .cls-27 {
        fill: #8ca6b4;
      }

      .cls-27, .cls-54, .cls-77 {
        opacity: 0.95;
      }

      .cls-28 {
        fill: #86a2b0;
      }

      .cls-29 {
        fill: #5ebcff;
      }

      .cls-30 {
        fill: #0095ff;
      }

      .cls-31 {
        fill: #8df54e;
      }

      .cls-32 {
        fill: #65bf2e;
      }

      .cls-33 {
        fill: #ffe194;
      }

      .cls-34 {
        fill: #ffc736;
      }

      .cls-35 {
        fill: #fdfaf6;
      }

      .cls-36 {
        fill: #faf6ee;
      }

      .cls-37 {
        fill: #f8f1e5;
      }

      .cls-38 {
        fill: #f5eddc;
      }

      .cls-39 {
        fill: #f3e8d3;
      }

      .cls-40 {
        fill: #f0e4cb;
      }

      .cls-41 {
        fill: #eedfc2;
      }

      .cls-42 {
        fill: #ecdbb9;
      }

      .cls-43 {
        fill: #e9d6b1;
      }

      .cls-44 {
        fill: #e7d2a8;
      }

      .cls-45 {
        fill: #e4cd9f;
      }

      .cls-46 {
        fill: #e2c996;
      }

      .cls-47 {
        fill: #dfc48e;
      }

      .cls-48 {
        fill: #ddc085;
      }

      .cls-49 {
        fill: #dbbb7c;
      }

      .cls-50 {
        fill: #d8b774;
      }

      .cls-51 {
        fill: #d6b26b;
      }

      .cls-52 {
        fill: #d3ae62;
      }

      .cls-53 {
        fill: #d1a959;
      }

      .cls-54 {
        fill: #cea551;
      }

      .cls-55 {
        fill: #cca048;
      }

      .cls-56 {
        fill: #ffcf8c;
      }

      .cls-57 {
        fill: #ff7b00;
      }

      .cls-58 {
        fill: #fcf6f6;
      }

      .cls-59 {
        fill: #f8eded;
      }

      .cls-60 {
        fill: #f5e3e3;
      }

      .cls-61 {
        fill: #f2dada;
      }

      .cls-62 {
        fill: #efd1d1;
      }

      .cls-63 {
        fill: #ebc8c8;
      }

      .cls-64 {
        fill: #e8bebe;
      }

      .cls-65 {
        fill: #e5b5b5;
      }

      .cls-66 {
        fill: #e1acac;
      }

      .cls-67 {
        fill: #dea3a3;
      }

      .cls-68 {
        fill: #db9999;
      }

      .cls-69 {
        fill: #d89090;
      }

      .cls-70 {
        fill: #d48787;
      }

      .cls-71 {
        fill: #d17e7e;
      }

      .cls-72 {
        fill: #ce7474;
      }

      .cls-73 {
        fill: #ca6b6b;
      }

      .cls-74 {
        fill: #c76262;
      }

      .cls-75 {
        fill: #c45959;
      }

      .cls-76 {
        fill: #c14f4f;
      }

      .cls-77 {
        fill: #bd4646;
      }

      .cls-78 {
        fill: #ba3d3d;
      }

      .cls-79 {
        fill: #ffa1a1;
      }

      .cls-80 {
        fill: red;
      }

      .cls-82 {
        fill: #eef7fa;
      }

      .cls-83 {
        fill: #e4f1f5;
      }</style>
  <clipPath id="clip-path">
   <path class="cls-1" d="m329.32 46.86a156.54 156.54 0 0 0-111.74-46.86c-86.58 0-156.93 70.39-156.93 156.93v1.68h315.53a156.52 156.52 0 0 0-46.86-111.75z"/>
  </clipPath>
  <filter id="filter301" x="-.14775" y="-.24338" width="1.3263" height="1.5375" color-interpolation-filters="sRGB">
   <feFlood flood-color="rgb(0,0,0)" flood-opacity=".30196" result="flood"/>
   <feComposite in="flood" in2="SourceGraphic" operator="in" result="composite1"/>
   <feGaussianBlur in="composite1" result="blur" stdDeviation="12"/>
   <feOffset dx="6" dy="6" result="offset"/>
   <feComposite in="SourceGraphic" in2="offset" result="composite2"/>
  </filter>
  <filter id="filter313" x="-.10115" y="-.17252" width="1.2234" height="1.381" color-interpolation-filters="sRGB">
   <feFlood flood-color="rgb(0,0,0)" flood-opacity=".30196" result="flood"/>
   <feComposite in="flood" in2="SourceGraphic" operator="in" result="composite1"/>
   <feGaussianBlur in="composite1" result="blur" stdDeviation="12"/>
   <feOffset dx="6" dy="6" result="offset"/>
   <feComposite in="SourceGraphic" in2="offset" result="composite2"/>
  </filter>
  <filter id="filter325" x="-.11049" y="-.1741" width="1.244" height="1.3845" color-interpolation-filters="sRGB">
   <feFlood flood-color="rgb(0,0,0)" flood-opacity=".30196" result="flood"/>
   <feComposite in="flood" in2="SourceGraphic" operator="in" result="composite1"/>
   <feGaussianBlur in="composite1" result="blur" stdDeviation="12"/>
   <feOffset dx="6" dy="6" result="offset"/>
   <feComposite in="SourceGraphic" in2="offset" result="composite2"/>
  </filter>
  <filter id="filter355" x="-.080736" y="-.091272" width="1.1783" height="1.2016" color-interpolation-filters="sRGB">
   <feFlood flood-color="rgb(0,0,0)" flood-opacity=".30196" result="flood"/>
   <feComposite in="flood" in2="SourceGraphic" operator="in" result="composite1"/>
   <feGaussianBlur in="composite1" result="blur" stdDeviation="12"/>
   <feOffset dx="6" dy="6" result="offset"/>
   <feComposite in="SourceGraphic" in2="offset" result="composite2"/>
  </filter>
 </defs>
 <g class="cls-2" transform="translate(28.778 -15.982)">
  <g data-name="Layer 2">
   <g id="_Layer_" data-name="&lt;Layer&gt;">
    <g class="cls-3" transform="translate(0 15.982)" clip-path="url(#clip-path)" filter="url(#filter355)">
     <path class="cls-4" d="m217.58 0c-86.58 0-156.93 70.39-156.93 156.93s70.35 156.91 156.93 156.91 156.93-70.39 156.93-156.91-70.4-156.93-156.93-156.93zm0 296.26c-76.83 0-139.32-62.5-139.32-139.33s62.49-139.33 139.32-139.33 139.31 62.51 139.31 139.33-62.51 139.33-139.31 139.33z"/>
     <path class="cls-5" d="m219.25 1.68c-86.53 0-156.93 70.39-156.93 156.93s70.4 156.93 156.93 156.93 156.93-70.4 156.93-156.93-70.41-156.93-156.93-156.93zm0 296.24c-76.82 0-139.33-62.51-139.33-139.31s62.51-139.33 139.33-139.33 139.34 62.5 139.34 139.33-62.51 139.31-139.34 139.31z"/>
     <g class="cls-6">
      <path class="cls-7" d="m407.9 104.8c16.36 59.12 16 87.7-37.59 135.31-39.92 35.4-93.14 8-76.9-23.05 15.95-30.52 30.13-56.2 21.13-87-10.44-35.82-19.79-47.21-56.15-58.21-33.92-10.25-44.13-55.58 24.13-66.85 53.07-8.74 109.05 40.7 125.38 99.8z"/>
      <path class="cls-8" d="m405.25 105c16 57.62 16 86.32-35.75 132.84-38.52 34.63-89.88 7.83-74.14-22.28 15.51-29.71 29.3-55.49 20.45-86.16-10.16-35.05-19.81-46.8-55.25-57.91-32.85-10.19-42.67-54.17 23.14-64.24 51.3-7.73 105.64 40.36 121.55 97.75z"/>
      <path class="cls-9" d="m402.6 105.26c15.65 56.13 15.94 84.94-33.9 130.37-37.13 33.85-86.63 7.7-71.39-21.51 15.06-28.91 28.48-54.78 19.76-85.34-9.87-34.33-19.78-46.54-54.34-57.66-31.73-10.21-41.23-52.89 22.16-61.62 49.49-6.82 102.21 40.02 117.71 95.76z"/>
      <path class="cls-10" d="m400 105.49c15.3 54.64 15.9 83.56-32.05 127.9-35.75 33.07-83.38 7.57-68.64-20.73 14.61-28.12 27.66-54.08 19.07-84.53-9.58-33.59-19.77-46.21-53.43-57.39-30.65-10.18-39.77-51.53 21.18-59 47.64-5.85 98.74 39.69 113.87 93.75z"/>
      <path class="cls-11" d="m397.3 105.72c14.94 53.15 15.86 82.18-30.2 125.43-34.36 32.29-80.12 7.44-65.89-20s26.89-53.39 18.38-83.71c-9.23-32.86-19.76-45.87-52.52-57.11-29.56-10.11-38.32-50.14 20.2-56.33 45.9-4.89 95.37 39.34 110.03 91.72z"/>
      <path class="cls-12" d="m394.66 106c14.58 51.66 15.8 80.8-28.36 123-33 31.52-76.87 7.32-63.14-19.18s26.09-52.68 17.69-82.89c-8.92-32.22-19.75-45.63-51.61-56.93-28.47-10.1-36.85-48.81 19.21-53.77 44.12-3.91 91.95 39.02 106.21 89.77z"/>
      <path class="cls-13" d="m392 106.18c14.22 50.17 15.76 79.42-26.51 120.48-31.59 30.75-73.62 7.19-60.39-18.41s25.28-52 17-82.08c-8.61-31.37-19.73-45.17-50.69-56.55-27.41-10.07-35.41-47.45 18.23-51.16 42.36-2.92 88.53 38.7 102.36 87.72z"/>
      <path class="cls-14" d="m389.36 106.41c13.87 48.68 15.72 78.05-24.66 118-30.2 30-70.37 7.06-57.64-17.64 12.81-24.92 24.46-51.27 16.32-81.26-8.33-30.63-19.74-44.82-49.8-56.27-26.29-10-33.93-46.09 17.25-48.54 40.55-1.94 85.1 38.37 98.53 85.71z"/>
      <path class="cls-15" d="m386.71 106.64c13.52 47.19 15.68 76.67-22.81 115.54-28.81 29.19-67.12 6.93-54.89-16.86 12.36-24.13 23.65-50.57 15.63-80.45s-19.73-44.47-48.89-56c-25.21-9.97-32.46-44.71 16.25-45.87 38.79-1 81.7 38 94.71 83.64z"/>
      <path class="cls-16" d="m384.06 106.87c13.16 45.7 15.63 75.29-21 113.07-27.43 28.41-63.87 6.79-52.14-16.09 11.91-23.32 22.84-49.86 14.94-79.63-7.73-29.15-19.72-44.11-48-55.72-24.12-9.92-31-44.4 15.28-43.31 37.05 0.87 78.32 37.7 90.92 81.68z"/>
      <path class="cls-17" d="m381.41 107.1c12.81 44.21 15.59 73.9-19.12 110.59-26 27.65-60.61 6.67-49.38-15.31 11.46-22.52 22-49.16 14.25-78.81-7.44-28.4-19.72-43.74-47.07-55.45-23-9.85-29.51-41.95 14.3-40.69 35.23 1.02 74.84 37.37 87.02 79.67z"/>
      <path class="cls-18" d="m378.77 107.33c12.44 42.72 15.54 72.53-17.28 108.12-24.64 26.87-57.36 6.54-46.64-14.54 11-21.72 21.21-48.45 13.57-78-7.15-27.66-19.71-43.37-46.16-55.17-21.95-9.79-28-40.56 13.32-38.08 33.42 2.03 71.42 37.04 83.19 77.67z"/>
      <path class="cls-19" d="m376.12 107.56c12.09 41.23 15.49 71.15-15.43 105.65-23.25 26.09-54.11 6.41-43.89-13.77 10.57-20.92 20.39-47.74 12.89-77.17-6.87-26.92-19.72-43-45.27-54.9-20.86-9.72-26.53-39.15 12.34-35.45 31.7 3.01 68 36.69 79.36 75.64z"/>
      <path class="cls-20" d="m373.47 107.79c11.73 39.74 15.45 69.77-13.58 103.18-21.89 25.31-50.89 6.28-41.14-12.97 10.12-20.13 19.57-47 12.2-76.36-6.58-26.19-19.72-42.64-44.36-54.64-19.78-9.64-25-37.74 11.36-32.84 29.93 4.03 64.58 36.36 75.52 73.63z"/>
      <path class="cls-21" d="m370.82 108c11.38 38.25 15.41 68.4-11.73 100.71-20.48 24.53-47.61 6.15-38.39-12.22 9.67-19.33 18.74-46.33 11.51-75.54-6.29-25.43-19.72-42.22-43.45-54.35-18.7-9.55-23.56-36.31 10.38-30.22 28.16 5.07 61.15 36.05 71.68 71.62z"/>
      <path class="cls-22" d="m368.17 108.25c11 36.76 15.36 67-9.88 98.23-19.09 23.77-44.35 6-35.64-11.44 9.22-18.53 17.91-45.61 10.82-74.73-6-24.67-19.73-41.81-42.54-54.06-17.63-9.47-22.07-34.86 9.4-27.61 26.4 6.09 57.73 35.7 67.84 69.61z"/>
      <path class="cls-23" d="m365.53 108.48c10.66 35.27 15.31 65.64-8 95.76-17.71 23-41.1 5.9-32.89-10.67 8.77-17.72 17.08-44.9 10.13-73.91-5.77-23.92-19.77-41.4-41.67-53.79-16.56-9.36-20.59-33.39 8.41-25 24.64 7.13 54.31 35.38 64.02 67.61z"/>
      <path class="cls-24" d="m362.88 108.71c10.3 33.78 15.27 64.26-6.19 93.29-16.32 22.21-37.85 5.77-30.14-9.9 8.32-16.92 16.25-44.19 9.45-73.09-5.46-23.18-19.77-41-40.73-53.51-15.49-9.26-19.11-31.91 7.43-22.37 22.87 8.21 50.89 35.03 60.18 65.58z"/>
      <path class="cls-25" d="m360.23 108.94c9.95 32.29 15.22 62.88-4.35 90.82-14.92 21.43-34.59 5.64-27.38-9.12 7.87-16.13 15.41-43.48 8.76-72.28-5.18-22.43-19.8-40.55-39.82-53.24-14.44-9.12-17.65-30.39 6.45-19.75 21.11 9.31 47.47 34.7 56.34 63.57z"/>
      <path class="cls-26" d="m357.58 109.17c9.59 30.8 15.18 61.5-2.5 88.34-13.53 20.67-31.34 5.51-24.63-8.34 7.43-15.33 14.57-42.77 8.07-71.46-4.91-21.68-19.84-40.1-38.91-53-13.39-9-16.21-28.86 5.46-17.14 19.28 10.43 44.05 34.43 52.51 61.6z"/>
      <path class="cls-27" d="m354.93 109.4c9.24 29.31 15.14 60.12-0.65 85.87-12.15 19.89-28.09 5.38-21.88-7.57 7-14.53 13.67-42 7.38-70.64-4.67-20.92-19.89-39.64-38-52.69-12.35-8.89-14.8-27.3 4.48-14.52 17.44 11.57 40.63 34.04 48.67 59.55z"/>
      <path class="cls-28" d="m352.28 109.63c8.89 27.82 15.1 58.74 1.2 83.4-10.76 19.11-24.84 5.25-19.13-6.8 6.53-13.73 12.85-41.33 6.69-69.82-4.38-20.18-19.97-39.16-37.04-52.41-11.32-8.75-13.44-25.74 3.5-11.9 15.5 12.71 37.15 33.7 44.78 57.53z"/>
     </g>
     <path class="cls-29" d="m217.58 17.6c-76.83 0-139.32 62.51-139.32 139.33s62.49 139.33 139.32 139.33 139.31-62.5 139.31-139.33-62.51-139.33-139.31-139.33zm0 261a121.72 121.72 0 1 1 121.71-121.67 121.86 121.86 0 0 1-121.71 121.72z"/>
     <path class="cls-30" d="m219.25 19.28c-76.82 0-139.33 62.5-139.33 139.33s62.51 139.31 139.33 139.31 139.34-62.51 139.34-139.31-62.51-139.33-139.34-139.33zm0 261a121.72 121.72 0 1 1 121.75-121.67 121.85 121.85 0 0 1-121.75 121.71z"/>
     <g class="cls-6">
      <path class="cls-7" d="m389.31 113c15.09 54.54 14.79 80.92-34.71 124.85-36.81 32.67-85.92 7.37-70.94-21.27 14.7-28.16 27.79-51.87 19.49-80.25-9.63-33.06-18.26-43.58-51.8-53.72-31.35-9.47-40.74-51.3 22.25-61.69 48.98-8.08 100.61 37.55 115.71 92.08z"/>
      <path class="cls-8" d="m386.86 113.21c14.76 53.17 14.76 79.65-33 122.57-35.54 32-82.93 7.25-68.41-20.55 14.29-27.42 27-51.22 18.86-79.5-9.37-32.37-18.27-43.23-51-53.46-30.31-9.41-39.31-50 21.38-59.27 47.31-7.14 97.46 37.23 112.17 90.21z"/>
      <path class="cls-9" d="m384.42 113.42c14.43 51.8 14.71 78.38-31.29 120.29-34.26 31.24-79.93 7.13-65.87-19.84 13.87-26.68 26.27-50.56 18.22-78.74-9.1-31.69-18.25-43-50.12-53.21-29.31-9.42-38.06-48.81 20.43-56.87 45.67-6.28 94.3 36.95 108.63 88.37z"/>
      <path class="cls-10" d="m382 113.64c14.11 50.42 14.68 77.1-29.58 118-33 30.53-76.93 7-63.33-19.12 13.46-26 25.51-49.92 17.59-78-8.84-31-18.24-42.65-49.29-53-28.34-9.34-36.75-47.52 19.5-54.4 44.01-5.39 91.11 36.64 105.11 86.52z"/>
      <path class="cls-11" d="m379.53 113.85c13.78 49 14.63 75.83-27.88 115.72-31.7 29.81-73.93 6.89-60.8-18.4s24.76-49.27 17-77.25c-8.57-30.3-18.23-42.33-48.45-52.69-27.3-9.36-35.37-46.31 18.62-52 42.33-4.53 87.98 36.29 101.51 84.62z"/>
      <path class="cls-12" d="m377.09 114.06c13.44 47.67 14.59 74.56-26.18 113.44-30.42 29.1-70.93 6.77-58.26-17.69s24.07-48.63 16.32-76.49c-8.23-29.64-18.22-42-47.61-52.44-26.29-9.32-34-45 17.72-49.62 40.71-3.6 84.83 36.02 98.01 82.8z"/>
      <path class="cls-13" d="m374.64 114.27c13.12 46.3 14.55 73.29-24.47 111.16-29.13 28.38-67.93 6.65-55.72-17s23.32-48 15.69-75.74c-8-28.95-18.22-41.69-46.78-52.18-25.28-9.29-32.67-43.79 16.81-47.21 39.07-2.67 81.68 35.7 94.47 80.97z"/>
      <path class="cls-14" d="m372.2 114.49c12.79 44.92 14.51 72-22.77 108.87-27.85 27.67-64.92 6.53-53.18-16.26 11.81-23 22.57-47.32 15.05-75-7.68-28.27-18.21-41.37-45.93-51.93-24.28-9.25-31.32-42.53 15.9-44.79 37.42-1.77 78.52 35.43 90.93 79.11z"/>
      <path class="cls-15" d="m369.75 114.7c12.46 43.54 14.47 70.73-21.06 106.59-26.57 27-61.92 6.41-50.64-15.54 11.4-22.27 21.82-46.68 14.41-74.23s-18.2-41-45.09-51.67c-23.28-9.21-30-41.27 15-42.38 35.78-0.89 75.36 35.1 87.38 77.23z"/>
      <path class="cls-16" d="m367.31 114.91c12.13 42.17 14.43 69.46-19.35 104.31-25.3 26.24-58.93 6.29-48.11-14.82 11-21.54 21.06-46 13.78-73.48-7.14-26.9-18.2-40.71-44.26-51.42-22.27-9.15-28.59-41 14.09-40 34.14 0.84 72.21 34.83 83.85 75.41z"/>
      <path class="cls-17" d="m364.87 115.12c11.8 40.8 14.38 68.19-17.65 102-24 25.52-55.93 6.16-45.57-14.12 10.57-20.79 20.31-45.37 13.14-72.72-6.87-26.17-18.19-40.28-43.42-51.13-21.27-9.09-27.24-38.71 13.19-37.54 32.5 0.93 69.05 34.48 80.31 73.51z"/>
      <path class="cls-18" d="m362.42 115.33c11.47 39.43 14.35 66.92-15.94 99.76-22.74 24.8-52.93 6-43-13.4 10.16-20.06 19.55-44.72 12.5-72-6.6-25.52-18.18-40-42.58-50.91-20.26-9-25.87-37.43 12.28-35.13 30.85 1.88 65.87 34.2 76.74 71.68z"/>
      <path class="cls-19" d="m360 115.55c11.14 38 14.3 65.64-14.24 97.47-21.46 24.09-49.93 5.93-40.49-12.69 9.74-19.32 18.8-44.06 11.87-71.21-6.34-24.83-18.18-39.68-41.75-50.66-19.26-9-24.5-36.13 11.38-32.71 29.23 2.78 62.72 33.87 73.23 69.8z"/>
      <path class="cls-20" d="m357.53 115.76c10.82 36.67 14.27 64.37-12.53 95.24-20.17 23.37-46.93 5.81-38-12 9.34-18.59 18-43.41 11.24-70.47-6.07-24.14-18.18-39.32-40.9-50.39-18.27-8.9-23.13-34.83 10.46-30.31 27.66 3.7 59.63 33.55 69.73 67.93z"/>
      <path class="cls-21" d="m355.09 116c10.49 35.3 14.22 63.1-10.83 92.91-18.89 22.66-43.92 5.69-35.42-11.25 8.92-17.85 17.28-42.76 10.61-69.72-5.82-23.45-18.19-39-40.07-50.14-17.27-8.82-21.76-33.5 9.56-27.89 25.99 4.64 56.43 33.23 66.15 66.09z"/>
      <path class="cls-22" d="m352.65 116.18c10.15 33.92 14.12 61.79-9.13 90.63-17.66 21.91-40.92 5.57-32.88-10.54 8.51-17.11 16.52-42.1 10-69-5.55-22.76-18.19-38.59-39.23-49.88-16.31-8.7-20.41-32.14 8.59-25.39 24.39 5.57 53.31 32.9 62.65 64.18z"/>
      <path class="cls-23" d="m350.2 116.4c9.83 32.54 14.08 60.51-7.42 88.34-16.37 21.2-37.92 5.45-30.34-9.82 8.09-16.38 15.75-41.45 9.33-68.21-5.29-22.07-18.2-38.21-38.39-49.63-15.29-8.65-19-30.82 7.75-23.06 22.73 6.59 50.12 32.64 59.07 62.38z"/>
      <path class="cls-24" d="m347.76 116.61c9.5 31.17 14.1 59.28-5.72 86.06-15.05 20.52-34.92 5.33-27.8-9.11 7.68-15.64 15-40.79 8.7-67.45-5-21.38-18.22-37.82-37.56-49.38-14.31-8.55-17.65-29.44 6.85-20.64 21.09 7.58 46.96 32.34 55.53 60.52z"/>
      <path class="cls-25" d="m345.32 116.82c9.16 29.8 14.05 58-4 83.78-13.78 19.8-31.93 5.21-25.27-8.39 7.26-14.91 14.21-40.14 8.06-66.7-4.79-20.69-18.25-37.42-36.72-49.12-13.33-8.45-16.3-28.06 5.94-18.23 19.43 8.59 43.8 32.03 51.99 58.66z"/>
      <path class="cls-26" d="m342.87 117c8.84 28.42 14 56.74-2.3 81.5-12.5 19.09-28.93 5.09-22.73-7.67 6.85-14.17 13.38-39.47 7.42-66-4.57-20-18.28-37-35.87-48.87-12.37-8.33-15-26.64 5-15.81 17.8 9.7 40.67 31.85 48.48 56.85z"/>
      <path class="cls-27" d="m340.43 117.25c8.51 27 14 55.46-0.6 79.21-11.21 18.37-25.93 5-20.19-7 6.44-13.43 12.62-38.82 6.79-65.19-4.31-19.3-18.34-36.58-35-48.61-11.4-8.22-13.67-25.21 4.13-13.4 16.04 10.74 37.44 31.45 44.87 54.99z"/>
      <path class="cls-28" d="m338 117.46c8.19 25.67 13.93 54.19 1.11 76.93-9.93 17.66-22.93 4.85-17.65-6.24 6-12.7 11.86-38.17 6.15-64.44-4-18.62-18.41-36.14-34.2-48.36-10.45-8.09-12.4-23.77 3.22-11 14.37 11.74 34.31 31.12 41.37 53.11z"/>
     </g>
     <path class="cls-31" d="m217.58 35.22a121.72 121.72 0 1 0 121.71 121.71 121.85 121.85 0 0 0-121.71-121.71zm0 225.83a104.12 104.12 0 1 1 104.1-104.12 104.24 104.24 0 0 1-104.1 104.12z"/>
     <path class="cls-32" d="m219.25 36.89a121.72 121.72 0 1 0 121.75 121.72 121.85 121.85 0 0 0-121.75-121.72zm0 225.83a104.12 104.12 0 1 1 104.1-104.11 104.23 104.23 0 0 1-104.1 104.11z"/>
     <g class="cls-6">
      <path class="cls-7" d="m353.61 120.24c11.89 52.19 17.76 77-29 118.49-34.81 30.9-81.23 7-67.08-20.12 13.91-26.61 26.28-49 18.45-75.87-9.12-31.25-17.27-41.2-49-50.79-29.62-9-38.52-48.52 21-58.34 46.31-7.61 90.89 21.82 105.63 86.63z"/>
      <path class="cls-8" d="m351.93 120.16c11.89 51.05 17.59 75.88-27.57 116.46-33.6 30.23-78.33 7-64.62-19.32 13.52-25.91 25.56-48.41 17.85-75.15-8.87-30.61-17.51-41.32-48.58-50.73-28.87-8.76-37.1-47.22 20.32-56 44.76-6.75 88.16 22.06 102.6 84.74z"/>
      <path class="cls-9" d="m350.26 120.08c11.77 49.94 17.4 74.8-26.1 114.43-32.39 29.55-75.45 7-62.17-18.51 13.13-25.22 24.85-47.8 17.25-74.44-8.62-30-17.76-41.43-48.17-50.68-28.12-8.56-35.69-46 19.62-53.65 43.18-5.95 85.31 22.33 99.57 82.85z"/>
      <path class="cls-10" d="m348.58 120c11.72 48.81 17.22 73.72-24.58 112.4-31.18 28.87-72.55 7-59.71-17.7 12.71-24.53 24.08-47.19 16.6-73.7-8.37-29.3-18-41.53-47.75-50.62-27.37-8.38-34.28-44.82 18.86-51.38 41.66-5.06 82.56 22.62 96.58 81z"/>
      <path class="cls-11" d="m346.91 119.92c11.67 47.68 17 72.65-23.16 110.37-30 28.19-69.66 7-57.26-16.9s23.47-46.58 16.05-73c-8.06-28.67-18.24-41.64-47.33-50.56-26.63-8.16-32.87-43.54 18.18-49 40.06-4.23 79.75 22.85 93.52 79.09z"/>
      <path class="cls-12" d="m345.23 119.84c11.63 46.56 16.86 71.57-21.69 108.34-28.76 27.51-66.76 7-54.8-16.09s22.76-46 15.45-72.31c-7.79-28-18.49-41.76-46.91-50.51-25.88-8-31.46-42.28 17.46-46.61 38.5-3.4 76.98 23.08 90.49 77.18z"/>
      <path class="cls-13" d="m343.55 119.76c11.59 45.43 16.68 70.49-20.21 106.3-27.55 26.84-63.87 7.07-52.34-15.28s22.05-45.35 14.84-71.59c-7.53-27.38-18.73-41.87-46.5-50.46-25.13-7.75-30-41 16.76-44.26 36.9-2.55 74.2 23.33 87.45 75.29z"/>
      <path class="cls-14" d="m341.88 119.68c11.55 44.3 16.5 69.41-18.75 104.27-26.34 26.16-61 7.09-49.88-14.47 11.17-21.74 21.34-44.74 14.24-70.88-7.27-26.74-19-42-46.08-50.4-24.39-7.56-28.61-39.78 16-41.92 35.42-1.7 71.48 23.58 84.47 73.4z"/>
      <path class="cls-15" d="m340.2 119.6c11.51 43.18 16.32 68.34-17.27 102.24-25.13 25.48-58.09 7.11-47.43-13.66 10.78-21.05 20.63-44.13 13.63-70.18s-19.21-42.09-45.65-50.34c-23.64-7.36-27.19-38.52 15.32-39.57 33.83-0.84 68.69 23.83 81.4 71.51z"/>
      <path class="cls-16" d="m338.53 119.52c11.48 42.05 16.13 67.26-15.81 100.21-23.92 24.81-55.19 7.12-45-12.86 10.39-20.34 19.92-43.51 13-69.46-6.72-25.41-19.39-42.2-45.18-50.29-22.89-7.12-25.75-38.18 14.61-37.22 32.28 0.76 65.94 24.1 78.38 69.62z"/>
      <path class="cls-17" d="m336.85 119.44c11.45 40.92 16 66.18-14.34 98.18-22.7 24.13-52.29 7.14-42.51-12.05 10-19.65 19.21-42.9 12.43-68.75-6.49-24.79-19.69-42.31-44.82-50.24-22.14-7-24.33-36 13.89-34.87 30.74 0.88 63.2 24.29 75.35 67.73z"/>
      <path class="cls-18" d="m335.17 119.36c11.44 39.79 15.78 65.1-12.86 96.15-21.5 23.45-49.41 7.16-40.06-11.25 9.61-18.95 18.5-42.27 11.83-68-6.24-24.14-19.94-42.42-44.4-50.18-21.4-6.76-22.9-34.7 13.18-32.53 29.19 1.72 60.45 24.53 72.31 65.81z"/>
      <path class="cls-19" d="m333.5 119.28c11.42 38.66 15.59 64-11.4 94.12-20.28 22.77-46.51 7.17-37.6-10.44 9.22-18.26 17.78-41.66 11.23-67.33-6-23.48-20.18-42.53-44-50.12-20.64-6.51-21.44-33.41 12.48-30.18 27.65 2.67 57.72 24.8 69.29 63.95z"/>
      <path class="cls-20" d="m331.82 119.2c11.41 37.53 15.42 63-9.92 92.08-19.08 22.1-43.62 7.2-35.15-9.62 8.83-17.57 17.06-41 10.63-66.62-5.74-22.83-20.38-42.64-43.57-50.04-19.9-6.35-20-32.11 11.75-27.84 26.11 3.49 55.01 25.02 66.26 62.04z"/>
      <path class="cls-21" d="m330.15 119.12c11.4 36.39 15.23 61.87-8.46 90-17.87 21.42-40.72 7.21-32.69-8.82 8.44-16.86 16.34-40.42 10-65.9-5.49-22.19-20.67-42.75-43.15-50-19.16-6.16-18.58-30.81 11-25.5 24.64 4.45 52.36 25.33 63.3 60.22z"/>
      <path class="cls-22" d="m328.47 119c11.42 35.26 15 60.79-7 88-16.66 20.74-37.83 7.23-30.24-8 8.05-16.17 15.62-39.81 9.43-65.19-5.23-21.49-20.89-42.81-42.66-49.91-18.41-6-17.14-29.48 10.32-23.15 22.98 5.32 49.54 25.52 60.15 58.25z"/>
      <path class="cls-23" d="m326.79 119c11.44 34.11 14.88 59.72-5.51 86-15.45 20.06-34.94 7.25-27.78-7.21 7.66-15.47 14.9-39.18 8.83-64.48-5-20.88-21.15-43-42.31-49.9-17.67-5.75-15.71-28.14 9.6-20.8 21.49 6.19 46.9 25.71 57.17 56.39z"/>
      <path class="cls-24" d="m325.12 118.88c11.47 33 14.69 58.64-4 84-14.24 19.39-32.05 7.26-25.33-6.4 7.26-14.78 14.17-38.57 8.23-63.77-4.76-20.23-21.4-43.08-41.9-49.85-16.91-5.55-14.27-26.77 8.89-18.45 19.91 7.14 44.18 25.94 54.11 54.47z"/>
      <path class="cls-25" d="m323.44 118.8c11.53 31.81 14.51 57.56-2.57 81.93-13 18.71-29.15 7.28-22.86-5.59 6.86-14.09 13.43-37.95 7.62-63.06-4.52-19.58-21.63-43.19-41.48-49.79-16.17-5.36-12.85-25.4 8.17-16.11 18.4 8.13 41.55 26.2 51.12 52.62z"/>
      <path class="cls-26" d="m321.77 118.72c11.59 30.65 14.32 56.48-1.1 79.9-11.82 18-26.26 7.3-20.41-4.79 6.47-13.39 12.65-37.31 7-62.34-4.26-18.92-21.86-43.31-41.04-49.74-15.43-5.15-11.46-24 7.45-13.76 16.82 9.11 38.9 26.42 48.1 50.73z"/>
      <path class="cls-27" d="m320.09 118.64c11.69 29.48 14.15 55.41 0.37 77.87-10.61 17.35-23.37 7.31-17.95-4 6.08-12.69 11.94-36.7 6.42-61.63-4.07-18.27-22.13-43.42-40.64-49.69-14.68-4.93-10.09-22.55 6.71-11.39 15.25 10.1 36.28 26.63 45.09 48.84z"/>
      <path class="cls-28" d="m318.41 118.56c11.82 28.29 14 54.33 1.85 75.83-9.4 16.68-20.48 7.34-15.5-3.17 5.69-12 11.22-36.08 5.82-60.92-3.81-17.61-22.37-43.52-40.23-49.62-13.93-4.76-8.75-21.14 6-9.07 13.65 11.11 33.65 26.83 42.06 46.95z"/>
     </g>
     <path class="cls-33" d="m217.58 52.81a104.12 104.12 0 1 0 104.1 104.12 104.24 104.24 0 0 0-104.1-104.12zm0 190.62a86.5 86.5 0 1 1 86.5-86.5 86.61 86.61 0 0 1-86.5 86.5z"/>
     <path class="cls-34" d="m219.25 54.49a104.12 104.12 0 1 0 104.1 104.12 104.24 104.24 0 0 0-104.1-104.12zm0 190.62a86.5 86.5 0 1 1 86.5-86.5 86.59 86.59 0 0 1-86.5 86.5z"/>
     <g class="cls-6">
      <path class="cls-7" d="m340.12 151.33c2.25 51.23 3.54 75.59-47.69 106.71-38.11 23.17-77.78-7.35-59.78-30.44 17.67-22.7 33.17-41.74 30.39-68.37-3.26-31-9.23-41.79-37.48-56.27-26.39-13.53-28-52.34 29.83-51.38 44.96 0.74 81.93 36.12 84.73 99.75z"/>
      <path class="cls-35" d="m338.55 151c2.45 50.15 3.56 74.54-45.95 105-36.85 22.73-75.06-6.84-57.6-29.26 17.18-22.12 32.38-41.28 29.69-67.8-3.13-30.38-9.44-41.94-37.09-56.16-25.72-13.2-27.17-50.73 28.75-49.28 43.51 1.14 79.32 35.89 82.2 97.5z"/>
      <path class="cls-36" d="m337 150.6c2.63 49.08 3.57 73.5-44.22 103.39-35.6 22.31-72.34-6.32-55.43-28.08 16.7-21.52 31.61-40.82 29-67.23-3-29.72-9.65-42.08-36.71-56-25-12.89-26.35-49.13 27.68-47.2 42.04 1.52 76.68 35.61 79.68 95.12z"/>
      <path class="cls-37" d="m335.42 150.24c2.68 48 3.59 72.45-42.48 101.73-34.34 21.87-69.61-5.82-53.26-26.9s30.83-40.36 28.33-66.66c-2.88-29.07-9.86-42.24-36.33-55.91-24.38-12.57-25.53-47.5 26.6-45.11 40.58 1.9 73.93 35.4 77.14 92.85z"/>
      <path class="cls-38" d="m333.85 149.88c2.83 46.94 3.6 71.4-40.75 100.06-33.08 21.44-66.88-5.3-51.07-25.72s30.11-39.9 27.63-66.09c-2.68-28.41-10.07-42.38-35.94-55.78-23.72-12.26-24.72-45.92 25.52-43.02 39.13 2.28 71.27 35.16 74.61 90.55z"/>
      <path class="cls-39" d="m332.28 149.52c3 45.87 3.62 70.35-39 98.4-31.82 21-64.16-4.79-48.9-24.54s29.34-39.45 26.95-65.52c-2.55-27.77-10.28-42.53-35.56-55.66-23-11.94-23.89-44.32 24.45-40.94 37.65 2.67 68.6 34.93 72.06 88.26z"/>
      <path class="cls-40" d="m330.72 149.15c3.13 44.81 3.63 69.31-37.28 96.74-30.57 20.58-61.43-4.28-46.72-23.35s28.57-39 26.26-65c-2.41-27.11-10.49-42.67-35.18-55.53-22.37-11.63-23.07-42.72 23.37-38.85 36.2 3.1 65.96 34.73 69.55 85.99z"/>
      <path class="cls-41" d="m329.15 148.79c3.29 43.74 3.65 68.26-35.54 95.08-29.31 20.13-58.71-3.77-44.55-22.18 14.26-18.57 27.8-38.53 25.57-64.38-2.27-26.46-10.7-42.82-34.79-55.42-21.7-11.31-22.25-41.11 22.29-36.75 34.75 3.44 63.32 34.45 67.02 83.65z"/>
      <path class="cls-42" d="m327.58 148.43c3.45 42.66 3.67 67.21-33.8 93.41-28.06 19.72-56-3.25-42.37-21 13.77-18 27-38.07 24.88-63.82s-10.91-43-34.41-55.29c-21-11-21.42-39.51 21.22-34.67 33.28 3.85 60.67 34.23 64.48 81.37z"/>
      <path class="cls-43" d="m326 148.07c3.61 41.59 3.68 66.16-32.07 91.75-26.8 19.28-53.26-2.74-40.2-19.82 13.27-17.39 26.27-37.61 24.27-63.25-2-25.14-11.12-43.11-34-55.16-20.44-10.68-20.68-37.91 20.06-32.59 31.82 4.23 58.04 34 61.94 79.07z"/>
      <path class="cls-44" d="m324.45 147.7c3.78 40.53 3.69 65.12-30.34 90.09-25.54 18.86-50.53-2.23-38-18.63 12.79-16.81 25.47-37.15 23.51-62.68-1.89-24.49-11.33-43.26-33.65-55-19.7-10.4-19.79-36.34 19.03-30.48 30.39 4.55 55.44 33.69 59.45 76.7z"/>
      <path class="cls-45" d="m322.88 147.34c4 39.46 3.71 64.07-28.6 88.43-24.28 18.42-47.81-1.72-35.84-17.45 12.31-16.22 24.7-36.69 22.82-62.12-1.75-23.83-11.54-43.4-33.26-54.91-19-10.05-19-34.7 18-28.41 28.89 5 52.78 33.51 56.88 74.46z"/>
      <path class="cls-46" d="m321.31 147c4.14 38.39 3.73 63-26.86 86.76-23 18-45.09-1.2-33.66-16.27 11.81-15.63 23.91-36.23 22.13-61.54-1.63-23.18-11.75-43.56-32.88-54.8-18.35-9.74-18.14-33.15 16.96-26.33 27.39 5.38 50.13 33.27 54.31 72.18z"/>
      <path class="cls-47" d="m319.75 146.62c4.32 37.32 3.74 62-25.13 85.1-21.77 17.56-42.36-0.7-31.49-15.09 11.33-15 23.13-35.77 21.45-61-1.51-22.52-12-43.7-32.5-54.67-17.67-9.41-17.32-31.49 15.84-24.22 25.98 5.78 47.56 33.05 51.83 69.88z"/>
      <path class="cls-48" d="m318.18 146.26c4.51 36.24 3.76 60.92-23.39 83.43-20.52 17.13-39.64-0.18-29.31-13.91 10.84-14.44 22.34-35.31 20.75-60.4-1.38-21.86-12.17-43.85-32.11-54.55-17-9.09-16.49-29.89 14.76-22.14 24.52 6.16 44.97 32.79 49.3 67.57z"/>
      <path class="cls-49" d="m316.61 145.89c4.72 35.18 3.78 59.88-21.65 81.77-19.26 16.71-36.92 0.34-27.14-12.72 10.36-13.86 21.56-34.85 20.07-59.84-1.27-21.2-12.38-44-31.73-54.42-16.33-8.78-15.67-28.29 13.68-20.05 23.06 6.54 42.39 32.55 46.77 65.26z"/>
      <path class="cls-50" d="m315.05 145.53c4.93 34.11 3.79 58.83-19.92 80.11-18 16.27-34.19 0.85-25-11.55 9.86-13.26 20.77-34.38 19.38-59.26-1.15-20.55-12.59-44.14-31.35-54.3-15.66-8.46-14.85-26.69 12.61-18 21.64 6.96 39.84 32.34 44.28 63z"/>
      <path class="cls-51" d="m313.48 145.17c5.16 33 3.8 57.78-18.19 78.44-16.74 15.84-31.46 1.36-22.78-10.36 9.38-12.68 20-33.93 18.69-58.7-1-19.89-12.8-44.29-31-54.17-15-8.15-14-25.09 11.53-15.88 20.18 7.32 37.27 32.07 41.75 60.67z"/>
      <path class="cls-52" d="m311.91 144.81c5.4 31.95 3.82 56.73-16.45 76.78-15.49 15.41-28.74 1.87-20.6-9.18 8.89-12.09 19.18-33.47 18-58.14-0.92-19.23-13-44.43-30.58-54.05-14.28-7.82-13.21-23.47 10.45-13.78 18.68 7.7 34.69 31.82 39.18 58.37z"/>
      <path class="cls-53" d="m310.34 144.44c5.67 30.87 3.84 55.69-14.71 75.12-14.23 15-26 2.39-18.43-8 8.4-11.5 18.38-33 17.32-57.56-0.81-18.58-13.22-44.58-30.2-53.93-13.65-7.51-12.39-21.87 9.38-11.69 17.22 8.09 32.15 31.56 36.64 56.06z"/>
      <path class="cls-54" d="m308.78 144.08c6 29.78 3.85 54.64-13 73.46-13 14.54-23.29 2.89-16.26-6.82 7.92-10.91 17.55-32.54 16.63-57-0.71-17.92-13.42-44.72-29.81-53.8-13-7.19-11.56-20.27 8.3-9.61 15.78 8.48 29.64 31.32 34.14 53.77z"/>
      <path class="cls-55" d="m307.21 143.72c6.3 28.67 3.87 53.59-11.24 71.79-11.72 14.12-20.57 3.41-14.08-5.64 7.43-10.32 16.77-32.08 15.94-56.42-0.59-17.27-13.64-44.87-29.43-53.68-12.31-6.88-10.74-18.67 7.22-7.52 14.3 8.86 27.13 31.05 31.59 51.47z"/>
     </g>
     <path class="cls-56" d="m217.58 70.43a86.5 86.5 0 1 0 86.5 86.5 86.59 86.59 0 0 0-86.5-86.5zm0 155.4a68.9 68.9 0 1 1 68.88-68.9 69 69 0 0 1-68.88 68.9z"/>
     <path class="cls-57" d="m219.25 72.11a86.5 86.5 0 1 0 86.5 86.5 86.61 86.61 0 0 0-86.5-86.5zm0 155.4a68.9 68.9 0 1 1 68.9-68.9 69 69 0 0 1-68.9 68.9z"/>
     <g class="cls-6">
      <path class="cls-7" d="m310.82 143.72c4.17 39.73 6.32 58.63-32.06 85.26-28.55 19.81-36.84 1.42-23.92-17.39 12.68-18.49 17.25-38.57 13.82-59.16-4-24-17.23-40.52-45.19-44.94-22.81-3.61-28.3-35.38 16.72-37.37 35.01-1.55 65.43 24.23 70.63 73.6z"/>
      <path class="cls-58" d="m309.58 143.51c4.27 38.89 6.29 57.82-30.79 83.89-27.59 19.42-35.84 1.52-23.31-16.75 12.32-18 17-38 13.62-58.46-3.85-23.47-17-40.22-44.24-44.72-22.2-3.67-27.38-34.31 16.17-35.89 33.91-1.21 63.39 24.17 68.55 71.93z"/>
      <path class="cls-59" d="m308.35 143.3c4.36 38 6.24 57-29.52 82.52-26.63 19-34.84 1.63-22.71-16.1 12-17.52 16.7-37.35 13.43-57.77-3.72-23-16.8-39.92-43.3-44.51-21.59-3.72-26.46-33.23 15.62-34.4 32.81-0.87 61.35 24.1 66.48 70.26z"/>
      <path class="cls-60" d="m307.11 143.09c4.36 37.21 6.21 56.2-28.25 81.14-25.67 18.63-33.83 1.74-22.1-15.44s16.43-36.74 13.24-57.08c-3.6-22.47-16.59-39.63-42.37-44.29-21-3.78-25.53-32.16 15.08-32.92 31.71-0.5 59.19 24.05 64.4 68.59z"/>
      <path class="cls-61" d="m305.88 142.89c4.42 36.37 6.17 55.37-27 79.76-24.72 18.23-32.84 1.84-21.5-14.79a78 78 0 0 0 13-56.39c-3.46-22-16.37-39.33-41.42-44.08-20.36-3.82-24.61-31.07 14.53-31.42 30.67-0.2 57.17 24.03 62.39 66.92z"/>
      <path class="cls-62" d="m304.64 142.68c4.49 35.53 6.13 54.56-25.71 78.38-23.76 17.84-31.83 1.94-20.93-14.14a77.5 77.5 0 0 0 12.85-55.69c-3.29-21.47-16.16-39-40.48-43.86-19.75-3.88-23.68-30 14-29.94 29.53 0.13 55.05 23.93 60.27 65.25z"/>
      <path class="cls-63" d="m303.4 142.47c4.56 34.69 6.1 53.75-24.43 77-22.8 17.45-30.84 2.05-20.29-13.49a77.15 77.15 0 0 0 12.65-55c-3.14-21-15.94-38.74-39.54-43.64-19.13-3.94-22.75-28.93 13.45-28.46 28.4 0.48 52.95 23.88 58.16 63.59z"/>
      <path class="cls-64" d="m302.17 142.26c4.62 33.86 6.05 52.93-23.17 75.64-21.84 17-29.83 2.15-19.68-12.84a76.93 76.93 0 0 0 12.46-54.31c-3-20.47-15.73-38.44-38.6-43.43-18.52-4-21.83-27.92 12.9-27 27.3 0.78 50.92 23.84 56.09 61.94z"/>
      <path class="cls-65" d="m300.93 142.05c4.7 33 6 52.12-21.89 74.26-20.89 16.69-28.84 2.26-19.04-12.19a76.58 76.58 0 0 0 12.26-53.62c-2.87-20-15.51-38.13-37.65-43.2-17.9-4-20.91-26.86 12.35-25.49 26.16 1.08 48.77 23.75 53.97 60.24z"/>
      <path class="cls-66" d="m299.69 141.85c4.78 32.17 6 51.3-20.62 72.88-19.93 16.26-27.83 2.36-18.47-11.54a76.42 76.42 0 0 0 12.07-52.93c-2.74-19.46-15.3-37.83-36.72-43-17.28-4.11-20-25.79 11.81-24 25.1 1.43 46.75 23.74 51.93 58.59z"/>
      <path class="cls-67" d="m298.46 141.64c4.85 31.34 5.94 50.48-19.35 71.5-19 15.87-26.84 2.48-17.87-10.88a76.23 76.23 0 0 0 11.88-52.26c-2.62-19-15.09-37.54-35.78-42.77-16.67-4.15-19.05-24.72 11.26-22.51 24 1.76 44.7 23.64 49.86 56.92z"/>
      <path class="cls-68" d="m297.22 141.43c4.94 30.5 5.91 49.67-18.08 70.13-18 15.48-25.83 2.58-17.26-10.23a76 76 0 0 0 11.68-51.55c-2.48-18.45-14.87-37.24-34.84-42.55-16.05-4.21-18.12-23.65 10.72-21 22.9 2.05 42.65 23.53 47.78 55.2z"/>
      <path class="cls-69" d="m296 141.22c5 29.66 5.87 48.86-16.8 68.76-17.06 15.08-24.83 2.68-16.66-9.59a75.83 75.83 0 0 0 11.46-50.85c-2.36-17.95-14.66-36.94-33.9-42.34-15.44-4.26-17.19-22.57 10.18-19.54 21.8 2.41 40.61 23.5 45.72 53.56z"/>
      <path class="cls-70" d="m294.75 141c5.12 28.82 5.83 48-15.54 67.38-16.1 14.69-23.83 2.79-16-8.93 8.11-12.23 13.79-30.64 11.29-50.16-2.23-17.45-14.43-36.68-32.95-42.12-14.82-4.35-16.27-21.5 9.63-18.06 20.64 2.76 38.51 23.45 43.57 51.89z"/>
      <path class="cls-71" d="m293.51 140.81c5.22 28 5.75 47.18-14.26 66-15.17 14.26-22.83 2.89-15.44-8.28 7.75-11.75 13.5-30 11.09-49.47-2.1-16.95-14.22-36.39-32-41.9-14.2-4.41-15.34-20.42 9.09-16.58 19.57 3.09 36.51 23.42 41.52 50.23z"/>
      <path class="cls-72" d="m292.27 140.6c5.33 27.13 5.72 46.37-13 64.62-14.21 13.87-21.83 3-14.83-7.62 7.4-11.27 13.23-29.42 10.9-48.79-2-16.44-14-36.08-31.08-41.68-13.59-4.45-14.41-19.34 8.54-15.08 18.51 3.42 34.52 23.3 39.47 48.55z"/>
      <path class="cls-73" d="m291 140.39c5.44 26.29 5.68 45.56-11.72 63.25-13.26 13.48-20.83 3.1-14.23-7 7.05-10.79 13-28.8 10.7-48.09-1.86-15.93-13.79-35.78-30.13-41.46-13-4.51-13.49-18.26 8-13.6 17.43 3.79 32.52 23.25 37.38 46.9z"/>
      <path class="cls-74" d="m289.8 140.18c5.57 25.44 5.65 44.75-10.45 61.88-12.29 13.08-19.83 3.21-13.62-6.33 6.69-10.31 12.67-28.19 10.51-47.4-1.74-15.43-13.58-35.48-29.2-41.24-12.36-4.57-12.56-17.18 7.45-12.12 16.3 4.12 30.51 23.17 35.31 45.21z"/>
      <path class="cls-75" d="m288.57 140c5.71 24.6 5.64 44-9.18 60.5-11.31 12.72-18.83 3.32-13-5.67 6.34-9.83 12.39-27.58 10.31-46.71-1.62-14.93-13.37-35.15-28.25-41-11.76-4.59-11.64-16.08 6.91-10.63 15.16 4.41 28.46 23.04 33.21 43.51z"/>
      <path class="cls-76" d="m287.33 139.77c5.86 23.73 5.6 43.15-7.91 59.12-10.35 12.32-17.83 3.42-12.41-5 6-9.34 12.1-27 10.12-46-1.5-14.46-13.13-34.89-27.31-40.89-11.15-4.65-10.72-15 6.36-9.15 14.08 4.86 26.49 23.06 31.15 41.92z"/>
      <path class="cls-77" d="m286.09 139.56c6 22.87 5.57 42.33-6.63 57.75-9.4 11.92-16.83 3.52-11.81-4.38 5.64-8.86 11.79-26.35 9.92-45.32-1.4-13.92-12.94-34.56-26.37-40.59-10.53-4.7-9.8-13.87 5.82-7.66 12.98 5.19 24.51 22.93 29.07 40.2z"/>
      <path class="cls-78" d="m284.86 139.35c6.24 22 5.52 41.52-5.37 56.37-8.44 11.54-15.83 3.63-11.2-3.72 5.29-8.39 11.52-25.74 9.73-44.63-1.27-13.37-12.73-34.26-25.43-40.37-9.91-4.75-8.88-12.79 5.27-6.17 11.87 5.52 22.56 22.84 27 38.52z"/>
     </g>
     <path class="cls-79" d="m217.58 88a68.9 68.9 0 1 0 68.88 68.9 69 69 0 0 0-68.88-68.9zm0 120.19a51.3 51.3 0 1 1 51.28-51.29 51.3 51.3 0 0 1-51.28 51.32z"/>
     <path class="cls-80" d="m219.25 89.71a68.9 68.9 0 1 0 68.9 68.9 69 69 0 0 0-68.9-68.9zm0 120.2a51.3 51.3 0 1 1 51.29-51.3 51.3 51.3 0 0 1-51.29 51.3z"/>
    </g>
    <g transform="translate(0 15.982)" filter="url(#filter325)">
     <path class="cls-81" d="m412.54 157.23c-1 0-2 0.05-3 0.11a39.9 39.9 0 0 0-52.31-23.83 38.69 38.69 0 0 0-72.32-1.18 34 34 0 0 0-39.69 29.93 38.38 38.38 0 1 0-7.59 76h1a35.37 35.37 0 0 0 64.67 9.74 48.56 48.56 0 0 0 86.3-4.78 46.07 46.07 0 1 0 22.94-86z"/>
     <path class="cls-82" d="m413.8 158.5c-1 0-2 0-3.05 0.09a39.83 39.83 0 0 0-52.31-23.83 38.68 38.68 0 0 0-72.31-1.18 34.51 34.51 0 0 0-5.86-0.51 34 34 0 0 0-33.84 30.44 36.6 36.6 0 0 0-7.59-0.77 38.39 38.39 0 0 0 0 76.77h1a35.37 35.37 0 0 0 64.72 9.82 48.55 48.55 0 0 0 86.29-4.77 46.07 46.07 0 1 0 22.95-86z"/>
    </g>
    <g transform="translate(0 15.982)" filter="url(#filter301)">
     <path class="cls-81" d="m162.59 161.41a32.71 32.71 0 0 0-11.94 1.6 56.74 56.74 0 0 0-109.15-7.9 39.41 39.41 0 1 0 25 68 56.68 56.68 0 0 0 68.5-8.85 32.78 32.78 0 1 0 27.57-52.85z"/>
     <path class="cls-83" d="m163.84 163.16a32.57 32.57 0 0 0-11.92 1.6 56.75 56.75 0 0 0-109.17-7.9 39.41 39.41 0 1 0 25 68 56.73 56.73 0 0 0 68.52-8.86 32.79 32.79 0 1 0 27.57-52.87z"/>
    </g>
    <path class="cls-81" d="m299.6 200.39a44.32 44.32 0 0 0-5.18 0.33 48.08 48.08 0 0 0-72-24.75 37.18 37.18 0 0 0-71.42 5.69 30.75 30.75 0 0 0-48.85 21h-0.24a44.29 44.29 0 1 0 21.48 83 31.9 31.9 0 0 0 60.26 9.11 54.26 54.26 0 0 0 96.43-13.68 42.7 42.7 0 1 0 19.54-80.67z" filter="url(#filter313)"/>
   </g>
  </g>
 </g>
</svg>
