<?xml version="1.0" encoding="UTF-8"?>
<svg width="231.08" height="350.22" version="1.1" viewBox="0 0 231.08 350.22" xmlns="http://www.w3.org/2000/svg" xmlns:xlink="http://www.w3.org/1999/xlink">
 <defs>
  <style>.raindrops-cls-1 {
        isolation: isolate;
      }

      .raindrops-cls-2 {
        fill: #c4f1ff;
      }

      .raindrops-cls-3 {
        fill: url(#raindrops-linear-gradient);
      }

      .raindrops-cls-4 {
        mix-blend-mode: multiply;
      }

      .raindrops-cls-5 {
        fill: #86a2b0;
      }

      .raindrops-cls-6 {
        fill: url(#raindrops-linear-gradient-2);
      }

      .raindrops-cls-7 {
        fill: url(#raindrops-linear-gradient-3);
      }</style>
  <linearGradient id="raindrops-linear-gradient" x1="8.66" x2="86.28" y1="38.81" y2="116.43" gradientUnits="userSpaceOnUse">
   <stop stop-color="#6bd9ff" offset="0"/>
   <stop stop-color="#3ec9f7" offset="1"/>
  </linearGradient>
  <linearGradient id="raindrops-linear-gradient-2" x1="9.97" x2="58.48" y1="224.78" y2="273.3" xlink:href="#raindrops-linear-gradient"/>
  <linearGradient id="raindrops-linear-gradient-3" x1="107.17" x2="164.9" y1="144.2" y2="201.93" xlink:href="#raindrops-linear-gradient"/>
  <filter id="filter55" x="-.32093" y="-.20909" width="1.7087" height="1.4617" color-interpolation-filters="sRGB">
   <feFlood flood-color="rgb(0,0,0)" flood-opacity=".30196" result="flood"/>
   <feComposite in="flood" in2="SourceGraphic" operator="in" result="composite1"/>
   <feGaussianBlur in="composite1" result="blur" stdDeviation="12"/>
   <feOffset dx="6" dy="6" result="offset"/>
   <feComposite in="SourceGraphic" in2="offset" result="composite2"/>
  </filter>
  <filter id="filter67" x="-.43156" y="-.27961" width="1.953" height="1.6175" color-interpolation-filters="sRGB">
   <feFlood flood-color="rgb(0,0,0)" flood-opacity=".30196" result="flood"/>
   <feComposite in="flood" in2="SourceGraphic" operator="in" result="composite1"/>
   <feGaussianBlur in="composite1" result="blur" stdDeviation="12"/>
   <feOffset dx="6" dy="6" result="offset"/>
   <feComposite in="SourceGraphic" in2="offset" result="composite2"/>
  </filter>
  <filter id="filter79" x="-.51355" y="-.33453" width="2.1341" height="1.7388" color-interpolation-filters="sRGB">
   <feFlood flood-color="rgb(0,0,0)" flood-opacity=".30196" result="flood"/>
   <feComposite in="flood" in2="SourceGraphic" operator="in" result="composite1"/>
   <feGaussianBlur in="composite1" result="blur" stdDeviation="12"/>
   <feOffset dx="6" dy="6" result="offset"/>
   <feComposite in="SourceGraphic" in2="offset" result="composite2"/>
  </filter>
  <linearGradient id="linearGradient99" x1="8.66" x2="86.28" y1="38.81" y2="116.43" gradientUnits="userSpaceOnUse" xlink:href="#raindrops-linear-gradient"/>
 </defs>
 <g class="raindrops-cls-1" transform="translate(28.8 28.8)">
  <g data-name="Layer 2">
   <g id="_Layer_" data-name="&lt;Layer&gt;">
    <g filter="url(#filter55)">
     <path class="raindrops-cls-2" d="m86.15 94.28a42.27 42.27 0 0 1-42.27 42.25c-23.35 0-43.88-18.91-43.88-42.25 0-39.64 44.26-92.64 44.26-92.64l3.21-1.64a7 7 0 0 0 0.79 3c8.07 12.59 37.89 61 37.89 91.28z"/>
     <path class="raindrops-cls-3" d="m89.74 95.47a42.27 42.27 0 0 1-84.54 0c0-35.01 42.27-95.47 42.27-95.47s42.27 60.46 42.27 95.47z" fill="url(#linearGradient99)"/>
    </g>
    <g filter="url(#filter79)">
     <g class="raindrops-cls-4">
      <path class="raindrops-cls-5" d="m41.83 230.11c4.79 0 17.29 22 16.25 35.08-0.73 9.2-6.8 16.72-16.18 16.72-13 0-15.62-11.76-15.62-16.51 0.02-8.11 10.61-35.29 15.55-35.29z"/>
     </g>
     <path class="raindrops-cls-2" d="m58.4 259.44a26.4 26.4 0 0 1-26.4 26.41c-14.6 0-27.43-11.85-27.43-26.41 0-24.76 27.66-57.86 27.66-57.86l2-1.05a4.37 4.37 0 0 0 0.5 1.92c5.04 7.83 23.67 38.09 23.67 56.99z"/>
     <path class="raindrops-cls-6" d="m60.65 260.2a26.42 26.42 0 0 1-52.84 0c0-21.87 26.41-59.67 26.41-59.67s26.43 37.8 26.43 59.67z" fill="url(#raindrops-linear-gradient-2)"/>
    </g>
    <g filter="url(#filter67)">
     <path class="raindrops-cls-2" d="m164.8 185.46a31.41 31.41 0 0 1-31.42 31.42c-17.38 0-32.64-14.06-32.64-31.42 0-29.49 32.92-68.89 32.92-68.89l2.37-1.23a5.41 5.41 0 0 0 0.59 2.27c6.01 9.32 28.18 45.39 28.18 67.85z"/>
     <path class="raindrops-cls-7" d="m167.47 186.34a31.44 31.44 0 1 1-62.87 0c0-26 31.43-71 31.43-71s31.44 44.98 31.44 71z" fill="url(#raindrops-linear-gradient-3)"/>
    </g>
   </g>
  </g>
 </g>
</svg>
