<?xml version="1.0" encoding="UTF-8"?>
<svg width="492.83" height="431.96" version="1.1" viewBox="0 0 492.83 431.96" xmlns="http://www.w3.org/2000/svg">
 <defs>
  <style>.snow-cls-1 {
        isolation: isolate;
      }

      .snow-cls-2 {
        fill: #eef7fa;
      }

      .snow-cls-3 {
        fill: #91d5eb;
      }

      .snow-cls-4, .snow-cls-7 {
        fill: #fff;
      }

      .snow-cls-5 {
        fill: #e1f0fa;
      }

      .snow-cls-6 {
        mix-blend-mode: multiply;
      }

      .snow-cls-7 {
        opacity: 0;
      }

      .snow-cls-8 {
        fill: #9ddef2;
      }

      .snow-cls-9 {
        fill: #a2def2;
      }

      .snow-cls-10 {
        fill: #bee9f7;
      }

      .snow-cls-11 {
        fill: #c8eefa;
      }</style>
  <filter id="filter670" x="-.16687" y="-.27599" width="1.3685" height="1.6095" color-interpolation-filters="sRGB">
   <feFlood flood-color="rgb(0,0,0)" flood-opacity=".30196" result="flood"/>
   <feComposite in="flood" in2="SourceGraphic" operator="in" result="composite1"/>
   <feGaussianBlur in="composite1" result="blur" stdDeviation="12"/>
   <feOffset dx="6" dy="6" result="offset"/>
   <feComposite in="SourceGraphic" in2="offset" result="composite2"/>
  </filter>
  <filter id="filter682" x="-.086128" y="-.11917" width="1.1902" height="1.2632" color-interpolation-filters="sRGB">
   <feFlood flood-color="rgb(0,0,0)" flood-opacity=".30196" result="flood"/>
   <feComposite in="flood" in2="SourceGraphic" operator="in" result="composite1"/>
   <feGaussianBlur in="composite1" result="blur" stdDeviation="12"/>
   <feOffset dx="6" dy="6" result="offset"/>
   <feComposite in="SourceGraphic" in2="offset" result="composite2"/>
  </filter>
  <filter id="filter694" x="-.10067" y="-.17122" width="1.2223" height="1.3781" color-interpolation-filters="sRGB">
   <feFlood flood-color="rgb(0,0,0)" flood-opacity=".30196" result="flood"/>
   <feComposite in="flood" in2="SourceGraphic" operator="in" result="composite1"/>
   <feGaussianBlur in="composite1" result="blur" stdDeviation="12"/>
   <feOffset dx="6" dy="6" result="offset"/>
   <feComposite in="SourceGraphic" in2="offset" result="composite2"/>
  </filter>
  <filter id="filter706" x="-.1329" y="-.20877" width="1.2935" height="1.461" color-interpolation-filters="sRGB">
   <feFlood flood-color="rgb(0,0,0)" flood-opacity=".30196" result="flood"/>
   <feComposite in="flood" in2="SourceGraphic" operator="in" result="composite1"/>
   <feGaussianBlur in="composite1" result="blur" stdDeviation="12"/>
   <feOffset dx="6" dy="6" result="offset"/>
   <feComposite in="SourceGraphic" in2="offset" result="composite2"/>
  </filter>
  <filter id="filter718" x="-.069117" y="-.13079" width="1.1526" height="1.2888" color-interpolation-filters="sRGB">
   <feFlood flood-color="rgb(0,0,0)" flood-opacity=".30196" result="flood"/>
   <feComposite in="flood" in2="SourceGraphic" operator="in" result="composite1"/>
   <feGaussianBlur in="composite1" result="blur" stdDeviation="12"/>
   <feOffset dx="6" dy="6" result="offset"/>
   <feComposite in="SourceGraphic" in2="offset" result="composite2"/>
  </filter>
  <filter id="filter730" x="-.28833" y="-.29182" width="1.6367" height="1.6444" color-interpolation-filters="sRGB">
   <feFlood flood-color="rgb(0,0,0)" flood-opacity=".30196" result="flood"/>
   <feComposite in="flood" in2="SourceGraphic" operator="in" result="composite1"/>
   <feGaussianBlur in="composite1" result="blur" stdDeviation="12"/>
   <feOffset dx="6" dy="6" result="offset"/>
   <feComposite in="SourceGraphic" in2="offset" result="composite2"/>
  </filter>
  <filter id="filter742" x="-.42509" y="-.43014" width="1.9387" height="1.9499" color-interpolation-filters="sRGB">
   <feFlood flood-color="rgb(0,0,0)" flood-opacity=".30196" result="flood"/>
   <feComposite in="flood" in2="SourceGraphic" operator="in" result="composite1"/>
   <feGaussianBlur in="composite1" result="blur" stdDeviation="12"/>
   <feOffset dx="6" dy="6" result="offset"/>
   <feComposite in="SourceGraphic" in2="offset" result="composite2"/>
  </filter>
  <filter id="filter754" x="-.32633" y="-.33035" width="1.7207" height="1.7295" color-interpolation-filters="sRGB">
   <feFlood flood-color="rgb(0,0,0)" flood-opacity=".30196" result="flood"/>
   <feComposite in="flood" in2="SourceGraphic" operator="in" result="composite1"/>
   <feGaussianBlur in="composite1" result="blur" stdDeviation="12"/>
   <feOffset dx="6" dy="6" result="offset"/>
   <feComposite in="SourceGraphic" in2="offset" result="composite2"/>
  </filter>
 </defs>
 <g class="snow-cls-1" transform="translate(28.758 28.805)">
  <g data-name="Layer 2">
   <g id="_Layer_" data-name="&lt;Layer&gt;">
    <g filter="url(#filter718)">
     <path class="snow-cls-2" d="m388.64 179.1a60.47 60.47 0 0 0-21.43-31.38 71.81 71.81 0 0 0-132.83-54.46c-2.08-0.26-4.18-0.46-6.31-0.55a73 73 0 0 0-61.65 29.21 39 39 0 0 0-53.34 34.62 38.48 38.48 0 0 0 1 10.34 27 27 0 0 0-18.63 12.57 37.58 37.58 0 0 0-65 8.29c-0.73-0.09-1.46-0.18-2.21-0.22a27 27 0 1 0 17.47 46.48 37.18 37.18 0 0 0 17.72 5.39 39 39 0 0 0 70.4 1.59 38.85 38.85 0 0 0 14.56 3.52 43.14 43.14 0 0 0 4.84-0.13 52.65 52.65 0 0 0 80.8 4.29 39 39 0 0 0 68.83 0.7 60.4 60.4 0 0 0 74.51-15.44 29.33 29.33 0 0 0 8.7 1.77 28.324 28.324 0 0 0 2.57-56.59z"/>
     <path class="snow-cls-3" d="m389.76 180.22a60.66 60.66 0 0 0-21.43-31.4 71.81 71.81 0 0 0-132.84-54.43c-2.08-0.28-4.18-0.48-6.31-0.56a73 73 0 0 0-61.65 29.23 38.49 38.49 0 0 0-12.66-2.73 39.05 39.05 0 0 0-40.68 37.34 39.63 39.63 0 0 0 1 10.32 27 27 0 0 0-18.63 12.58 37.58 37.58 0 0 0-65 8.28c-0.72-0.08-1.46-0.17-2.19-0.21a27 27 0 1 0 17.52 46.48 37.45 37.45 0 0 0 17.73 5.4 39 39 0 0 0 70.39 1.58 39 39 0 0 0 14.56 3.5 41.14 41.14 0 0 0 4.85-0.11 52.68 52.68 0 0 0 80.8 4.3 39 39 0 0 0 68.82 0.7 60.37 60.37 0 0 0 74.44-15.49 28.32 28.32 0 1 0 11.28-54.81z"/>
    </g>
    <g filter="url(#filter754)">
     <path class="snow-cls-4" d="m179.26 257.53-0.27 0.15-80.28 37.18a2.06 2.06 0 0 1-1.58 0.08 2.1 2.1 0 0 1-1.13-1.09 2.06 2.06 0 0 1 0.74-2.58 1.35 1.35 0 0 1 0.26-0.15l80.28-37.2a2.07 2.07 0 0 1 2 3.61z"/>
     <path class="snow-cls-4" d="m174.64 266.82-0.28 0.14a2.09 2.09 0 0 1-2.74-1l-5.44-11.76a2.06 2.06 0 0 1 0.74-2.58 2.2 2.2 0 0 1 0.26-0.15 2.09 2.09 0 0 1 2.75 1l5.44 11.76a2.09 2.09 0 0 1-0.73 2.59z"/>
     <path class="snow-cls-4" d="m109.05 297.18a1.35 1.35 0 0 1-0.26 0.15 2.06 2.06 0 0 1-2.74-1l-5.46-11.78a2.08 2.08 0 0 1 0.74-2.58l0.28-0.15a2.05 2.05 0 0 1 2.73 1l5.45 11.76a2.07 2.07 0 0 1-0.74 2.6z"/>
     <path class="snow-cls-4" d="m157.71 316.26a1.15 1.15 0 0 1-0.27 0.14 2 2 0 0 1-2.73-1l-37.19-80.29a2.09 2.09 0 0 1 0.73-2.6c0.09-0.05 0.18-0.09 0.27-0.15a2.06 2.06 0 0 1 1.58-0.05 2 2 0 0 1 1.16 1.07l37.19 80.29a2 2 0 0 1-0.74 2.59z"/>
     <path class="snow-cls-4" d="m160.19 306.18-0.27 0.16-11.75 5.44a1.94 1.94 0 0 1-1.58 0.05 2 2 0 0 1-1.17-1.06 2.07 2.07 0 0 1 0.75-2.58 1 1 0 0 1 0.25-0.15l11.76-5.46a2.09 2.09 0 0 1 1.59-0.05 2 2 0 0 1 1.16 1.07 2.07 2.07 0 0 1-0.74 2.58z"/>
     <path class="snow-cls-4" d="m129.81 240.59a1.24 1.24 0 0 1-0.27 0.17l-11.75 5.43a2 2 0 0 1-2.75-1 2.06 2.06 0 0 1 0.74-2.58 1.78 1.78 0 0 1 0.27-0.17l11.76-5.44a2.06 2.06 0 0 1 1.58-0.08 2.1 2.1 0 0 1 1.16 1.07 2.05 2.05 0 0 1-0.74 2.6z"/>
     <path class="snow-cls-4" d="m123.89 317.66c-0.1 0-0.18 0.11-0.27 0.14a2 2 0 0 1-1.58 0.06 2 2 0 0 1-1.22-2.63l30.47-83.08a2 2 0 0 1 0.8-1 2 2 0 0 1 1.84-0.2 1.94 1.94 0 0 1 1.16 1.07 2.05 2.05 0 0 1 0.07 1.56l-30.47 83.07a2 2 0 0 1-0.8 1.01z"/>
     <path class="snow-cls-4" d="m132.76 312.28a1.38 1.38 0 0 1-0.27 0.14 2.16 2.16 0 0 1-1.58 0.08l-12.16-4.5a2.12 2.12 0 0 1-1.17-1.07 2.09 2.09 0 0 1-0.06-1.59 2.2 2.2 0 0 1 0.8-1 2.1 2.1 0 0 1 1.84-0.2l12.18 4.48a2 2 0 0 1 1.16 1.05 2.06 2.06 0 0 1 0.06 1.58 2 2 0 0 1-0.8 1.03z"/>
     <path class="snow-cls-4" d="m157.64 244.43a1.65 1.65 0 0 1-0.26 0.14 2.16 2.16 0 0 1-1.58 0.08l-12.16-4.46a2.09 2.09 0 0 1-1.23-2.66 2.16 2.16 0 0 1 0.81-1 2.1 2.1 0 0 1 1.84-0.2l12.16 4.48a1.94 1.94 0 0 1 1.16 1.07 2 2 0 0 1-0.74 2.58z"/>
     <path class="snow-cls-4" d="m180.65 291.36c-0.08 0.06-0.17 0.09-0.26 0.15a2 2 0 0 1-1.58 0.05l-83.07-30.48a2 2 0 0 1-1.16-1.08 2.08 2.08 0 0 1-0.07-1.57 2.12 2.12 0 0 1 0.81-1 2.06 2.06 0 0 1 1.85-0.23l83.05 30.48a2.06 2.06 0 0 1 1.17 1.07 2.08 2.08 0 0 1-0.74 2.6z"/>
     <path class="snow-cls-4" d="m103 269.76a1.1 1.1 0 0 1-0.26 0.15 2 2 0 0 1-1.57 0.06 2.09 2.09 0 0 1-1.17-1.07 2.13 2.13 0 0 1-0.07-1.59l4.47-12.16a2 2 0 0 1 0.8-1 2.08 2.08 0 0 1 1.86-0.23 2.17 2.17 0 0 1 1.16 1.07 2.09 2.09 0 0 1 0 1.59l-4.46 12.16a2.05 2.05 0 0 1-0.76 1.02z"/>
     <path class="snow-cls-4" d="m170.8 294.66-0.25 0.15a2.11 2.11 0 0 1-1.58 0.05 2 2 0 0 1-1.16-1.07 2 2 0 0 1-0.07-1.56l4.46-12.18a2.1 2.1 0 0 1 2.66-1.24 2.12 2.12 0 0 1 1.14 1.09 2 2 0 0 1 0.06 1.57l-4.46 12.16a2 2 0 0 1-0.8 1.03z"/>
     <path class="snow-cls-4" d="m149.35 298.31a0.76 0.76 0 0 1-0.24 0.11 1.77 1.77 0 0 1-1.67-0.06l-8.66-4.86-8.24 5.56a1.84 1.84 0 0 1-2.82-1l-2.72-9.59-9.75-1.9a1.86 1.86 0 0 1-1.34-1 1.84 1.84 0 0 1 0.08-1.68l4.86-8.68-5.56-8.24a1.8 1.8 0 0 1-0.21-1.67 1.85 1.85 0 0 1 0.72-0.91 2.28 2.28 0 0 1 0.53-0.24l9.56-2.67 1.88-9.76a1.9 1.9 0 0 1 0.81-1.2 1.34 1.34 0 0 1 0.23-0.13 1.92 1.92 0 0 1 1.7 0l8.66 4.89 8.23-5.57a1.83 1.83 0 0 1 1.68-0.2 1.86 1.86 0 0 1 1.15 1.23l2.68 9.59 9.76 1.88a1.83 1.83 0 0 1 1.32 1 1.9 1.9 0 0 1 0.01 1.79l-4.88 8.67 5.43 8a2.06 2.06 0 0 1 0.31 0.46 1.85 1.85 0 0 1-0.66 2.32 1.94 1.94 0 0 1-0.24 0.15h-0.06l-0.24 0.09-9.66 2.65-1.88 9.77a1.88 1.88 0 0 1-0.77 1.2zm-11.7-8.52a0.69 0.69 0 0 1 0.25-0.14 1.9 1.9 0 0 1 1.69 0.05l7.41 4.19 1.62-8.37a2 2 0 0 1 0.81-1.2 2.66 2.66 0 0 1 0.51-0.24l8.2-2.28-4.77-7.06a1.84 1.84 0 0 1-0.07-1.94l4.16-7.42-8.35-1.62a1.85 1.85 0 0 1-1.43-1.33l-2.3-8.2-7.06 4.77a1.86 1.86 0 0 1-1.94 0.09l-7.38-4.18-1.62 8.37a1.86 1.86 0 0 1-0.79 1.2 2 2 0 0 1-0.52 0.22l-8.2 2.3 4.78 7.06a1.9 1.9 0 0 1 0.08 1.95l-4.17 7.41 8.34 1.62a1.83 1.83 0 0 1 1.44 1.33l2.3 8.18 7-4.76z"/>
     <path class="snow-cls-4" d="m163 298a1 1 0 0 1-0.23 0.13 1.71 1.71 0 0 1-1 0.15l-13.42-1.61-7.48 11.33a2 2 0 0 1-0.53 0.54 1.74 1.74 0 0 1-0.94 0.29 1.91 1.91 0 0 1-1.54-0.7l-8.34-10.63-13.24 2.71a2 2 0 0 1-1.63-0.44 1.84 1.84 0 0 1-0.58-1.59l1.61-13.41-11.29-7.47a1.86 1.86 0 0 1-0.82-1.47 1.83 1.83 0 0 1 0.7-1.53l10.62-8.35-2.7-13.25a1.84 1.84 0 0 1 0.46-1.62 2 2 0 0 1 0.35-0.3 1.84 1.84 0 0 1 1.23-0.29l13.43 1.62 7.44-11.28a1.58 1.58 0 0 1 0.53-0.53 1.75 1.75 0 0 1 0.94-0.3 1.84 1.84 0 0 1 1.53 0.7l8.35 10.64 13.25-2.71a1.85 1.85 0 0 1 1.62 0.44 1.92 1.92 0 0 1 0.59 1.6l-1.61 13.42 11.28 7.44a1.86 1.86 0 0 1 0.12 3l-10.64 8.35 2.71 13.23a1.86 1.86 0 0 1-0.45 1.64 2.45 2.45 0 0 1-0.32 0.25zm-16.58-4.84a1.77 1.77 0 0 1 1.23-0.3l12 1.44-2.45-11.8a1.89 1.89 0 0 1 0.69-1.85l9.5-7.48-10.09-6.65a1.87 1.87 0 0 1-0.82-1.77l1.44-12-11.85 2.44a1.86 1.86 0 0 1-1.82-0.68l-7.47-9.51-6.66 10.08a1.82 1.82 0 0 1-0.54 0.53 1.75 1.75 0 0 1-1.24 0.28l-12-1.44 2.42 11.85a1.89 1.89 0 0 1-0.67 1.84l-9.52 7.47 10.1 6.67a1.85 1.85 0 0 1 0.82 1.77l-1.44 12 11.84-2.41a1.83 1.83 0 0 1 1.83 0.66l7.47 9.51 6.67-10.1a1.72 1.72 0 0 1 0.53-0.52z"/>
     <path class="snow-cls-5" d="m180.31 257.53-0.27 0.15-80.28 37.18a2.06 2.06 0 0 1-1.58 0.08 2.1 2.1 0 0 1-1.18-1.09 2.05 2.05 0 0 1 0.74-2.58 1.65 1.65 0 0 1 0.25-0.15l80.29-37.2a2.07 2.07 0 0 1 2 3.61z"/>
     <path class="snow-cls-5" d="m175.68 266.82-0.27 0.14a2.08 2.08 0 0 1-2.74-1l-5.45-11.76a2.06 2.06 0 0 1 0.75-2.58 1.5 1.5 0 0 1 0.25-0.15 2.08 2.08 0 0 1 2.75 1l5.45 11.76a2.09 2.09 0 0 1-0.74 2.59z"/>
     <path class="snow-cls-5" d="m110.1 297.18a1.43 1.43 0 0 1-0.27 0.15 2.06 2.06 0 0 1-2.74-1l-5.45-11.78a2.07 2.07 0 0 1 0.74-2.58 1.84 1.84 0 0 1 0.28-0.15 2.06 2.06 0 0 1 2.73 1l5.44 11.76a2.07 2.07 0 0 1-0.73 2.6z"/>
     <path class="snow-cls-5" d="m158.76 316.26a1.38 1.38 0 0 1-0.27 0.14 2 2 0 0 1-2.73-1l-37.2-80.29a2.09 2.09 0 0 1 0.74-2.6l0.27-0.15a2 2 0 0 1 1.57-0.05 2 2 0 0 1 1.16 1.07l37.2 80.29a2.07 2.07 0 0 1-0.74 2.59z"/>
     <path class="snow-cls-5" d="m161.24 306.18-0.28 0.16-11.75 5.44a1.93 1.93 0 0 1-1.58 0.05 2 2 0 0 1-1.16-1.06 2.07 2.07 0 0 1 0.74-2.58 1.35 1.35 0 0 1 0.26-0.15l11.76-5.46a2.08 2.08 0 0 1 1.59-0.05 2.06 2.06 0 0 1 0.42 3.65z"/>
     <path class="snow-cls-5" d="m130.85 240.59a1.17 1.17 0 0 1-0.26 0.17l-11.76 5.43a2.05 2.05 0 0 1-2-3.57 1.67 1.67 0 0 1 0.26-0.17l11.76-5.45a2.05 2.05 0 0 1 2 3.57z"/>
     <path class="snow-cls-5" d="m124.94 317.66c-0.1 0-0.19 0.11-0.28 0.14a2 2 0 0 1-1.58 0.06 2 2 0 0 1-1.22-2.63l30.47-83.08a2 2 0 0 1 0.8-1 2.09 2.09 0 0 1 3 0.87 2.05 2.05 0 0 1 0.07 1.56l-30.48 83.07a2 2 0 0 1-0.78 1.01z"/>
     <path class="snow-cls-5" d="m133.8 312.28a1.15 1.15 0 0 1-0.27 0.14 2.13 2.13 0 0 1-1.57 0.08l-12.16-4.5a2.09 2.09 0 0 1-1.17-1.07 2.14 2.14 0 0 1-0.07-1.59 2.22 2.22 0 0 1 0.81-1 2.1 2.1 0 0 1 1.84-0.2l12.17 4.48a2 2 0 0 1 1.16 1.05 2 2 0 0 1 0.06 1.58 1.93 1.93 0 0 1-0.8 1.03z"/>
     <path class="snow-cls-5" d="m158.69 244.43a1.74 1.74 0 0 1-0.27 0.14 2.16 2.16 0 0 1-1.58 0.08l-12.16-4.46a2.09 2.09 0 0 1-0.42-3.69 2.11 2.11 0 0 1 1.85-0.2l12.16 4.48a2 2 0 0 1 1.16 1.07 2.06 2.06 0 0 1 0.07 1.56 2 2 0 0 1-0.81 1.02z"/>
     <path class="snow-cls-5" d="m181.69 291.36c-0.08 0.06-0.16 0.09-0.25 0.15a2 2 0 0 1-1.59 0.05l-83.07-30.48a2 2 0 0 1-1.16-1.08 2.07 2.07 0 0 1 2.58-2.81l83.07 30.48a2.07 2.07 0 0 1 1.16 1.07 2 2 0 0 1-0.74 2.6z"/>
     <path class="snow-cls-5" d="m104 269.76a1.65 1.65 0 0 1-0.25 0.15 2 2 0 0 1-1.59 0.06 2.07 2.07 0 0 1-1.16-1.07 2 2 0 0 1-0.06-1.59l4.45-12.16a2.07 2.07 0 0 1 0.81-1 2 2 0 0 1 1.84-0.23 2.06 2.06 0 0 1 1.23 2.66l-4.47 12.16a2.09 2.09 0 0 1-0.8 1.02z"/>
     <path class="snow-cls-5" d="m171.85 294.66a1.65 1.65 0 0 0-0.25 0.15 2.11 2.11 0 0 1-1.58 0.05 2.05 2.05 0 0 1-1.17-1.07 2 2 0 0 1-0.06-1.56l4.46-12.18a2 2 0 0 1 0.81-1 2 2 0 0 1 1.84-0.22 2.1 2.1 0 0 1 1.16 1.09 2 2 0 0 1 0.06 1.57l-4.46 12.16a2.07 2.07 0 0 1-0.81 1.01z"/>
     <path class="snow-cls-5" d="m150.4 298.31a0.88 0.88 0 0 1-0.24 0.11 1.81 1.81 0 0 1-1.69-0.06l-8.65-4.86-8.23 5.56a1.87 1.87 0 0 1-1.68 0.21 1.85 1.85 0 0 1-1.15-1.24l-2.68-9.56-9.76-1.9a1.87 1.87 0 0 1-1.33-1 1.84 1.84 0 0 1 0.07-1.68l4.86-8.68-5.56-8.24a1.83 1.83 0 0 1-0.2-1.67 1.85 1.85 0 0 1 0.72-0.91 2.15 2.15 0 0 1 0.51-0.24l9.57-2.67 1.89-9.76a1.9 1.9 0 0 1 0.81-1.2 1 1 0 0 1 0.23-0.13 1.89 1.89 0 0 1 1.69 0l8.66 4.89 8.24-5.57a1.86 1.86 0 0 1 2.82 1l2.68 9.59 9.76 1.88a1.81 1.81 0 0 1 1.32 1 1.86 1.86 0 0 1-0.06 1.82l-4.88 8.67 5.42 8a1.77 1.77 0 0 1 0.31 0.46 1.84 1.84 0 0 1-0.66 2.32 1.4 1.4 0 0 1-0.24 0.15h-0.06l-0.24 0.09-9.57 2.67-1.88 9.77a2 2 0 0 1-0.8 1.18zm-11.71-8.52a0.91 0.91 0 0 1 0.25-0.14 1.92 1.92 0 0 1 1.7 0.05l7.41 4.19 1.63-8.37a1.8 1.8 0 0 1 0.8-1.2 2.4 2.4 0 0 1 0.51-0.24l8.2-2.28-4.77-7.06a1.84 1.84 0 0 1-0.07-1.94l4.16-7.42-8.35-1.62a1.84 1.84 0 0 1-1.43-1.33l-2.31-8.2-7 4.77a1.86 1.86 0 0 1-1.94 0.09l-7.48-4.18-1.62 8.37a1.89 1.89 0 0 1-0.79 1.2 2 2 0 0 1-0.52 0.22l-8.2 2.3 4.78 7.06a1.87 1.87 0 0 1 0.07 1.95l-4.17 7.41 8.35 1.58a1.85 1.85 0 0 1 1.44 1.33l2.3 8.18 7.05-4.76z"/>
     <path class="snow-cls-5" d="m164 298a0.92 0.92 0 0 1-0.24 0.13 1.69 1.69 0 0 1-1 0.15l-13.43-1.61-7.41 11.33a2 2 0 0 1-0.54 0.54 1.71 1.71 0 0 1-0.94 0.29 1.87 1.87 0 0 1-1.53-0.7l-8.35-10.63-13.23 2.71a2 2 0 0 1-1.64-0.44 1.87 1.87 0 0 1-0.58-1.59l1.61-13.41-11.28-7.47a1.85 1.85 0 0 1-0.12-3l10.62-8.35-2.7-13.25a1.81 1.81 0 0 1 0.46-1.62 1.68 1.68 0 0 1 0.35-0.3 1.83 1.83 0 0 1 1.23-0.29l13.42 1.62 7.44-11.28a1.88 1.88 0 0 1 1.48-0.83 1.86 1.86 0 0 1 1.53 0.7l8.35 10.64 13.24-2.71a1.84 1.84 0 0 1 2.21 2l-1.61 13.42 11.28 7.44a1.91 1.91 0 0 1 0.84 1.48 1.85 1.85 0 0 1-0.72 1.53l-10.63 8.35 2.71 13.23a1.89 1.89 0 0 1-0.45 1.64 3.17 3.17 0 0 1-0.37 0.28zm-16.58-4.84a1.74 1.74 0 0 1 1.23-0.3l12 1.44-2.42-11.83a1.88 1.88 0 0 1 0.68-1.85l9.51-7.48-10.09-6.65a1.88 1.88 0 0 1-0.83-1.77l1.44-12-11.84 2.44a1.89 1.89 0 0 1-1.83-0.68l-7.44-9.48-6.67 10.08a1.71 1.71 0 0 1-0.54 0.53 1.73 1.73 0 0 1-1.23 0.28l-12-1.44 2.43 11.85a1.87 1.87 0 0 1-0.68 1.84l-9.51 7.47 10.1 6.67a1.8 1.8 0 0 1 0.81 1.77l-1.43 12 11.84-2.41a1.83 1.83 0 0 1 1.83 0.66l7.47 9.51 6.66-10.1a1.65 1.65 0 0 1 0.53-0.52z"/>
    </g>
    <g filter="url(#filter742)">
     <path class="snow-cls-4" d="m260.52 321.91a1 1 0 0 1-0.2 0.13l-61.66 28.55a1.54 1.54 0 0 1-1.21 0.05 1.52 1.52 0 0 1-0.89-0.81 1.6 1.6 0 0 1 0.56-2 1.76 1.76 0 0 1 0.2-0.09l61.68-28.59a1.6 1.6 0 0 1 2.1 0.77 1.58 1.58 0 0 1-0.58 1.99z"/>
     <path class="snow-cls-4" d="m257 329.05a0.66 0.66 0 0 1-0.2 0.11 1.59 1.59 0 0 1-2.11-0.78l-4.18-9a1.6 1.6 0 0 1 0.57-2l0.2-0.11a1.59 1.59 0 0 1 2.11 0.78l4.18 9a1.58 1.58 0 0 1-0.57 2z"/>
     <path class="snow-cls-4" d="m206.6 352.38-0.2 0.11a1.59 1.59 0 0 1-2.11-0.78l-4.19-9a1.58 1.58 0 0 1 0.58-2 1 1 0 0 1 0.2-0.13 1.58 1.58 0 0 1 2.1 0.78l4.18 9a1.59 1.59 0 0 1-0.56 2.02z"/>
     <path class="snow-cls-4" d="m244 367a0.88 0.88 0 0 1-0.21 0.12 1.56 1.56 0 0 1-1.2 0 1.6 1.6 0 0 1-0.9-0.83l-28.59-61.57a1.59 1.59 0 0 1 0.57-2 1.37 1.37 0 0 1 0.2-0.13 1.76 1.76 0 0 1 1.22-0.05 1.64 1.64 0 0 1 0.89 0.83l28.55 61.63a1.58 1.58 0 0 1-0.53 2z"/>
     <path class="snow-cls-4" d="m245.88 359.29c-0.08 0-0.14 0.09-0.21 0.11l-9 4.18a1.6 1.6 0 0 1-2.11-0.77 1.6 1.6 0 0 1 0.57-2l0.2-0.12 9-4.18a1.61 1.61 0 0 1 1.22 0 1.5 1.5 0 0 1 0.89 0.82 1.61 1.61 0 0 1-0.56 1.96z"/>
     <path class="snow-cls-4" d="m222.54 308.92-0.21 0.11-9 4.19a1.57 1.57 0 0 1-1.22 0 1.61 1.61 0 0 1-0.89-0.81 1.59 1.59 0 0 1 0.57-2 0.56 0.56 0 0 1 0.2-0.11l9-4.2a1.61 1.61 0 0 1 1.22 0 1.56 1.56 0 0 1 0.88 0.81 1.58 1.58 0 0 1-0.55 2.01z"/>
     <path class="snow-cls-4" d="m218 368.09a0.81 0.81 0 0 1-0.2 0.11 1.5 1.5 0 0 1-1.21 0.06 1.57 1.57 0 0 1-0.9-0.83 1.52 1.52 0 0 1 0-1.2l23.31-63.79a1.59 1.59 0 0 1 2-0.94 1.42 1.42 0 0 1 0.88 0.83 1.45 1.45 0 0 1 0.06 1.19l-23.4 63.8a1.62 1.62 0 0 1-0.54 0.77z"/>
     <path class="snow-cls-4" d="m224.81 364-0.22 0.11a1.52 1.52 0 0 1-1.2 0.05l-9.39-3.46a1.58 1.58 0 0 1-0.94-2 1.61 1.61 0 0 1 2-1l9.35 3.43a1.6 1.6 0 0 1 0.94 2 1.69 1.69 0 0 1-0.54 0.87z"/>
     <path class="snow-cls-4" d="m243.92 311.85a1.2 1.2 0 0 1-0.21 0.13 1.48 1.48 0 0 1-1.2 0l-9.35-3.43a1.58 1.58 0 0 1-0.94-2 1.46 1.46 0 0 1 0.61-0.77 1.59 1.59 0 0 1 1.42-0.17l9.34 3.43a1.6 1.6 0 0 1 0.9 0.81 1.6 1.6 0 0 1-0.57 2z"/>
     <path class="snow-cls-4" d="m261.59 347.9a2.12 2.12 0 0 1-0.21 0.11 1.54 1.54 0 0 1-1.21 0.05l-63.8-23.4a1.64 1.64 0 0 1-0.89-0.81 1.57 1.57 0 0 1 0-1.22 1.42 1.42 0 0 1 0.61-0.77 1.5 1.5 0 0 1 1.42-0.17l63.8 23.39a1.64 1.64 0 0 1 0.94 2 1.71 1.71 0 0 1-0.66 0.82z"/>
     <path class="snow-cls-4" d="m201.92 331.31a0.5 0.5 0 0 1-0.2 0.11 1.5 1.5 0 0 1-1.21 0.06 1.55 1.55 0 0 1-0.89-0.81 1.62 1.62 0 0 1-0.06-1.22l3.43-9.34a1.61 1.61 0 0 1 0.62-0.79 1.57 1.57 0 0 1 1.41-0.17 1.78 1.78 0 0 1 0.9 0.83 1.61 1.61 0 0 1 0 1.22l-3.42 9.34a1.62 1.62 0 0 1-0.58 0.77z"/>
     <path class="snow-cls-4" d="m254 350.42a0.69 0.69 0 0 1-0.2 0.13 1.54 1.54 0 0 1-1.21 0 1.51 1.51 0 0 1-0.89-0.83 1.61 1.61 0 0 1-0.05-1.2l3.43-9.34a1.54 1.54 0 0 1 0.62-0.78 1.62 1.62 0 0 1 1.42-0.18 1.66 1.66 0 0 1 0.88 0.85 1.48 1.48 0 0 1 0.05 1.2l-3.42 9.34a1.45 1.45 0 0 1-0.63 0.81z"/>
     <path class="snow-cls-4" d="m237.56 353.24-0.19 0.09a1.39 1.39 0 0 1-1.3-0.05l-6.65-3.74-6.32 4.27a1.45 1.45 0 0 1-1.29 0.17 1.5 1.5 0 0 1-0.88-1l-2.06-7.35-7.49-1.44a1.43 1.43 0 0 1-1-2.1l3.75-6.65-4.27-6.32a1.41 1.41 0 0 1-0.17-1.29 1.37 1.37 0 0 1 0.57-0.7 1.41 1.41 0 0 1 0.39-0.19l7.35-2.06 1.45-7.48a1.53 1.53 0 0 1 0.61-0.92l0.18-0.12a1.48 1.48 0 0 1 1.3 0.06l6.66 3.74 6.33-4.27a1.43 1.43 0 0 1 1.29-0.15 1.39 1.39 0 0 1 0.86 1l2.07 7.33 7.5 1.46a1.43 1.43 0 0 1 1 0.79 1.44 1.44 0 0 1-0.06 1.31l-3.74 6.65 4.17 6.15a1.36 1.36 0 0 1 0.24 0.35 1.44 1.44 0 0 1-0.51 1.79l-0.17 0.11h-0.06a0.64 0.64 0 0 1-0.18 0.06l-7.35 2.06-1.45 7.5a1.48 1.48 0 0 1-0.58 0.94zm-9-6.54a1.3 1.3 0 0 1 0.19-0.11 1.39 1.39 0 0 1 1.3 0l5.7 3.2 1.24-6.41a1.44 1.44 0 0 1 1-1.11l6.28-1.75-3.64-5.41a1.43 1.43 0 0 1-0.08-1.5l3.21-5.71-6.42-1.23a1.42 1.42 0 0 1-1.09-1l-1.77-6.3-5.42 3.67a1.47 1.47 0 0 1-1.5 0.05l-5.69-3.19-1.24 6.42a1.43 1.43 0 0 1-0.62 0.92 1.34 1.34 0 0 1-0.39 0.16l-6.3 1.77 3.66 5.42a1.44 1.44 0 0 1 0.06 1.51l-3.2 5.68 6.41 1.25a1.46 1.46 0 0 1 1.11 1l1.76 6.29 5.42-3.65z"/>
     <path class="snow-cls-4" d="m248 353c-0.07 0-0.13 0-0.19 0.09a1.36 1.36 0 0 1-0.77 0.11l-10.28-1.2-5.76 8.67a1.52 1.52 0 0 1-0.4 0.4 1.25 1.25 0 0 1-0.72 0.22 1.39 1.39 0 0 1-1.19-0.51l-6.4-8.18-10.17 2.08a1.44 1.44 0 0 1-1.26-0.35 1.42 1.42 0 0 1-0.44-1.2l1.24-10.32-8.66-5.73a1.42 1.42 0 0 1-0.09-2.3l8.16-6.42-2.07-10.15a1.43 1.43 0 0 1 0.34-1.25 1.35 1.35 0 0 1 0.28-0.22 1.38 1.38 0 0 1 0.94-0.24l10.31 1.25 5.72-8.68a1.39 1.39 0 0 1 0.41-0.39 1.35 1.35 0 0 1 0.72-0.24 1.43 1.43 0 0 1 1.18 0.56l6.41 8.14 10.17-2.06a1.46 1.46 0 0 1 1.25 0.33 1.48 1.48 0 0 1 0.46 1.22l-1.19 10.31 8.66 5.72a1.38 1.38 0 0 1 0.64 1.14 1.47 1.47 0 0 1-0.54 1.18l-8.17 6.41 2.08 10.16a1.36 1.36 0 0 1-0.35 1.25 1.9 1.9 0 0 1-0.32 0.2zm-12.75-3.74a1.39 1.39 0 0 1 0.95-0.22l9.23 1.1-1.87-9.08a1.37 1.37 0 0 1 0.52-1.4l7.3-5.75-7.75-5.13a1.43 1.43 0 0 1-0.63-1.34l1.11-9.23-9.1 1.88a1.52 1.52 0 0 1-1.41-0.52l-5.73-7.32-5.12 7.76a1.27 1.27 0 0 1-0.41 0.39 1.31 1.31 0 0 1-0.94 0.24l-9.23-1.11 1.86 9.09a1.43 1.43 0 0 1-0.51 1.42l-7.3 5.71 7.75 5.12a1.47 1.47 0 0 1 0.63 1.37l-1.11 9.21 9.09-1.84a1.37 1.37 0 0 1 1.4 0.51l5.74 7.3 5.13-7.76a1.52 1.52 0 0 1 0.42-0.36z"/>
     <path class="snow-cls-5" d="m261.32 321.91a0.63 0.63 0 0 1-0.2 0.13l-61.66 28.55a1.54 1.54 0 0 1-1.21 0.05 1.58 1.58 0 0 1-0.89-0.81 1.6 1.6 0 0 1 0.57-2 1.21 1.21 0 0 1 0.2-0.09l61.65-28.58a1.61 1.61 0 0 1 2.11 0.77 1.59 1.59 0 0 1-0.57 1.98z"/>
     <path class="snow-cls-5" d="m257.76 329.05a0.49 0.49 0 0 1-0.2 0.11 1.58 1.58 0 0 1-2.1-0.78l-4.18-9a1.6 1.6 0 0 1 0.56-2l0.21-0.11a1.58 1.58 0 0 1 2.1 0.78l4.19 9a1.59 1.59 0 0 1-0.58 2z"/>
     <path class="snow-cls-5" d="m207.4 352.38-0.2 0.11a1.58 1.58 0 0 1-2.1-0.78l-4.19-9a1.56 1.56 0 0 1 0.57-2 1.07 1.07 0 0 1 0.21-0.13 1.58 1.58 0 0 1 2.1 0.78l4.18 9a1.58 1.58 0 0 1-0.57 2.02z"/>
     <path class="snow-cls-5" d="m244.77 367a0.82 0.82 0 0 1-0.2 0.12 1.61 1.61 0 0 1-1.22 0 1.56 1.56 0 0 1-0.88-0.83l-28.56-61.64a1.57 1.57 0 0 1 0.56-2 1.48 1.48 0 0 1 0.21-0.13 1.74 1.74 0 0 1 1.21-0.05 1.64 1.64 0 0 1 0.89 0.83l28.56 61.7a1.59 1.59 0 0 1-0.57 2z"/>
     <path class="snow-cls-5" d="m246.67 359.29a1 1 0 0 1-0.2 0.11l-9 4.18a1.57 1.57 0 0 1-2.1-0.77 1.59 1.59 0 0 1 0.56-2l0.2-0.12 9-4.18a1.61 1.61 0 0 1 1.22 0 1.53 1.53 0 0 1 0.89 0.82 1.6 1.6 0 0 1-0.57 1.96z"/>
     <path class="snow-cls-5" d="m223.34 308.92-0.2 0.11-9 4.19a1.57 1.57 0 0 1-1.22 0 1.63 1.63 0 0 1-0.88-0.81 1.59 1.59 0 0 1 0.56-2 0.56 0.56 0 0 1 0.2-0.11l9-4.2a1.58 1.58 0 0 1 1.21 0 1.61 1.61 0 0 1 0.89 0.81 1.57 1.57 0 0 1-0.56 2.01z"/>
     <path class="snow-cls-5" d="m218.8 368.09a0.71 0.71 0 0 1-0.21 0.11 1.55 1.55 0 0 1-2.1-0.77 1.48 1.48 0 0 1-0.06-1.2l23.4-63.79a1.55 1.55 0 0 1 0.62-0.78 1.59 1.59 0 0 1 2.31 0.67 1.53 1.53 0 0 1 0.05 1.19l-23.4 63.8a1.6 1.6 0 0 1-0.61 0.77z"/>
     <path class="snow-cls-5" d="m225.61 364a2.12 2.12 0 0 0-0.21 0.11 1.54 1.54 0 0 1-1.21 0.05l-9.34-3.43a1.61 1.61 0 0 1-0.9-0.82 1.56 1.56 0 0 1 0-1.2 1.53 1.53 0 0 1 0.61-0.78 1.54 1.54 0 0 1 1.41-0.18l9.35 3.43a1.55 1.55 0 0 1 0.89 0.83 1.57 1.57 0 0 1-0.56 2z"/>
     <path class="snow-cls-5" d="m244.72 311.85a0.92 0.92 0 0 1-0.21 0.13 1.5 1.5 0 0 1-1.21 0l-9.3-3.39a1.58 1.58 0 0 1-0.95-2 1.53 1.53 0 0 1 0.62-0.77 1.59 1.59 0 0 1 1.42-0.17l9.34 3.43a1.64 1.64 0 0 1 0.89 0.81 1.57 1.57 0 0 1 0 1.22 1.49 1.49 0 0 1-0.6 0.74z"/>
     <path class="snow-cls-5" d="m262.39 347.9a2 2 0 0 1-0.2 0.11 1.57 1.57 0 0 1-1.22 0.05l-63.8-23.4a1.59 1.59 0 0 1-0.94-2 1.55 1.55 0 0 1 0.63-0.77 1.48 1.48 0 0 1 1.41-0.17l63.8 23.39a1.58 1.58 0 0 1 0.89 0.85 1.53 1.53 0 0 1 0.05 1.19 1.59 1.59 0 0 1-0.62 0.75z"/>
     <path class="snow-cls-5" d="m202.72 331.31a0.44 0.44 0 0 1-0.2 0.11 1.5 1.5 0 0 1-1.21 0.06 1.59 1.59 0 0 1-0.95-2l3.43-9.34a1.61 1.61 0 0 1 2-1 1.76 1.76 0 0 1 0.89 0.83 1.66 1.66 0 0 1 0.05 1.22l-3.43 9.34a1.51 1.51 0 0 1-0.58 0.78z"/>
     <path class="snow-cls-5" d="m254.83 350.42a1.13 1.13 0 0 1-0.2 0.13 1.54 1.54 0 0 1-1.21 0 1.5 1.5 0 0 1-0.9-0.83 1.56 1.56 0 0 1 0-1.2l3.42-9.34a1.61 1.61 0 0 1 2-1 1.67 1.67 0 0 1 0.9 0.85 1.48 1.48 0 0 1 0 1.2l-3.43 9.34a1.46 1.46 0 0 1-0.58 0.85z"/>
     <path class="snow-cls-5" d="m238.36 353.24-0.18 0.09a1.39 1.39 0 0 1-1.3-0.05l-6.65-3.74-6.33 4.27a1.4 1.4 0 0 1-2.16-0.79l-2.07-7.35-7.49-1.44a1.42 1.42 0 0 1-1-0.81 1.4 1.4 0 0 1 0.06-1.29l3.73-6.65-4.27-6.32a1.4 1.4 0 0 1-0.15-1.29 1.33 1.33 0 0 1 0.55-0.7 1.56 1.56 0 0 1 0.39-0.19l7.36-2.06 1.44-7.48a1.5 1.5 0 0 1 0.62-0.92l0.18-0.12a1.46 1.46 0 0 1 1.29 0.06l6.62 3.74 6.33-4.27a1.42 1.42 0 0 1 1.28-0.15 1.44 1.44 0 0 1 0.88 1l2.06 7.33 7.49 1.46a1.46 1.46 0 0 1 1 0.79 1.47 1.47 0 0 1-0.06 1.31l-3.74 6.65 4.17 6.15a2.16 2.16 0 0 1 0.24 0.35 1.43 1.43 0 0 1-0.52 1.79l-0.18 0.11h-0.05a0.7 0.7 0 0 1-0.17 0.06l-7.36 2.06-1.45 7.5a1.48 1.48 0 0 1-0.56 0.9zm-9-6.54a0.78 0.78 0 0 1 0.2-0.11 1.39 1.39 0 0 1 1.3 0l5.69 3.2 1.25-6.41a1.36 1.36 0 0 1 0.62-0.92 1.23 1.23 0 0 1 0.38-0.19l6.3-1.75-3.66-5.41a1.45 1.45 0 0 1-0.06-1.5l3.21-5.71-6.42-1.23a1.42 1.42 0 0 1-1.1-1l-1.77-6.3-5.42 3.67a1.45 1.45 0 0 1-1.49 0.05l-5.69-3.19-1.26 6.42a1.43 1.43 0 0 1-0.6 0.92 1.52 1.52 0 0 1-0.4 0.16l-6.3 1.77 3.66 5.42a1.44 1.44 0 0 1 0.07 1.51l-3.21 5.68 6.41 1.25a1.46 1.46 0 0 1 1.11 1l1.77 6.29 5.41-3.65z"/>
     <path class="snow-cls-5" d="m248.82 353-0.19 0.09a1.33 1.33 0 0 1-0.76 0.11l-10.31-1.2-5.72 8.66a1.42 1.42 0 0 1-0.41 0.4 1.22 1.22 0 0 1-0.72 0.22 1.36 1.36 0 0 1-1.18-0.51l-6.41-8.18-10.12 2.09a1.47 1.47 0 0 1-1.26-0.35 1.42 1.42 0 0 1-0.44-1.2l1.24-10.32-8.66-5.73a1.37 1.37 0 0 1-0.64-1.12 1.4 1.4 0 0 1 0.54-1.18l8.17-6.42-2.08-10.15a1.38 1.38 0 0 1 0.35-1.25 0.78 0.78 0 0 1 0.26-0.22 1.4 1.4 0 0 1 0.95-0.24l10.3 1.25 5.72-8.68a1.68 1.68 0 0 1 0.41-0.39 1.35 1.35 0 0 1 0.73-0.24 1.46 1.46 0 0 1 1.18 0.56l6.41 8.14 10.16-2.06a1.41 1.41 0 0 1 1.71 1.55l-1.24 10.31 8.66 5.72a1.42 1.42 0 0 1 0.63 1.14 1.46 1.46 0 0 1-0.53 1.18l-8.17 6.41 2.08 10.16a1.42 1.42 0 0 1-0.35 1.25 3 3 0 0 1-0.31 0.2zm-12.75-3.74a1.42 1.42 0 0 1 1-0.22l9.22 1.1-1.86-9.08a1.41 1.41 0 0 1 0.51-1.4l7.3-5.75-7.74-5.13a1.42 1.42 0 0 1-0.64-1.34l1.11-9.23-9.09 1.88a1.5 1.5 0 0 1-1.41-0.52l-5.74-7.32-5.12 7.76a1.35 1.35 0 0 1-0.4 0.39 1.36 1.36 0 0 1-0.95 0.24l-9.26-1.07 1.87 9.09a1.43 1.43 0 0 1-0.51 1.42l-7.36 5.71 7.75 5.12a1.47 1.47 0 0 1 0.63 1.37l-1.11 9.21 9.1-1.84a1.4 1.4 0 0 1 1.41 0.51l5.74 7.3 5.11-7.76a1.52 1.52 0 0 1 0.44-0.4z"/>
    </g>
    <g filter="url(#filter730)">
     <path class="snow-cls-4" d="m370.2 252.9a1.78 1.78 0 0 1-0.3 0.17l-90.9 42.11a2.46 2.46 0 0 1-1.79 0.07 2.35 2.35 0 0 1-0.48-4.17 1.64 1.64 0 0 1 0.3-0.14l90.87-42.11a2.35 2.35 0 0 1 3.1 1.17 2.33 2.33 0 0 1-0.8 2.9z"/>
     <path class="snow-cls-4" d="m365 263.41a1.57 1.57 0 0 1-0.31 0.18 2.34 2.34 0 0 1-3.1-1.14l-6.16-13.31a2.39 2.39 0 0 1 0.83-2.95 2.12 2.12 0 0 1 0.31-0.14 2.32 2.32 0 0 1 3.1 1.12l6.17 13.31a2.35 2.35 0 0 1-0.84 2.93z"/>
     <path class="snow-cls-4" d="m290.73 297.79a1.89 1.89 0 0 1-0.3 0.19 2.36 2.36 0 0 1-3.11-1.15l-6.15-13.32a2.34 2.34 0 0 1 0.83-2.93l0.3-0.17a2.38 2.38 0 0 1 3.11 1.15l6.15 13.3a2.32 2.32 0 0 1-0.83 2.93z"/>
     <path class="snow-cls-4" d="m345.81 319.39-0.31 0.17a2.22 2.22 0 0 1-1.77 0.07 2.31 2.31 0 0 1-1.33-1.22l-42.09-90.86a2.35 2.35 0 0 1 0.83-2.93 1.19 1.19 0 0 1 0.31-0.17 2.29 2.29 0 0 1 1.78-0.07 2.25 2.25 0 0 1 1.32 1.21l42.09 90.87a2.34 2.34 0 0 1-0.83 2.93z"/>
     <path class="snow-cls-4" d="m348.61 308-0.3 0.17-13.31 6.13a2.21 2.21 0 0 1-1.78 0.08 2.29 2.29 0 0 1-1.32-1.2 2.35 2.35 0 0 1 0.84-2.93 1.22 1.22 0 0 1 0.29-0.17l13.32-6.17a2.34 2.34 0 0 1 3.09 1.14 2.34 2.34 0 0 1-0.83 2.95z"/>
     <path class="snow-cls-4" d="m314.23 233.76c-0.1 0.05-0.21 0.12-0.31 0.16l-13.3 6.16a2.46 2.46 0 0 1-1.79 0.09 2.34 2.34 0 0 1-0.49-4.15 3 3 0 0 1 0.32-0.18l13.3-6.16a2.36 2.36 0 0 1 1.79-0.07 2.28 2.28 0 0 1 1.31 1.22 2.35 2.35 0 0 1-0.83 2.93z"/>
     <path class="snow-cls-4" d="m307.52 321a1.24 1.24 0 0 1-0.3 0.16 2.21 2.21 0 0 1-1.78 0.08 2.29 2.29 0 0 1-1.39-3l34.48-94a2.19 2.19 0 0 1 0.91-1.14 2.29 2.29 0 0 1 2.09-0.26 2.33 2.33 0 0 1 1.39 3l-34.49 94a2.3 2.3 0 0 1-0.91 1.16z"/>
     <path class="snow-cls-4" d="m317.56 314.87a1.78 1.78 0 0 1-0.3 0.17 2.27 2.27 0 0 1-1.79 0.07l-13.76-5a2.36 2.36 0 0 1-1.32-1.22 2.27 2.27 0 0 1-0.08-1.77 2.34 2.34 0 0 1 0.92-1.16 2.29 2.29 0 0 1 2.08-0.24l13.77 5.05a2.45 2.45 0 0 1 1.32 1.21 2.27 2.27 0 0 1 0.07 1.79 2.18 2.18 0 0 1-0.91 1.1z"/>
     <path class="snow-cls-4" d="m345.72 238.09a2.72 2.72 0 0 1-0.3 0.16 2.36 2.36 0 0 1-1.77 0.08l-13.78-5.07a2.33 2.33 0 0 1-1.38-3 2.34 2.34 0 0 1 3-1.38l13.78 5.05a2.31 2.31 0 0 1 1.31 1.2 2.36 2.36 0 0 1 0.07 1.79 2.33 2.33 0 0 1-0.93 1.17z"/>
     <path class="snow-cls-4" d="m371.78 291.2-0.32 0.16a2.14 2.14 0 0 1-1.77 0.07l-94-34.47a2.34 2.34 0 0 1-1.31-1.22 2.33 2.33 0 0 1 2.92-3.17l94 34.48a2.27 2.27 0 0 1 1.32 1.22 2.29 2.29 0 0 1 0.07 1.78 2.39 2.39 0 0 1-0.91 1.15z"/>
     <path class="snow-cls-4" d="m283.84 266.76-0.3 0.17a2.36 2.36 0 0 1-1.79 0.05 2.31 2.31 0 0 1-1.39-3l5.05-13.79a2.41 2.41 0 0 1 0.91-1.14 2.25 2.25 0 0 1 2.09-0.22 2.29 2.29 0 0 1 1.38 3l-5.05 13.79a2.39 2.39 0 0 1-0.9 1.14z"/>
     <path class="snow-cls-4" d="m360.63 294.92a1.83 1.83 0 0 1-0.3 0.18 2.38 2.38 0 0 1-1.78 0.08 2.41 2.41 0 0 1-1.31-1.22 2.27 2.27 0 0 1-0.08-1.79l5-13.76a2.3315 2.3315 0 1 1 4.38 1.6l-5 13.76a2.37 2.37 0 0 1-0.91 1.15z"/>
     <path class="snow-cls-4" d="m336.36 299.06a1.17 1.17 0 0 1-0.28 0.13 2 2 0 0 1-1.91-0.07l-9.8-5.49-9.32 6.28a2.1 2.1 0 0 1-3.2-1.16l-3-10.84-11.05-2.13a2.12 2.12 0 0 1-1.5-1.18 2.06 2.06 0 0 1 0.08-1.9l5.51-9.8-6.3-9.33a2.13 2.13 0 0 1-0.24-1.9 2.07 2.07 0 0 1 0.83-1 1.88 1.88 0 0 1 0.58-0.26l10.83-3 2.13-11a2.13 2.13 0 0 1 0.92-1.37 2.2 2.2 0 0 1 0.26-0.15 2.1 2.1 0 0 1 1.92 0.08l9.8 5.51 9.33-6.3a2 2 0 0 1 1.9-0.23 2.18 2.18 0 0 1 1.29 1.39l3 10.85 11 2.12a2.16 2.16 0 0 1 1.51 1.18 2.13 2.13 0 0 1-0.08 1.92l-5.52 9.8 6.15 9.07a2.17 2.17 0 0 1 0.34 0.53 2.11 2.11 0 0 1-0.74 2.64 1.74 1.74 0 0 1-0.27 0.14h-0.08a1 1 0 0 1-0.26 0.09l-10.83 3-2.14 11a2.17 2.17 0 0 1-0.86 1.38zm-13.26-9.63a0.85 0.85 0 0 1 0.29-0.17 2.11 2.11 0 0 1 1.91 0.07l8.39 4.72 1.83-9.45a2.19 2.19 0 0 1 0.91-1.37 2.12 2.12 0 0 1 0.57-0.23l9.28-2.6-5.39-8a2.1 2.1 0 0 1-0.09-2.19l4.72-8.41-9.45-1.8a2.12 2.12 0 0 1-1.62-1.49l-2.6-9.29-8 5.4a2.12 2.12 0 0 1-2.21 0.09l-8.37-4.71-1.84 9.46a2.14 2.14 0 0 1-0.91 1.36 2.27 2.27 0 0 1-0.57 0.26l-9.29 2.6 5.4 8a2.1 2.1 0 0 1 0.1 2.2l-4.73 8.38 9.46 1.85a2.1 2.1 0 0 1 1.62 1.49l2.6 9.27 8-5.38z"/>
     <path class="snow-cls-4" d="m351.76 298.75-0.25 0.15a2.27 2.27 0 0 1-1.15 0.18l-15.18-1.84-8.43 12.76a2.32 2.32 0 0 1-0.6 0.61 2 2 0 0 1-1.07 0.33 2 2 0 0 1-1.73-0.79l-9.45-12-15 3.08a2.11 2.11 0 0 1-1.84-0.51 2.07 2.07 0 0 1-0.65-1.79l1.82-15.19-12.77-8.44a2.09 2.09 0 0 1-0.94-1.67 2.15 2.15 0 0 1 0.8-1.74l12-9.45-3.06-15a2.09 2.09 0 0 1 0.5-1.84 3.34 3.34 0 0 1 0.4-0.35 2.22 2.22 0 0 1 1.4-0.32l15.2 1.83 8.46-12.76a2 2 0 0 1 0.59-0.59 2.08 2.08 0 0 1 2.81 0.46l9.44 12 15-3.06a2.08 2.08 0 0 1 1.83 0.52 2.14 2.14 0 0 1 0.67 1.81l-1.83 15.18 12.77 8.42a2 2 0 0 1 0.93 1.68 2.07 2.07 0 0 1-0.8 1.73l-12 9.45 3.06 15a2.05 2.05 0 0 1-0.91 2.17zm-18.76-5.49a2.12 2.12 0 0 1 1.39-0.33l13.6 1.64-2.75-13.4a2.08 2.08 0 0 1 0.76-2.08l10.76-8.46-11.43-7.56a2.08 2.08 0 0 1-0.92-2l1.64-13.58-13.41 2.75a2.15 2.15 0 0 1-2.08-0.77l-8.45-10.77-7.54 11.43a2.32 2.32 0 0 1-0.6 0.61 2.15 2.15 0 0 1-1.4 0.31l-13.57-1.61 2.74 13.41a2.09 2.09 0 0 1-0.76 2.07l-10.76 8.44 11.42 7.55a2.05 2.05 0 0 1 0.92 2l-1.63 13.6 13.41-2.74a2.1 2.1 0 0 1 2.06 0.75l8.47 10.76 7.55-11.42a2.11 2.11 0 0 1 0.58-0.6z"/>
     <path class="snow-cls-5" d="m371.39 252.9a1.87 1.87 0 0 1-0.31 0.17l-90.87 42.11a2.46 2.46 0 0 1-1.79 0.07 2.35 2.35 0 0 1-0.48-4.17 2 2 0 0 1 0.3-0.14l90.88-42.11a2.34 2.34 0 0 1 2.27 4.07z"/>
     <path class="snow-cls-5" d="m366.14 263.41a1.83 1.83 0 0 1-0.3 0.18 2.32 2.32 0 0 1-3.09-1.14l-6.18-13.31a2.37 2.37 0 0 1 0.84-2.95 1.46 1.46 0 0 1 0.31-0.14 2.31 2.31 0 0 1 3.09 1.12l6.19 13.31a2.35 2.35 0 0 1-0.86 2.93z"/>
     <path class="snow-cls-5" d="m291.92 297.79a1.89 1.89 0 0 1-0.3 0.19 2.36 2.36 0 0 1-3.11-1.15l-6.16-13.32a2.34 2.34 0 0 1 0.84-2.93l0.3-0.17a2.36 2.36 0 0 1 3.1 1.15l6.16 13.3a2.34 2.34 0 0 1-0.83 2.93z"/>
     <path class="snow-cls-5" d="m347 319.39-0.3 0.17a2.25 2.25 0 0 1-1.78 0.07 2.29 2.29 0 0 1-1.32-1.22l-42.1-90.86a2.35 2.35 0 0 1 0.84-2.93 0.94 0.94 0 0 1 0.31-0.17 2.29 2.29 0 0 1 1.78-0.07 2.26 2.26 0 0 1 1.31 1.21l42.1 90.87a2.34 2.34 0 0 1-0.84 2.93z"/>
     <path class="snow-cls-5" d="m349.79 308-0.29 0.17-13.32 6.15a2.21 2.21 0 0 1-1.78 0.08 2.32 2.32 0 0 1-1.32-1.2 2.36 2.36 0 0 1 0.84-2.93 1.46 1.46 0 0 1 0.29-0.17l13.32-6.17a2.29 2.29 0 0 1 1.78-0.07 2.34 2.34 0 0 1 0.48 4.14z"/>
     <path class="snow-cls-5" d="m315.41 233.76c-0.1 0.05-0.2 0.12-0.3 0.16l-13.31 6.16a2.46 2.46 0 0 1-1.79 0.09 2.39 2.39 0 0 1-1.32-1.22 2.36 2.36 0 0 1 0.84-2.93c0.1-0.07 0.19-0.11 0.3-0.18l13.31-6.16a2.36 2.36 0 0 1 1.79-0.07 2.25 2.25 0 0 1 1.31 1.22 2.36 2.36 0 0 1-0.83 2.93z"/>
     <path class="snow-cls-5" d="m308.7 321a1.08 1.08 0 0 1-0.3 0.16 2.21 2.21 0 0 1-1.78 0.08 2.29 2.29 0 0 1-1.32-1.2 2.32 2.32 0 0 1-0.08-1.79l34.49-94a2.24 2.24 0 0 1 0.91-1.14 2.3 2.3 0 0 1 3.4 1 2.27 2.27 0 0 1 0.08 1.77l-34.49 94a2.3 2.3 0 0 1-0.91 1.12z"/>
     <path class="snow-cls-5" d="m318.74 314.87a1.69 1.69 0 0 1-0.29 0.17 2.27 2.27 0 0 1-1.79 0.07l-13.78-5a2.34 2.34 0 0 1-0.47-4.15 2.32 2.32 0 0 1 2.09-0.24l13.76 5.05a2.41 2.41 0 0 1 1.32 1.21 2.27 2.27 0 0 1 0.07 1.79 2.18 2.18 0 0 1-0.91 1.1z"/>
     <path class="snow-cls-5" d="m346.91 238.09a2.94 2.94 0 0 1-0.31 0.16 2.35 2.35 0 0 1-1.77 0.08l-13.77-5.07a2.33 2.33 0 0 1-1.39-3 2.34 2.34 0 0 1 3-1.38l13.77 5.05a2.33 2.33 0 0 1 1.32 1.2 2.39 2.39 0 0 1-0.85 3z"/>
     <path class="snow-cls-5" d="m373 291.2-0.31 0.16a2.17 2.17 0 0 1-1.78 0.07l-94-34.47a2.36 2.36 0 0 1-1.32-1.22 2.32 2.32 0 0 1-0.07-1.79 2.34 2.34 0 0 1 3-1.38l94 34.48a2.36 2.36 0 0 1 1.39 3 2.35 2.35 0 0 1-0.91 1.15z"/>
     <path class="snow-cls-5" d="m285 266.76-0.3 0.17a2.34 2.34 0 0 1-1.78 0.05 2.31 2.31 0 0 1-1.39-3l5-13.79a2.43 2.43 0 0 1 0.92-1.14 2.23 2.23 0 0 1 2.08-0.22 2.26 2.26 0 0 1 1.32 1.2 2.29 2.29 0 0 1 0.06 1.78l-5.05 13.79a2.33 2.33 0 0 1-0.86 1.16z"/>
     <path class="snow-cls-5" d="m361.82 294.92-0.3 0.18a2.41 2.41 0 0 1-1.79 0.08 2.38 2.38 0 0 1-1.31-1.22 2.32 2.32 0 0 1-0.08-1.79l5.05-13.76a2.45 2.45 0 0 1 0.91-1.16 2.34 2.34 0 0 1 2.1-0.24 2.25 2.25 0 0 1 1.3 1.21 2.27 2.27 0 0 1 0.08 1.79l-5 13.76a2.41 2.41 0 0 1-0.96 1.15z"/>
     <path class="snow-cls-5" d="m337.54 299.06a1.11 1.11 0 0 1-0.27 0.13 2 2 0 0 1-1.92-0.07l-9.79-5.49-9.32 6.28a2.11 2.11 0 0 1-3.21-1.16l-3-10.84-11.03-2.13a2.13 2.13 0 0 1-1.51-1.18 2.06 2.06 0 0 1 0.08-1.9l5.51-9.8-6.3-9.33a2.1 2.1 0 0 1-0.22-1.9 2 2 0 0 1 1.39-1.29l10.83-3 2.14-11a2.08 2.08 0 0 1 0.91-1.37c0.09-0.05 0.17-0.11 0.26-0.15a2.1 2.1 0 0 1 1.92 0.08l9.8 5.51 9.33-6.3a2 2 0 0 1 1.89-0.23 2.08 2.08 0 0 1 1.29 1.39l3.05 10.85 11 2.12a2.11 2.11 0 0 1 1.44 3.1l-5.52 9.8 6.14 9.07a2.21 2.21 0 0 1 0.35 0.53 2.11 2.11 0 0 1-0.75 2.64 1.38 1.38 0 0 1-0.27 0.14h-0.08a0.88 0.88 0 0 1-0.26 0.09l-10.83 3-2.14 11a2.17 2.17 0 0 1-0.91 1.41zm-13.26-9.63a1 1 0 0 1 0.29-0.17 2.11 2.11 0 0 1 1.91 0.07l8.4 4.72 1.83-9.45a2.14 2.14 0 0 1 0.9-1.37 2.18 2.18 0 0 1 0.59-0.25l9.28-2.6-5.4-8a2.1 2.1 0 0 1-0.08-2.19l4.72-8.41-9.46-1.78a2.13 2.13 0 0 1-1.63-1.49l-2.6-9.29-8 5.4a2.09 2.09 0 0 1-2.19 0.09l-8.4-4.72-1.84 9.46a2.09 2.09 0 0 1-0.9 1.36 2.51 2.51 0 0 1-0.58 0.26l-9.29 2.6 5.4 8a2.08 2.08 0 0 1 0.09 2.2l-4.72 8.38 9.46 1.85a2.1 2.1 0 0 1 1.62 1.49l2.6 9.27 8-5.38z"/>
     <path class="snow-cls-5" d="m353 298.75a1.74 1.74 0 0 1-0.26 0.15 2.25 2.25 0 0 1-1.14 0.18l-15.19-1.84-8.47 12.76a2.21 2.21 0 0 1-0.61 0.61 2 2 0 0 1-1.07 0.33 2.05 2.05 0 0 1-1.73-0.79l-9.46-12-15 3.08a2.09 2.09 0 0 1-2.5-2.3l1.82-15.19-12.77-8.44a2.08 2.08 0 0 1-0.93-1.67 2.12 2.12 0 0 1 0.8-1.74l12-9.45-3.07-15a2.09 2.09 0 0 1 0.51-1.84 3.34 3.34 0 0 1 0.4-0.35 2.19 2.19 0 0 1 1.39-0.32l15.28 1.82 8.4-12.75a2 2 0 0 1 0.59-0.59 2.22 2.22 0 0 1 1.07-0.35 2.12 2.12 0 0 1 1.74 0.81l9.45 12 15-3.06a2.13 2.13 0 0 1 1.85 0.52 2.17 2.17 0 0 1 0.67 1.81l-1.83 15.18 12.76 8.42a2.13 2.13 0 0 1 0.94 1.68 2.07 2.07 0 0 1-0.8 1.73l-12 9.45 3.05 15a2.1 2.1 0 0 1-0.5 1.84 2.41 2.41 0 0 1-0.39 0.31zm-18.78-5.49a2.2 2.2 0 0 1 1.41-0.33l13.59 1.64-2.75-13.4a2.1 2.1 0 0 1 0.76-2.08l10.77-8.46-11.43-7.56a2.09 2.09 0 0 1-0.93-2l1.64-13.58-13.41 2.75a2.14 2.14 0 0 1-2.07-0.77l-8.45-10.77-7.55 11.43a2.32 2.32 0 0 1-0.6 0.61 2.15 2.15 0 0 1-1.4 0.31l-13.59-1.62 2.74 13.41a2.07 2.07 0 0 1-0.75 2.07l-10.77 8.44 11.42 7.55a2.05 2.05 0 0 1 0.92 2l-1.62 13.6 13.4-2.74a2.11 2.11 0 0 1 2.07 0.75l8.38 10.76 7.55-11.42a2.36 2.36 0 0 1 0.62-0.59z"/>
    </g>
    <g filter="url(#filter682)">
     <g class="snow-cls-6">
      <path class="snow-cls-7" d="m344.52 218.66c18.44-32.28-0.36-76.31-9.25-99.27-6.7-17.32-28.95-40.92-46.34-49.62s-24-17.95-47.82-20.31c-30.99-3.11-72.11 20.54-97.31 27.31-27.19 7.23-73.8 29.54-99.16 57.33-29.64 32.51-30.33 58.32-22.35 77.27 8.53 20.19 22.7 31.29 31.44 39.19a123.3 123.3 0 0 0 29.17 20.05c20.61 9.9 38.48 9.38 53.87 10.45 11.68 0.83 41.78 3.26 72.15-3.06 21.53-4.5 41-7.74 52.08-11.17 23.45-7.29 68.13-21.23 83.52-48.17z"/>
     </g>
     <path class="snow-cls-4" d="m275.31 139.06a77.57 77.57 0 1 0-149.93-39.81h-2.36a48.3 48.3 0 0 0-40.49 21.94 37.56 37.56 0 1 0 9.67 63.62 48.32 48.32 0 0 0 64.45-2.55 77.54 77.54 0 0 0 84.56 2.14 29.27 29.27 0 1 0 34.1-45.29z"/>
     <path class="snow-cls-8" d="m276.42 140.18a77.57 77.57 0 1 0-149.93-39.8c-0.78 0-1.57-0.06-2.35-0.06a48.3 48.3 0 0 0-40.48 21.93 37.59 37.59 0 1 0 9.66 63.61 48.32 48.32 0 0 0 64.46-2.54 77.56 77.56 0 0 0 84.54 2.16 29.28 29.28 0 1 0 34.1-45.3z"/>
    </g>
    <g filter="url(#filter706)">
     <path class="snow-cls-4" d="m389.59 126.3c-0.85 0-1.7 0-2.53 0.11a33.22 33.22 0 0 0-43.53-19.86 32.21 32.21 0 0 0-60.2-1 28 28 0 0 0-4.88-0.42 28.31 28.31 0 0 0-28.17 25.32 30.59 30.59 0 0 0-6.32-0.63 31.95 31.95 0 0 0 0 63.89h0.83a29.44 29.44 0 0 0 53.88 8.16 40.4 40.4 0 0 0 71.83-4 38.35 38.35 0 1 0 19.09-71.61z"/>
     <path class="snow-cls-9" d="m390.9 127.63c-0.84 0-1.69 0-2.52 0.09a33.21 33.21 0 0 0-43.54-19.84 32.2 32.2 0 0 0-60.19-1 28 28 0 0 0-4.88-0.42 28.32 28.32 0 0 0-28.17 25.34 31.95 31.95 0 1 0-6.32 63.26h0.83a29.44 29.44 0 0 0 53.89 8.16 40.41 40.41 0 0 0 71.83-4 38.35 38.35 0 1 0 19.09-71.61z"/>
    </g>
    <g filter="url(#filter694)">
     <path class="snow-cls-4" d="m358.2 48.83a41.66 41.66 0 0 0-5.16 0.34 48.1 48.1 0 0 0-72-24.74 37.18 37.18 0 0 0-71.43 5.68 30.76 30.76 0 0 0-48.86 21h-0.24a44.29 44.29 0 1 0 21.49 83 31.89 31.89 0 0 0 60.25 9.1 54.24 54.24 0 0 0 96.43-13.67 42.71 42.71 0 1 0 19.52-80.71z"/>
     <path class="snow-cls-10" d="m359.49 50.05a44 44 0 0 0-5.16 0.31 48.09 48.09 0 0 0-72-24.73 37.2 37.2 0 0 0-71.44 5.68 30.75 30.75 0 0 0-48.89 20.99h-0.23a44.29 44.29 0 1 0 21.49 83 31.88 31.88 0 0 0 60.24 9.08 54.25 54.25 0 0 0 96.5-13.65 42.71 42.71 0 1 0 19.54-80.68z"/>
    </g>
    <g filter="url(#filter670)">
     <path class="snow-cls-4" d="m219.93 154a29 29 0 0 0-10.56 1.4 50.17 50.17 0 0 0-96.5-7 34.85 34.85 0 1 0 22.13 60.11 50.14 50.14 0 0 0 60.59-7.81 29 29 0 1 0 24.34-46.7z"/>
     <path class="snow-cls-11" d="m221.24 155.27a29.17 29.17 0 0 0-10.56 1.42 50.17 50.17 0 0 0-96.5-7 34.85 34.85 0 1 0 22.11 60.11 50.17 50.17 0 0 0 60.57-7.8 29 29 0 1 0 24.38-46.73z"/>
    </g>
   </g>
  </g>
 </g>
</svg>
