<?xml version="1.0" encoding="UTF-8"?>
<svg width="327.66" height="327.61" version="1.1" viewBox="0 0 327.66 327.61" xmlns="http://www.w3.org/2000/svg">
 <defs>
  <style>.snowflake-cls-1 {
        fill: #fff;
      }</style>
  <filter id="filter130" x="-.10907" y="-.10909" width="1.2409" height="1.2409" color-interpolation-filters="sRGB">
   <feFlood flood-color="rgb(0,0,0)" flood-opacity=".30196" result="flood"/>
   <feComposite in="flood" in2="SourceGraphic" operator="in" result="composite1"/>
   <feGaussianBlur in="composite1" result="blur" stdDeviation="12"/>
   <feOffset dx="6" dy="6" result="offset"/>
   <feComposite in="SourceGraphic" in2="offset" result="composite2"/>
  </filter>
 </defs>
 <g transform="translate(28.789 28.802)" data-name="Layer 2">
  <g id="_Layer_" filter="url(#filter130)" data-name="&lt;Layer&gt;">
   <path class="snowflake-cls-1" d="m225.89 46.22c-0.17 0.24-0.37 0.44-0.56 0.68l-178.27 178.56a5.91 5.91 0 0 1-8.32 0 5.93 5.93 0 0 1-0.56-7.68l0.56-0.65 178.26-178.58a5.89 5.89 0 0 1 8.9 7.67z"/>
   <path class="snowflake-cls-1" d="m222.64 75.63a3.4 3.4 0 0 1-0.59 0.66 5.84 5.84 0 0 1-8.29 0l-26.17-26.09a6 6 0 0 1-0.57-7.67 5 5 0 0 1 0.57-0.66 5.91 5.91 0 0 1 8.32 0l26.14 26.09a5.93 5.93 0 0 1 0.59 7.67z"/>
   <path class="snowflake-cls-1" d="m77.05 221.5c-0.19 0.22-0.35 0.44-0.57 0.67a5.89 5.89 0 0 1-8.33 0l-26.15-26.1a5.87 5.87 0 0 1-0.57-7.65 4.47 4.47 0 0 1 0.57-0.68 5.9 5.9 0 0 1 8.31 0l26.13 26.1a5.92 5.92 0 0 1 0.61 7.66z"/>
   <path class="snowflake-cls-1" d="m226.05 224.64a4.47 4.47 0 0 1-0.57 0.68 5.88 5.88 0 0 1-8.31 0l-178.6-178.25a5.93 5.93 0 0 1-0.57-7.67 6.15 6.15 0 0 1 0.57-0.66 5.85 5.85 0 0 1 8.31 0l178.6 178.26a5.9 5.9 0 0 1 0.57 7.64z"/>
   <path class="snowflake-cls-1" d="m222.75 195.22a6.73 6.73 0 0 1-0.55 0.67l-26.13 26.17a5.76 5.76 0 0 1-4.16 1.71 5.85 5.85 0 0 1-4.72-9.36 4.85 4.85 0 0 1 0.55-0.65l26.11-26.16a5.94 5.94 0 0 1 4.19-1.74 5.81 5.81 0 0 1 4.13 1.7 5.88 5.88 0 0 1 0.58 7.66z"/>
   <path class="snowflake-cls-1" d="m76.86 49.63a5.85 5.85 0 0 1-0.55 0.68l-26.11 26.13a5.86 5.86 0 0 1-4.2 1.75 6 6 0 0 1-4.14-1.71 5.9 5.9 0 0 1-0.57-7.65 3 3 0 0 1 0.55-0.68l26.16-26.15a5.71 5.71 0 0 1 4.13-1.73 5.85 5.85 0 0 1 4.73 9.36z"/>
   <path class="snowflake-cls-1" d="m136.9 261.66a6.54 6.54 0 0 1-0.59 0.68 5.89 5.89 0 0 1-10-4.17l-0.31-252.31a5.77 5.77 0 0 1 1.14-3.5 5.74 5.74 0 0 1 4.77-2.36 5.61 5.61 0 0 1 4.16 1.7 5.85 5.85 0 0 1 1.73 4.14l0.2 252.33a5.9 5.9 0 0 1-1.1 3.49z"/>
   <path class="snowflake-cls-1" d="m155.35 238.55c-0.19 0.24-0.39 0.44-0.58 0.66a5.84 5.84 0 0 1-4.16 1.73h-37a5.9 5.9 0 0 1-4.16-1.73 5.88 5.88 0 0 1 4.14-10h37a5.76 5.76 0 0 1 4.15 1.71 5.88 5.88 0 0 1 1.73 4.19 5.8 5.8 0 0 1-1.12 3.44z"/>
   <path class="snowflake-cls-1" d="m155.12 32.45a3.84 3.84 0 0 1-0.55 0.67 5.76 5.76 0 0 1-4.16 1.71h-37a5.92 5.92 0 0 1-5.85-5.83 6.1 6.1 0 0 1 1.16-3.52 5.86 5.86 0 0 1 4.74-2.36h37a5.73 5.73 0 0 1 4.16 1.72 5.87 5.87 0 0 1 1.68 4.16 5.75 5.75 0 0 1-1.18 3.45z"/>
   <path class="snowflake-cls-1" d="m262.93 135.41c-0.19 0.2-0.37 0.44-0.59 0.64a5.77 5.77 0 0 1-4.15 1.74l-252.33 0.21a5.62 5.62 0 0 1-4.15-1.72 5.87 5.87 0 0 1 4.15-10l252.33-0.28a5.94 5.94 0 0 1 5.88 5.88 6 6 0 0 1-1.14 3.53z"/>
   <path class="snowflake-cls-1" d="m33.72 154.09a4.19 4.19 0 0 1-0.55 0.67 5.89 5.89 0 0 1-10.06-4.13v-37a5.83 5.83 0 0 1 1.16-3.49 5.91 5.91 0 0 1 4.7-2.43 6.18 6.18 0 0 1 4.2 1.75 6 6 0 0 1 1.7 4.17v36.94a5.6 5.6 0 0 1-1.15 3.52z"/>
   <path class="snowflake-cls-1" d="m239.82 153.89a3.22 3.22 0 0 1-0.55 0.66 5.59 5.59 0 0 1-4.15 1.72 5.91 5.91 0 0 1-5.92-5.84v-37a5.94 5.94 0 0 1 5.86-5.91 5.89 5.89 0 0 1 4.18 1.73 5.8 5.8 0 0 1 1.71 4.16v37a5.71 5.71 0 0 1-1.13 3.48z"/>
   <path class="snowflake-cls-1" d="m186 184.81a2.75 2.75 0 0 1-0.52 0.56 5.24 5.24 0 0 1-4.58 1.49l-28-4.52-16.55 23a5.42 5.42 0 0 1-4.29 2.19 5.34 5.34 0 0 1-4.3-2.17l-16.6-23-28 4.57a5.39 5.39 0 0 1-4.59-1.48 5.24 5.24 0 0 1-1.47-4.57l4.49-28-23-16.56a5.2 5.2 0 0 1-2.17-4.28 5.14 5.14 0 0 1 1-3.17 5 5 0 0 1 1.14-1.1l23-16.64-4.55-28a5.21 5.21 0 0 1 1-4c0.15-0.2 0.31-0.4 0.48-0.59a5.45 5.45 0 0 1 4.61-1.49l28 4.51 16.58-23a5.2 5.2 0 0 1 4.24-2.21 5.32 5.32 0 0 1 4.31 2.2l16.61 23 27.95-4.58a5.29 5.29 0 0 1 6.08 6.08l-4.51 27.95 22.39 16.13a4.6 4.6 0 0 1 1.29 0.94 5.25 5.25 0 0 1 0.52 6.85 3 3 0 0 1-0.5 0.61l-0.15 0.15a3.53 3.53 0 0 1-0.53 0.44l-23 16.62 4.57 28a5.43 5.43 0 0 1-0.95 4.07zm-39.73-11.27a7.93 7.93 0 0 1 0.53-0.65 5.34 5.34 0 0 1 4.59-1.47l24 3.85-3.91-24a5.2 5.2 0 0 1 1-4 4.67 4.67 0 0 1 1.14-1.12l19.65-14.15-19.72-14.17a5.33 5.33 0 0 1-2.12-5.12l3.87-24-24 3.9a5.28 5.28 0 0 1-5.14-2.12l-14.16-19.71-14.21 19.72a5.31 5.31 0 0 1-5.12 2.12l-24-3.83 3.89 23.95a5.28 5.28 0 0 1-1 4 6.2 6.2 0 0 1-1.16 1.13l-19.6 14.22 19.72 14.19a5.28 5.28 0 0 1 2.13 5.12l-3.86 24 23.95-3.91a5.34 5.34 0 0 1 5.12 2.12l14.23 19.66 14.19-19.69z"/>
   <path class="snowflake-cls-1" d="m222.18 170.66a4.15 4.15 0 0 1-0.49 0.59 5 5 0 0 1-2.53 1.38l-37.52 8.92-8.81 37.52a5.35 5.35 0 0 1-0.9 2 4.83 4.83 0 0 1-2.23 1.7 5.21 5.21 0 0 1-4.79-0.33l-32.82-20.26-32.76 20.24a5.3 5.3 0 0 1-7.93-3.24l-8.88-37.52-37.52-8.86a5.16 5.16 0 0 1-3.66-3.1 5.28 5.28 0 0 1 0.36-4.81l20.24-32.82-20.31-32.74a5.26 5.26 0 0 1-0.39-4.81 5 5 0 0 1 0.65-1.15 5.3 5.3 0 0 1 3-2l37.52-8.87 8.83-37.5a5 5 0 0 1 0.88-1.91 4.9 4.9 0 0 1 2.23-1.73 5.23 5.23 0 0 1 4.81 0.36l32.84 20.16 32.78-20.27a5.27 5.27 0 0 1 7.93 3.28l8.92 37.5 37.5 8.83a5.32 5.32 0 0 1 3.3 7.92l-20.28 32.86 20.27 32.79a5.24 5.24 0 0 1 0.41 4.79 4.32 4.32 0 0 1-0.65 1.08zm-49.18 3.34a5.17 5.17 0 0 1 3-2l33.54-7.94-18.15-29.35a5.26 5.26 0 0 1 0-5.55l18.06-29.36-33.45-7.88a5.34 5.34 0 0 1-4-3.92l-8-33.57-29.22 18.18a5.28 5.28 0 0 1-5.57 0l-29.37-18.1-7.9 33.58a5.8 5.8 0 0 1-0.94 1.91 5 5 0 0 1-3 2l-33.54 8 18.14 29.3a5.3 5.3 0 0 1 0 5.57l-18.09 29.32 33.61 7.93a5.22 5.22 0 0 1 3.88 3.94l8 33.52 29.32-18.13a5.22 5.22 0 0 1 5.54 0l29.38 18.08 7.9-33.56a5.34 5.34 0 0 1 0.86-1.97z"/>
  </g>
 </g>
</svg>
