<?xml version="1.0" encoding="UTF-8"?>
<svg width="473.93" height="444.45" version="1.1" viewBox="0 0 473.93 444.45" xmlns="http://www.w3.org/2000/svg" xmlns:xlink="http://www.w3.org/1999/xlink">
 <defs>
  <style>.sun-clouds-cls-1 {
        isolation: isolate;
      }

      .sun-clouds-cls-2 {
        fill: #ffe3ab;
      }

      .sun-clouds-cls-3 {
        fill: url(#sun-clouds-linear-gradient);
      }

      .sun-clouds-cls-4 {
        fill: url(#sun-clouds-linear-gradient-2);
      }

      .sun-clouds-cls-5 {
        fill: url(#sun-clouds-linear-gradient-3);
      }

      .sun-clouds-cls-6 {
        fill: url(#sun-clouds-linear-gradient-4);
      }

      .sun-clouds-cls-7 {
        fill: url(#sun-clouds-linear-gradient-5);
      }

      .sun-clouds-cls-8 {
        fill: url(#sun-clouds-linear-gradient-6);
      }

      .sun-clouds-cls-9 {
        fill: url(#sun-clouds-linear-gradient-7);
      }

      .sun-clouds-cls-10 {
        fill: url(#sun-clouds-linear-gradient-8);
      }

      .sun-clouds-cls-11 {
        fill: url(#sun-clouds-linear-gradient-9);
      }

      .sun-clouds-cls-12 {
        fill: url(#sun-clouds-linear-gradient-10);
      }

      .sun-clouds-cls-13 {
        fill: url(#sun-clouds-linear-gradient-11);
      }

      .sun-clouds-cls-14 {
        fill: url(#sun-clouds-linear-gradient-12);
      }

      .sun-clouds-cls-15 {
        fill: url(#sun-clouds-linear-gradient-13);
      }

      .sun-clouds-cls-16 {
        fill: url(#sun-clouds-linear-gradient-14);
      }

      .sun-clouds-cls-17 {
        fill: url(#sun-clouds-linear-gradient-15);
      }

      .sun-clouds-cls-18 {
        fill: url(#sun-clouds-linear-gradient-16);
      }

      .sun-clouds-cls-19 {
        mix-blend-mode: multiply;
      }

      .sun-clouds-cls-20, .sun-clouds-cls-22 {
        fill: #fff;
      }

      .sun-clouds-cls-20 {
        opacity: 0;
      }

      .sun-clouds-cls-21 {
        fill: url(#sun-clouds-linear-gradient-17);
      }

      .sun-clouds-cls-23 {
        fill: #e9f2f5;
      }</style>
  <linearGradient id="sun-clouds-linear-gradient" x1="216.11" x2="251.59" y1="19.3" y2="54.78" gradientUnits="userSpaceOnUse">
   <stop stop-color="#ffd45c" offset="0"/>
   <stop stop-color="#ff9d00" offset="1"/>
  </linearGradient>
  <linearGradient id="sun-clouds-linear-gradient-2" x1="216.11" x2="251.59" y1="266.61" y2="302.09" xlink:href="#sun-clouds-linear-gradient"/>
  <linearGradient id="sun-clouds-linear-gradient-3" x1="1935.6" x2="1900.1" y1="2042.9" y2="2078.3" gradientTransform="rotate(-90 64.075 2014.5)" xlink:href="#sun-clouds-linear-gradient"/>
  <linearGradient id="sun-clouds-linear-gradient-4" x1="1935.6" x2="1900.1" y1="2290.2" y2="2325.6" gradientTransform="rotate(-90 64.075 2014.5)" xlink:href="#sun-clouds-linear-gradient"/>
  <linearGradient id="sun-clouds-linear-gradient-5" x1="1273.1" x2="1236.9" y1="3321.8" y2="3321.8" gradientTransform="rotate(225 64.105 2014.5)" xlink:href="#sun-clouds-linear-gradient"/>
  <linearGradient id="sun-clouds-linear-gradient-6" x1="1273.1" x2="1236.9" y1="3569.1" y2="3569.1" gradientTransform="rotate(225 64.105 2014.5)" xlink:href="#sun-clouds-linear-gradient"/>
  <linearGradient id="sun-clouds-linear-gradient-7" x1="-1366.7" x2="-1366.7" y1="3117.1" y2="3046.3" gradientTransform="rotate(135 64.133 2014.5)" xlink:href="#sun-clouds-linear-gradient"/>
  <linearGradient id="sun-clouds-linear-gradient-8" x1="-1366.7" x2="-1366.7" y1="3364.4" y2="3293.6" gradientTransform="rotate(135 64.133 2014.5)" xlink:href="#sun-clouds-linear-gradient"/>
  <linearGradient id="sun-clouds-linear-gradient-9" x1="329.58" x2="366.59" y1="189.51" y2="226.51" gradientUnits="userSpaceOnUse">
   <stop stop-color="#ffbb31" offset="0"/>
   <stop stop-color="#ff9d00" offset="1"/>
  </linearGradient>
  <linearGradient id="sun-clouds-linear-gradient-10" x1="101.1" x2="138.1" y1="94.88" y2="131.87" xlink:href="#sun-clouds-linear-gradient-9"/>
  <linearGradient id="sun-clouds-linear-gradient-11" x1="168.01" x2="205.03" y1="27.95" y2="64.96" xlink:href="#sun-clouds-linear-gradient-9"/>
  <linearGradient id="sun-clouds-linear-gradient-12" x1="262.66" x2="299.66" y1="256.43" y2="293.44" xlink:href="#sun-clouds-linear-gradient-9"/>
  <linearGradient id="sun-clouds-linear-gradient-13" x1="108.64" x2="130.57" y1="197.05" y2="218.98" xlink:href="#sun-clouds-linear-gradient-9"/>
  <linearGradient id="sun-clouds-linear-gradient-14" x1="337.12" x2="359.05" y1="102.41" y2="124.34" xlink:href="#sun-clouds-linear-gradient-9"/>
  <linearGradient id="sun-clouds-linear-gradient-15" x1="175.55" x2="197.48" y1="263.98" y2="285.9" xlink:href="#sun-clouds-linear-gradient-9"/>
  <linearGradient id="sun-clouds-linear-gradient-16" x1="270.19" x2="292.12" y1="35.5" y2="57.42" xlink:href="#sun-clouds-linear-gradient-9"/>
  <linearGradient id="sun-clouds-linear-gradient-17" x1="162.56" x2="305.13" y1="89.41" y2="231.98" xlink:href="#sun-clouds-linear-gradient"/>
  <filter id="filter147" x="-.11987" y="-.19912" width="1.2647" height="1.4397" color-interpolation-filters="sRGB">
   <feFlood flood-color="rgb(0,0,0)" flood-opacity=".30196" result="flood"/>
   <feComposite in="flood" in2="SourceGraphic" operator="in" result="composite1"/>
   <feGaussianBlur in="composite1" result="blur" stdDeviation="12"/>
   <feOffset dx="6" dy="6" result="offset"/>
   <feComposite in="SourceGraphic" in2="offset" result="composite2"/>
  </filter>
  <filter id="filter159" x="-.099043" y="-.15598" width="1.2187" height="1.3444" color-interpolation-filters="sRGB">
   <feFlood flood-color="rgb(0,0,0)" flood-opacity=".30196" result="flood"/>
   <feComposite in="flood" in2="SourceGraphic" operator="in" result="composite1"/>
   <feGaussianBlur in="composite1" result="blur" stdDeviation="12"/>
   <feOffset dx="6" dy="6" result="offset"/>
   <feComposite in="SourceGraphic" in2="offset" result="composite2"/>
  </filter>
  <filter id="filter171" x="-.16802" y="-.17227" width="1.337" height="1.2793" color-interpolation-filters="sRGB">
   <feFlood flood-color="rgb(0,0,0)" flood-opacity=".30196" result="flood"/>
   <feComposite in="flood" in2="SourceGraphic" operator="in" result="composite1"/>
   <feGaussianBlur in="composite1" result="blur" stdDeviation="12"/>
   <feOffset dx="6" dy="6" result="offset"/>
   <feComposite in="SourceGraphic" in2="offset" result="composite2"/>
  </filter>
  <filter id="filter549" x="-.55035" y="-.92883" width="2.2154" height="3.0512" color-interpolation-filters="sRGB">
   <feFlood flood-color="rgb(0,0,0)" flood-opacity=".30196" result="flood"/>
   <feComposite in="flood" in2="SourceGraphic" operator="in" result="composite1"/>
   <feGaussianBlur in="composite1" result="blur" stdDeviation="12"/>
   <feOffset dx="6" dy="6" result="offset"/>
   <feComposite in="SourceGraphic" in2="offset" result="composite2"/>
  </filter>
  <filter id="filter561" x="-.40678" y="-.79558" width="1.8983" height="2.7569" color-interpolation-filters="sRGB">
   <feFlood flood-color="rgb(0,0,0)" flood-opacity=".30196" result="flood"/>
   <feComposite in="flood" in2="SourceGraphic" operator="in" result="composite1"/>
   <feGaussianBlur in="composite1" result="blur" stdDeviation="12"/>
   <feOffset dx="6" dy="6" result="offset"/>
   <feComposite in="SourceGraphic" in2="offset" result="composite2"/>
  </filter>
  <filter id="filter573" x="-.55035" y="-.9282" width="2.2154" height="3.0498" color-interpolation-filters="sRGB">
   <feFlood flood-color="rgb(0,0,0)" flood-opacity=".30196" result="flood"/>
   <feComposite in="flood" in2="SourceGraphic" operator="in" result="composite1"/>
   <feGaussianBlur in="composite1" result="blur" stdDeviation="12"/>
   <feOffset dx="6" dy="6" result="offset"/>
   <feComposite in="SourceGraphic" in2="offset" result="composite2"/>
  </filter>
  <filter id="filter585" x="-.57403" y="-.57402" width="2.2677" height="2.2676" color-interpolation-filters="sRGB">
   <feFlood flood-color="rgb(0,0,0)" flood-opacity=".30196" result="flood"/>
   <feComposite in="flood" in2="SourceGraphic" operator="in" result="composite1"/>
   <feGaussianBlur in="composite1" result="blur" stdDeviation="12"/>
   <feOffset dx="6" dy="6" result="offset"/>
   <feComposite in="SourceGraphic" in2="offset" result="composite2"/>
  </filter>
  <filter id="filter597" x="-.92882" y="-.55035" width="3.0511" height="2.2154" color-interpolation-filters="sRGB">
   <feFlood flood-color="rgb(0,0,0)" flood-opacity=".30196" result="flood"/>
   <feComposite in="flood" in2="SourceGraphic" operator="in" result="composite1"/>
   <feGaussianBlur in="composite1" result="blur" stdDeviation="12"/>
   <feOffset dx="6" dy="6" result="offset"/>
   <feComposite in="SourceGraphic" in2="offset" result="composite2"/>
  </filter>
  <filter id="filter609" x="-.79558" y="-.40678" width="2.7569" height="1.8983" color-interpolation-filters="sRGB">
   <feFlood flood-color="rgb(0,0,0)" flood-opacity=".30196" result="flood"/>
   <feComposite in="flood" in2="SourceGraphic" operator="in" result="composite1"/>
   <feGaussianBlur in="composite1" result="blur" stdDeviation="12"/>
   <feOffset dx="6" dy="6" result="offset"/>
   <feComposite in="SourceGraphic" in2="offset" result="composite2"/>
  </filter>
  <filter id="filter621" x="-.92859" y="-.55035" width="3.0506" height="2.2154" color-interpolation-filters="sRGB">
   <feFlood flood-color="rgb(0,0,0)" flood-opacity=".30196" result="flood"/>
   <feComposite in="flood" in2="SourceGraphic" operator="in" result="composite1"/>
   <feGaussianBlur in="composite1" result="blur" stdDeviation="12"/>
   <feOffset dx="6" dy="6" result="offset"/>
   <feComposite in="SourceGraphic" in2="offset" result="composite2"/>
  </filter>
  <filter id="filter633" x="-.57416" y="-.57403" width="2.2679" height="2.2677" color-interpolation-filters="sRGB">
   <feFlood flood-color="rgb(0,0,0)" flood-opacity=".30196" result="flood"/>
   <feComposite in="flood" in2="SourceGraphic" operator="in" result="composite1"/>
   <feGaussianBlur in="composite1" result="blur" stdDeviation="12"/>
   <feOffset dx="6" dy="6" result="offset"/>
   <feComposite in="SourceGraphic" in2="offset" result="composite2"/>
  </filter>
  <filter id="filter645" x="-.55056" y="-.92852" width="2.2158" height="3.0505" color-interpolation-filters="sRGB">
   <feFlood flood-color="rgb(0,0,0)" flood-opacity=".30196" result="flood"/>
   <feComposite in="flood" in2="SourceGraphic" operator="in" result="composite1"/>
   <feGaussianBlur in="composite1" result="blur" stdDeviation="12"/>
   <feOffset dx="6" dy="6" result="offset"/>
   <feComposite in="SourceGraphic" in2="offset" result="composite2"/>
  </filter>
  <filter id="filter657" x="-.40666" y="-.79558" width="1.8981" height="2.7569" color-interpolation-filters="sRGB">
   <feFlood flood-color="rgb(0,0,0)" flood-opacity=".30196" result="flood"/>
   <feComposite in="flood" in2="SourceGraphic" operator="in" result="composite1"/>
   <feGaussianBlur in="composite1" result="blur" stdDeviation="12"/>
   <feOffset dx="6" dy="6" result="offset"/>
   <feComposite in="SourceGraphic" in2="offset" result="composite2"/>
  </filter>
  <linearGradient id="linearGradient972" x1="216.11" x2="251.59" y1="19.3" y2="54.78" gradientUnits="userSpaceOnUse" xlink:href="#sun-clouds-linear-gradient"/>
  <linearGradient id="linearGradient974" x1="329.58" x2="366.59" y1="189.51" y2="226.51" gradientUnits="userSpaceOnUse" xlink:href="#sun-clouds-linear-gradient-9"/>
 </defs>
 <g class="sun-clouds-cls-1" transform="translate(11.429 56)">
  <g data-name="Layer 2">
   <g id="_Layer_" data-name="&lt;Layer&gt;">
    <g filter="url(#filter171)">
     <path class="sun-clouds-cls-2" d="m250.29 35.4c0 19.55-18.1 35.4-18.1 35.4s-18.08-15.8-18.08-35.4 18.08-35.4 18.08-35.4 18.1 15.85 18.1 35.4z"/>
     <path class="sun-clouds-cls-2" d="m250.29 282.7c0 19.55-18.1 35.4-18.1 35.4s-18.08-15.85-18.08-35.4 18.08-35.4 18.08-35.4 18.1 15.85 18.1 35.4z"/>
     <path class="sun-clouds-cls-2" d="m108.54 141c19.55 0 35.4 18.08 35.4 18.08s-15.85 18.12-35.4 18.12-35.4-18.2-35.4-18.2 15.86-18 35.4-18z"/>
     <path class="sun-clouds-cls-2" d="m355.86 141c19.55 0 35.4 18.08 35.4 18.08s-15.85 18.12-35.4 18.12-35.42-18.2-35.42-18.2 15.85-18 35.42-18z"/>
     <path class="sun-clouds-cls-2" d="m132 233.68c13.82-13.82 37.83-12.23 37.83-12.23s1.59 24-12.23 37.83-37.83 12.23-37.83 12.23-1.63-24.01 12.23-37.83z"/>
     <path class="sun-clouds-cls-2" d="m306.84 58.82c13.82-13.82 37.82-12.23 37.82-12.23s1.6 24-12.24 37.81-37.81 12.24-37.81 12.24-1.61-24 12.23-37.82z"/>
     <path class="sun-clouds-cls-2" d="m306.84 259.28c-13.82-13.82-12.23-37.83-12.23-37.83s24-1.59 37.81 12.23 12.24 37.83 12.24 37.83-24 1.59-37.82-12.23z"/>
     <path class="sun-clouds-cls-2" d="m132 84.4c-13.82-13.82-12.23-37.81-12.23-37.81s24-1.61 37.83 12.23 12.23 37.82 12.23 37.82-24.05 1.6-37.83-12.24z"/>
     <path class="sun-clouds-cls-2" d="m340.9 219.73c-14.45-6-20.62-24.21-20.62-24.21s17.24-8.52 31.72-2.52 20.6 24.22 20.6 24.22-17.26 8.5-31.7 2.51z"/>
     <path class="sun-clouds-cls-2" d="m112.41 125.09c-14.45-6-20.62-24.2-20.62-24.2s17.25-8.53 31.7-2.54 20.63 24.21 20.63 24.21-17.24 8.53-31.71 2.53z"/>
     <path class="sun-clouds-cls-2" d="m198.25 39.27c6 14.45-2.55 31.71-2.55 31.71s-18.22-6.19-24.19-20.64 2.54-31.71 2.54-31.71 18.21 6.17 24.2 20.64z"/>
     <path class="sun-clouds-cls-2" d="m292.89 267.75c6 14.45-2.52 31.7-2.52 31.7s-18.25-6.17-24.24-20.62 2.55-31.71 2.55-31.71 18.22 6.19 24.21 20.63z"/>
     <path class="sun-clouds-cls-2" d="m112.41 193c14.47-6 31.71 2.53 31.71 2.53s-6.17 18.24-20.63 24.21-31.7-2.52-31.7-2.52 6.21-18.22 20.62-24.22z"/>
     <path class="sun-clouds-cls-2" d="m340.9 98.35c14.44-6 31.69 2.54 31.69 2.54s-6.15 18.23-20.6 24.2-31.71-2.53-31.71-2.53 6.17-18.22 20.62-24.21z"/>
     <path class="sun-clouds-cls-2" d="m171.51 267.75c6-14.46 24.19-20.63 24.19-20.63s8.54 17.24 2.55 31.71-24.2 20.62-24.2 20.62-8.53-17.25-2.54-31.7z"/>
     <path class="sun-clouds-cls-2" d="m266.13 39.27c6-14.47 24.24-20.64 24.24-20.64s8.51 17.27 2.52 31.71-24.21 20.66-24.21 20.66-8.52-17.28-2.55-31.73z"/>
     <path class="sun-clouds-cls-3" d="m252 37c0 19.55-18.1 35.4-18.1 35.4s-18.1-15.85-18.1-35.4 18.1-35.4 18.1-35.4 18.1 15.89 18.1 35.4z" fill="url(#linearGradient972)" filter="url(#filter609)"/>
     <path class="sun-clouds-cls-4" d="m252 284.36c0 19.53-18.1 35.4-18.1 35.4s-18.1-15.87-18.1-35.4 18.1-35.42 18.1-35.42 18.1 15.87 18.1 35.42z" fill="url(#sun-clouds-linear-gradient-2)"/>
     <path class="sun-clouds-cls-5" d="m110.18 142.59c19.57 0 35.42 18.1 35.42 18.1s-15.85 18.1-35.42 18.1-35.4-18.1-35.4-18.1 15.87-18.1 35.4-18.1z" fill="url(#sun-clouds-linear-gradient-3)" filter="url(#filter657)"/>
     <path class="sun-clouds-cls-6" d="m357.5 142.59c19.55 0 35.4 18.1 35.4 18.1s-15.85 18.1-35.4 18.1-35.4-18.1-35.4-18.1 15.9-18.1 35.4-18.1z" fill="url(#sun-clouds-linear-gradient-4)" filter="url(#filter561)"/>
     <path class="sun-clouds-cls-7" d="m133.6 235.32c13.84-13.82 37.83-12.23 37.83-12.23s1.61 24-12.23 37.83-37.82 12.25-37.82 12.25-1.58-24.01 12.22-37.85z" fill="url(#sun-clouds-linear-gradient-5)"/>
     <path class="sun-clouds-cls-8" d="m308.48 60.46c13.82-13.82 37.83-12.23 37.83-12.23s1.59 24-12.23 37.83-37.83 12.23-37.83 12.23-1.59-24.01 12.23-37.83z" fill="url(#sun-clouds-linear-gradient-6)" filter="url(#filter585)"/>
     <path class="sun-clouds-cls-9" d="m308.48 260.92c-13.82-13.82-12.23-37.83-12.23-37.83s24-1.59 37.83 12.23 12.23 37.85 12.23 37.85-24.01 1.59-37.83-12.25z" fill="url(#sun-clouds-linear-gradient-7)"/>
     <path class="sun-clouds-cls-10" d="m133.6 86.06c-13.8-13.82-12.22-37.83-12.22-37.83s24-1.59 37.82 12.23 12.23 37.83 12.23 37.83-23.99 1.59-37.83-12.23z" fill="url(#sun-clouds-linear-gradient-8)" filter="url(#filter633)"/>
     <path class="sun-clouds-cls-11" d="m342.55 221.39c-14.46-6-20.63-24.21-20.63-24.21s17.24-8.52 31.71-2.55 20.62 24.22 20.62 24.22-17.25 8.51-31.7 2.54z" fill="url(#linearGradient974)" filter="url(#filter549)"/>
     <path class="sun-clouds-cls-12" d="m114.05 126.75c-14.45-6-20.6-24.22-20.6-24.22s17.25-8.53 31.69-2.53 20.62 24.21 20.62 24.21-17.24 8.52-31.71 2.54z" fill="url(#sun-clouds-linear-gradient-10)" filter="url(#filter645)"/>
     <path class="sun-clouds-cls-13" d="m199.89 40.91c6 14.45-2.53 31.71-2.53 31.71s-18.22-6.17-24.21-20.62 2.52-31.71 2.52-31.71 18.25 6.17 24.22 20.62z" fill="url(#sun-clouds-linear-gradient-11)" filter="url(#filter621)"/>
     <path class="sun-clouds-cls-14" d="m294.53 269.39c6 14.47-2.54 31.72-2.54 31.72s-18.21-6.19-24.2-20.64 2.53-31.7 2.53-31.7 18.22 6.23 24.21 20.62z" fill="url(#sun-clouds-linear-gradient-12)"/>
     <path class="sun-clouds-cls-15" d="m114.07 194.63c14.45-6 31.69 2.55 31.69 2.55s-6.17 18.22-20.62 24.21-31.69-2.54-31.69-2.54 6.15-18.23 20.62-24.22z" fill="url(#sun-clouds-linear-gradient-13)"/>
     <path class="sun-clouds-cls-16" d="m342.55 100c14.45-6 31.7 2.54 31.7 2.54s-6.17 18.23-20.62 24.22-31.71-2.55-31.71-2.55 6.17-18.21 20.63-24.21z" fill="url(#sun-clouds-linear-gradient-14)" filter="url(#filter573)"/>
     <path class="sun-clouds-cls-17" d="m173.15 269.39c6-14.44 24.21-20.62 24.21-20.62s8.53 17.25 2.53 31.7-24.22 20.64-24.22 20.64-8.51-17.27-2.52-31.72z" fill="url(#sun-clouds-linear-gradient-15)"/>
     <path class="sun-clouds-cls-18" d="m267.79 40.91c6-14.45 24.2-20.62 24.2-20.62s8.53 17.25 2.54 31.71-24.21 20.62-24.21 20.62-8.52-17.26-2.53-31.71z" fill="url(#sun-clouds-linear-gradient-16)" filter="url(#filter597)"/>
     <g class="sun-clouds-cls-19">
      <path class="sun-clouds-cls-20" d="m346.35 287.68c-51.14 42.45-121.12 51.5-183.17 12.84-82.63-51.52-63.65-121.22-25.71-122.84 37.26-1.58 68.72 10.84 92.71-14.3 27.92-29.24 28.12-61.46 35.49-95.18 8.22-37.54 55.8-49.53 107.16 5.11 55.82 59.37 37.98 160.87-26.48 214.37z"/>
     </g>
     <path class="sun-clouds-cls-2" d="M 333,159 A 100.81,100.81 0 1 1 232.19,58.23 100.82,100.82 0 0 1 333,159 Z"/>
     <path class="sun-clouds-cls-21" d="m334.65 160.69a100.81 100.81 0 1 1-100.8-100.8 100.82 100.82 0 0 1 100.8 100.8z" fill="url(#sun-clouds-linear-gradient-17)"/>
    </g>
    <g filter="url(#filter159)">
     <path class="sun-clouds-cls-22" d="m327.43 223.86c-1.15 0-2.27 0.06-3.39 0.13a44.42 44.42 0 0 0-58.29-26.56 43.11 43.11 0 0 0-80.57-1.3 39.73 39.73 0 0 0-6.52-0.57 37.92 37.92 0 0 0-37.66 33.9 42.76 42.76 0 1 0-8.45 84.68h1.1a39.41 39.41 0 0 0 72.11 10.95 54.1 54.1 0 0 0 96.16-5.33 51.33 51.33 0 1 0 25.56-95.86z"/>
     <path class="sun-clouds-cls-23" d="m329.18 225.63c-1.15 0-2.25 0-3.39 0.13a44.43 44.43 0 0 0-58.27-26.57 43.1 43.1 0 0 0-80.52-1.29 36.1 36.1 0 0 0-6.52-0.59 37.93 37.93 0 0 0-37.71 33.92 42.75 42.75 0 1 0-8.45 84.66h1.1a39.4 39.4 0 0 0 72.11 10.93 54.09 54.09 0 0 0 96.15-5.31 51.34 51.34 0 1 0 25.55-95.86z"/>
    </g>
    <g class="sun-clouds-cls-19">
     <path class="sun-clouds-cls-20" d="m316.52 318.63c19.6-29.13 10.11-82.94-3.58-101.77-18-24.7-46.12-28.12-62.56-36.34s-47.73-30.39-68.76-30.39c-29.42 0-44.39 10.85-68.18 17.23-25.7 6.89-69.3 47-93.26 73.23-28 30.72-20.9 76.92-13.75 85.86 13.38 16.75 29.57 33.39 49.9 43.14 19.48 9.34 36.38 8.88 50.9 9.87 11 0.78 23.89 6.25 52.6 0.26 20.34-4.25 30-5.89 40.52-9.16 22.15-6.89 92.41-16.66 116.17-51.93z"/>
    </g>
    <path class="sun-clouds-cls-22" d="m219.11 213a40.77 40.77 0 0 0-14.82 2 70.4 70.4 0 0 0-135.42-9.8 48.9 48.9 0 1 0 31 84.36 70.39 70.39 0 0 0 85-11 40.66 40.66 0 1 0 34.24-65.56z" filter="url(#filter147)"/>
   </g>
  </g>
 </g>
</svg>
