<?xml version="1.0" encoding="UTF-8"?>
<svg width="196.74" height="346.5" version="1.1" viewBox="0 0 196.74 346.5" xmlns="http://www.w3.org/2000/svg">
 <defs>
  <style>.cls-1 {
        fill: none;
      }

      .cls-2 {
        isolation: isolate;
      }

      .cls-3 {
        fill: #bee9f7;
      }

      .cls-4 {
        fill: url(#temp-warm-linear-gradient);
      }

      .cls-5 {
        clip-path: url(#clip-path);
      }

      .cls-6 {
        mix-blend-mode: multiply;
      }

      .cls-7, .cls-8 {
        fill: #fff;
      }

      .cls-7 {
        opacity: 0;
      }

      .cls-9 {
        fill: #e4f1f5;
      }

      .cls-10 {
        fill: #0a4d80;
      }</style>
  <linearGradient id="temp-warm-linear-gradient" x1="53.83" x2="113.76" y1="157.76" y2="212.8" gradientUnits="userSpaceOnUse">
   <stop stop-color="#ff1a1a" offset="0"/>
   <stop stop-color="#d40000" offset="1"/>
  </linearGradient>
  <clipPath id="clip-path" transform="translate(18.39 3.76)">
   <path class="cls-1" d="m80.73 167.43v-138.09a12.81 12.81 0 1 0-25.61 0v138.09a51.44 51.44 0 1 0 25.61 0z"/>
  </clipPath>
  <filter id="filter79" x="-.21631" y="-.1018" width="1.4777" height="1.2248" color-interpolation-filters="sRGB">
   <feFlood flood-color="rgb(0,0,0)" flood-opacity=".30196" result="flood"/>
   <feComposite in="flood" in2="SourceGraphic" operator="in" result="composite1"/>
   <feGaussianBlur in="composite1" result="blur" stdDeviation="12"/>
   <feOffset dx="6" dy="6" result="offset"/>
   <feComposite in="SourceGraphic" in2="offset" result="composite2"/>
  </filter>
 </defs>
 <g class="cls-2" transform="translate(9.045 24.179)">
  <g data-name="Layer 2">
   <g id="_Layer_" data-name="&lt;Layer&gt;">
    <path class="cls-3" transform="translate(18.39,3.76)" d="m67.94 205.08a12.83 12.83 0 0 1-12.82-12.81v-162.93a12.81 12.81 0 1 1 25.61 0v162.93a12.81 12.81 0 0 1-12.79 12.81z"/>
    <path class="cls-4" transform="translate(18.39,3.76)" d="m80.73 167.43v-101.18h-25.61v101.18a51.44 51.44 0 1 0 25.61 0z" fill="url(#temp-warm-linear-gradient)"/>
    <g class="cls-5" clip-path="url(#clip-path)">
     <g class="cls-6">
      <path class="cls-7" transform="translate(18.39,3.76)" d="m66 217.17c-7.19 16.11-2.51 36.65 0 48 5.65 25.61-32.14 25-46.55 17-50.13-28.09-39.52-87.17-29.25-102.52 11.18-16.71 24.86-25.54 37.15-43.1 5.93-8.46 9.27-55 10.41-90.32 0.46-13.78-4.52-24.23 13.56-44.79 9.14-10.44 48.25-5.13 36.27 15.07-10.41 17.56-6.08 31.84-6.86 48-1.09 23.59 5.33 93.65-1.32 114.81-5.41 17.05-8.33 26.48-13.41 37.85z"/>
     </g>
    </g>
    <path class="cls-8" transform="translate(18.39,3.76)" d="m94.52 155.38v-127.44a28 28 0 0 0-55.91 0v127.44a66.54 66.54 0 1 0 55.91 0zm-28 111.82a51.38 51.38 0 0 1-12.77-101.15v-138.11a12.81 12.81 0 0 1 25.62 0v138.11a51.38 51.38 0 0 1-12.81 101.15z"/>
    <path class="cls-9" transform="translate(18.39,3.76)" d="m95.88 156.77v-127.43a27.95 27.95 0 1 0-55.89 0v127.43a66.57 66.57 0 1 0 55.89 0zm-27.94 111.81a51.38 51.38 0 0 1-12.82-101.15v-138.09a12.81 12.81 0 1 1 25.61 0v138.09a51.38 51.38 0 0 1-12.79 101.15z" filter="url(#filter79)"/>
    <rect class="cls-10" x="101.78" y="70.01" width="12.49" height="7.65"/>
    <rect class="cls-10" x="101.78" y="44.91" width="12.49" height="7.65"/>
    <rect class="cls-10" x="101.78" y="95.13" width="12.49" height="7.65"/>
    <rect class="cls-10" x="101.78" y="120.23" width="12.49" height="7.67"/>
    <rect class="cls-10" x="101.78" y="145.34" width="12.49" height="7.65"/>
   </g>
  </g>
 </g>
</svg>
