<?xml version="1.0" encoding="UTF-8"?>
<svg width="492.83" height="438.11" version="1.1" viewBox="0 0 492.83 438.11" xmlns="http://www.w3.org/2000/svg" xmlns:xlink="http://www.w3.org/1999/xlink">
 <defs>
  <style>.cls-1 {
        fill: #008dd4;
      }

      .cls-2 {
        fill: url(#linear-gradient);
      }

      .cls-3 {
        fill: #4fc5ff;
      }

      .cls-4 {
        fill: url(#linear-gradient-2);
      }

      .cls-5 {
        fill: #ffe3ab;
      }

      .cls-6 {
        fill: url(#linear-gradient-3);
      }

      .cls-7 {
        fill: url(#linear-gradient-4);
      }

      .cls-8 {
        fill: #63ccff;
      }

      .cls-9 {
        fill: #007fc9;
      }

      .cls-10 {
        fill: #6ed8ff;
      }

      .cls-11 {
        fill: #008cde;
      }

      .cls-12 {
        fill: #b3edff;
      }

      .cls-13 {
        fill: #61d7ff;
      }</style>
  <linearGradient id="linear-gradient" x1="116.11" x2="331.8" y1="89.46" y2="305.15" gradientUnits="userSpaceOnUse">
   <stop stop-color="#1062a1" offset="0"/>
   <stop stop-color="#0a4d80" offset="1"/>
  </linearGradient>
  <linearGradient id="linear-gradient-2" x1="31.73" x2="294.48" y1="119.4" y2="119.4" gradientUnits="userSpaceOnUse">
   <stop stop-color="#076bba" offset="0"/>
   <stop stop-color="#0060ab" offset="1"/>
  </linearGradient>
  <linearGradient id="linear-gradient-3" x1="45.6" x2="-30.42" y1="-222.11" y2="-336.79" gradientTransform="matrix(.97 .23 -.23 .97 264.83 541.99)" gradientUnits="userSpaceOnUse">
   <stop stop-color="#ffd45c" offset="0"/>
   <stop stop-color="#ff9d00" offset="1"/>
  </linearGradient>
  <linearGradient id="linear-gradient-4" x1="213.34" x2="429.25" y1="154.93" y2="154.93" xlink:href="#linear-gradient-2"/>
  <filter id="filter108" x="-.1007" y="-.17129" width="1.2224" height="1.3783" color-interpolation-filters="sRGB">
   <feFlood flood-color="rgb(0,0,0)" flood-opacity=".30196" result="flood"/>
   <feComposite in="flood" in2="SourceGraphic" operator="in" result="composite1"/>
   <feGaussianBlur in="composite1" result="blur" stdDeviation="12"/>
   <feOffset dx="6" dy="6" result="offset"/>
   <feComposite in="SourceGraphic" in2="offset" result="composite2"/>
  </filter>
  <filter id="filter120" x="-.16645" y="-.27895" width="1.3676" height="1.616" color-interpolation-filters="sRGB">
   <feFlood flood-color="rgb(0,0,0)" flood-opacity=".30196" result="flood"/>
   <feComposite in="flood" in2="SourceGraphic" operator="in" result="composite1"/>
   <feGaussianBlur in="composite1" result="blur" stdDeviation="12"/>
   <feOffset dx="6" dy="6" result="offset"/>
   <feComposite in="SourceGraphic" in2="offset" result="composite2"/>
  </filter>
  <filter id="filter132" x="-.10915" y="-.18358" width="1.241" height="1.4054" color-interpolation-filters="sRGB">
   <feFlood flood-color="rgb(0,0,0)" flood-opacity=".30196" result="flood"/>
   <feComposite in="flood" in2="SourceGraphic" operator="in" result="composite1"/>
   <feGaussianBlur in="composite1" result="blur" stdDeviation="12"/>
   <feOffset dx="6" dy="6" result="offset"/>
   <feComposite in="SourceGraphic" in2="offset" result="composite2"/>
  </filter>
  <filter id="filter144" x="-.13222" y="-.20879" width="1.292" height="1.4611" color-interpolation-filters="sRGB">
   <feFlood flood-color="rgb(0,0,0)" flood-opacity=".30196" result="flood"/>
   <feComposite in="flood" in2="SourceGraphic" operator="in" result="composite1"/>
   <feGaussianBlur in="composite1" result="blur" stdDeviation="12"/>
   <feOffset dx="6" dy="6" result="offset"/>
   <feComposite in="SourceGraphic" in2="offset" result="composite2"/>
  </filter>
  <filter id="filter156" x="-.069114" y="-.13097" width="1.1526" height="1.2892" color-interpolation-filters="sRGB">
   <feFlood flood-color="rgb(0,0,0)" flood-opacity=".30196" result="flood"/>
   <feComposite in="flood" in2="SourceGraphic" operator="in" result="composite1"/>
   <feGaussianBlur in="composite1" result="blur" stdDeviation="12"/>
   <feOffset dx="6" dy="6" result="offset"/>
   <feComposite in="SourceGraphic" in2="offset" result="composite2"/>
  </filter>
  <filter id="filter186" x="-.25305" y="-.15828" width="1.5588" height="1.3495" color-interpolation-filters="sRGB">
   <feFlood flood-color="rgb(0,0,0)" flood-opacity=".30196" result="flood"/>
   <feComposite in="flood" in2="SourceGraphic" operator="in" result="composite1"/>
   <feGaussianBlur in="composite1" result="blur" stdDeviation="12"/>
   <feOffset dx="6" dy="6" result="offset"/>
   <feComposite in="SourceGraphic" in2="offset" result="composite2"/>
  </filter>
  <filter id="filter216" x="-1.197" y="-.78638" width="3.6434" height="2.7366" color-interpolation-filters="sRGB">
   <feFlood flood-color="rgb(0,0,0)" flood-opacity=".30196" result="flood"/>
   <feComposite in="flood" in2="SourceGraphic" operator="in" result="composite1"/>
   <feGaussianBlur in="composite1" result="blur" stdDeviation="12"/>
   <feOffset dx="6" dy="6" result="offset"/>
   <feComposite in="SourceGraphic" in2="offset" result="composite2"/>
  </filter>
  <filter id="filter228" x="-.74766" y="-.49043" width="2.6511" height="2.083" color-interpolation-filters="sRGB">
   <feFlood flood-color="rgb(0,0,0)" flood-opacity=".30196" result="flood"/>
   <feComposite in="flood" in2="SourceGraphic" operator="in" result="composite1"/>
   <feGaussianBlur in="composite1" result="blur" stdDeviation="12"/>
   <feOffset dx="6" dy="6" result="offset"/>
   <feComposite in="SourceGraphic" in2="offset" result="composite2"/>
  </filter>
  <filter id="filter240" x="-1.197" y="-.77985" width="3.6434" height="2.7222" color-interpolation-filters="sRGB">
   <feFlood flood-color="rgb(0,0,0)" flood-opacity=".30196" result="flood"/>
   <feComposite in="flood" in2="SourceGraphic" operator="in" result="composite1"/>
   <feGaussianBlur in="composite1" result="blur" stdDeviation="12"/>
   <feOffset dx="6" dy="6" result="offset"/>
   <feComposite in="SourceGraphic" in2="offset" result="composite2"/>
  </filter>
  <filter id="filter252" x="-.89427" y="-.57844" width="2.9748" height="2.2774" color-interpolation-filters="sRGB">
   <feFlood flood-color="rgb(0,0,0)" flood-opacity=".30196" result="flood"/>
   <feComposite in="flood" in2="SourceGraphic" operator="in" result="composite1"/>
   <feGaussianBlur in="composite1" result="blur" stdDeviation="12"/>
   <feOffset dx="6" dy="6" result="offset"/>
   <feComposite in="SourceGraphic" in2="offset" result="composite2"/>
  </filter>
  <filter id="filter264" x="-1.1215" y="-.73041" width="3.4766" height="2.613" color-interpolation-filters="sRGB">
   <feFlood flood-color="rgb(0,0,0)" flood-opacity=".30196" result="flood"/>
   <feComposite in="flood" in2="SourceGraphic" operator="in" result="composite1"/>
   <feGaussianBlur in="composite1" result="blur" stdDeviation="12"/>
   <feOffset dx="6" dy="6" result="offset"/>
   <feComposite in="SourceGraphic" in2="offset" result="composite2"/>
  </filter>
  <linearGradient id="linearGradient284" x1="31.73" x2="294.48" y1="119.4" y2="119.4" gradientUnits="userSpaceOnUse" xlink:href="#linear-gradient-2"/>
 </defs>
 <g transform="translate(28.758 28.801)" data-name="Layer 2">
  <g id="_Layer_" data-name="&lt;Layer&gt;">
   <g filter="url(#filter156)">
    <path class="cls-1" d="m388.64 179.08a60.51 60.51 0 0 0-21.43-31.38 71.82 71.82 0 0 0-132.84-54.44c-2.07-0.27-4.17-0.48-6.31-0.57a73 73 0 0 0-61.64 29.23 39 39 0 0 0-53.34 34.62 38.3 38.3 0 0 0 1 10.32 27.06 27.06 0 0 0-18.64 12.57 37.59 37.59 0 0 0-65 8.29c-0.72-0.07-1.45-0.16-2.2-0.2a27 27 0 1 0 17.47 46.48 37.52 37.52 0 0 0 17.73 5.39 39 39 0 0 0 70.38 1.61 37.94 37.94 0 0 0 19.41 3.37 52.67 52.67 0 0 0 80.8 4.31 39 39 0 0 0 68.83 0.7 60.37 60.37 0 0 0 74.51-15.46 28.32 28.32 0 1 0 11.27-54.82z"/>
    <path class="cls-2" d="m389.75 180.2a60.54 60.54 0 0 0-21.42-31.38 71.82 71.82 0 0 0-132.84-54.45c-2.08-0.26-4.18-0.46-6.31-0.55a73 73 0 0 0-61.65 29.18 39.59 39.59 0 0 0-12.66-2.73 39.07 39.07 0 0 0-40.68 37.34 39.89 39.89 0 0 0 1 10.32 27.12 27.12 0 0 0-18.63 12.59 37.57 37.57 0 0 0-65 8.29c-0.72-0.09-1.46-0.19-2.19-0.21a27 27 0 1 0 17.52 46.48 37.56 37.56 0 0 0 17.73 5.4 39 39 0 0 0 70.39 1.57 38.14 38.14 0 0 0 19.41 3.39 52.67 52.67 0 0 0 80.8 4.31 39 39 0 0 0 68.81 0.7 60.47 60.47 0 0 0 74.45-15.45 28.33 28.33 0 1 0 11.27-54.83z" fill="url(#linear-gradient)"/>
   </g>
   <g filter="url(#filter132)">
    <path class="cls-3" d="m275.31 139a77.57 77.57 0 1 0-149.93-39.75h-2.36a48.29 48.29 0 0 0-40.48 21.93 37.57 37.57 0 1 0 9.66 63.61 48.26 48.26 0 0 0 64.45-2.55 77.48 77.48 0 0 0 84.55 2.16 29.28 29.28 0 1 0 34.11-45.4z"/>
    <path class="cls-4" d="m276.41 140.16a77.56 77.56 0 1 0-149.92-39.78c-0.78 0-1.57-0.08-2.35-0.08a48.3 48.3 0 0 0-40.48 21.93 37.59 37.59 0 1 0 9.66 63.61 48.29 48.29 0 0 0 64.46-2.52 77.56 77.56 0 0 0 84.54 2.16 29.28 29.28 0 1 0 34.09-45.32z" fill="url(#linearGradient284)"/>
   </g>
   <g filter="url(#filter186)">
    <polygon class="cls-5" points="377.06 261.03 374.43 374.51 348.83 303.96 309.97 333.69 263.25 192.55 318.58 192.55 330.35 287.45"/>
    <polygon class="cls-6" points="377.06 261.03 374.43 374.51 353.67 304.13 312.3 331.85 265.76 192.55 318.58 192.55 333.91 289.74" fill="url(#linear-gradient-3)"/>
   </g>
   <g filter="url(#filter144)">
    <path class="cls-3" d="m389.59 126.3c-0.86 0-1.7 0-2.54 0.1a33.16 33.16 0 0 0-43.53-19.85 32.2 32.2 0 0 0-60.19-1 30.12 30.12 0 0 0-4.88-0.42 28.33 28.33 0 0 0-28.17 25.34 30.59 30.59 0 0 0-6.32-0.63 31.94 31.94 0 1 0 0 63.87h0.83a29.44 29.44 0 0 0 53.88 8.17 40.4 40.4 0 0 0 71.83-4 38.35 38.35 0 1 0 19.09-71.61z"/>
    <path class="cls-7" d="m390.9 127.61c-0.85 0-1.69 0-2.53 0.11a33.22 33.22 0 0 0-43.53-19.86 32.21 32.21 0 0 0-60.19-1 28.23 28.23 0 0 0-33 24.9 31.95 31.95 0 1 0-6.32 63.26h0.83a29.43 29.43 0 0 0 53.84 8.18 40.41 40.41 0 0 0 71.83-4 38.35 38.35 0 1 0 19.09-71.61z" fill="url(#linear-gradient-4)"/>
   </g>
   <g filter="url(#filter108)">
    <path class="cls-8" d="m358.2 48.83a46 46 0 0 0-5.16 0.32 48.09 48.09 0 0 0-72-24.73 37.18 37.18 0 0 0-71.42 5.67 30.78 30.78 0 0 0-48.86 21h-0.24a44.29 44.29 0 1 0 21.49 83 31.88 31.88 0 0 0 60.25 9.11 54.23 54.23 0 0 0 96.43-13.66 42.71 42.71 0 1 0 19.51-80.71z"/>
    <path class="cls-9" d="m359.5 50a43.88 43.88 0 0 0-5.17 0.33 48.08 48.08 0 0 0-72-24.75 37.19 37.19 0 0 0-71.43 5.68 30.78 30.78 0 0 0-48.86 21h-0.23a44.29 44.29 0 1 0 21.49 83 31.89 31.89 0 0 0 60.24 9.1 54.25 54.25 0 0 0 96.46-13.65 42.71 42.71 0 1 0 19.5-80.71z"/>
   </g>
   <g filter="url(#filter120)">
    <path class="cls-10" d="m219.47 155.07a29.14 29.14 0 0 0-10.56 1.42 50.17 50.17 0 0 0-96.5-7 34.84 34.84 0 1 0 22.12 60.12 50.16 50.16 0 0 0 60.58-7.82 29 29 0 1 0 24.39-46.73z"/>
    <path class="cls-11" d="m221.24 155.27a28.56 28.56 0 0 0-10.56 1.42 50.16 50.16 0 0 0-96.5-7 34.84 34.84 0 1 0 22.11 60.09 50.1 50.1 0 0 0 60.57-7.78 29 29 0 1 0 24.38-46.72z"/>
   </g>
   <g filter="url(#filter252)">
    <path class="cls-12" d="m126.91 321.6a15.16 15.16 0 0 1-15.17 15.17c-8.37 0-15.74-6.77-15.74-15.17 0-14.23 15.88-33.22 15.88-33.22l1.14-0.59a2.35 2.35 0 0 0 0.29 1.08c2.9 4.5 13.6 21.88 13.6 32.73z"/>
    <path class="cls-13" d="m128.2 322a15.17 15.17 0 1 1-30.33 0c0-12.54 15.16-34.23 15.16-34.23s15.17 21.71 15.17 34.23z"/>
   </g>
   <g filter="url(#filter264)">
    <path class="cls-12" d="m76.66 258a12.09 12.09 0 0 1-12.1 12.09c-6.68 0.02-12.56-5.38-12.56-12.09 0-11.33 12.67-26.49 12.67-26.49l0.91-0.46a2 2 0 0 0 0.23 0.86c2.32 3.61 10.85 17.45 10.85 26.09z"/>
    <path class="cls-13" d="m77.68 258.38a12.1 12.1 0 0 1-24.2 0c0-10 12.1-27.31 12.1-27.31s12.1 17.28 12.1 27.31z"/>
   </g>
   <g filter="url(#filter216)">
    <path class="cls-12" d="m405.76 211.13a11.33 11.33 0 0 1-11.33 11.33c-6.26 0-11.76-5.07-11.76-11.33 0-10.64 11.87-24.84 11.87-24.84l0.85-0.45a1.84 1.84 0 0 0 0.21 0.81c2.18 3.35 10.16 16.35 10.16 24.48z"/>
    <path class="cls-13" d="m406.73 211.46a11.34 11.34 0 0 1-22.67 0c0-9.4 11.33-25.62 11.33-25.62s11.34 16.22 11.34 25.62z"/>
   </g>
   <g filter="url(#filter240)">
    <path class="cls-12" d="m256.24 361.28a11.32 11.32 0 0 1-11.34 11.31c-6.26 0-11.77-5-11.77-11.31 0-10.64 11.86-24.84 11.86-24.84l0.87-0.45a1.9 1.9 0 0 0 0.21 0.81c2.17 3.36 10.17 16.35 10.17 24.48z"/>
    <path class="cls-13" d="m257.19 361.59a11.33 11.33 0 1 1-22.66 0c0-9.38 11.33-25.6 11.33-25.6s11.33 16.22 11.33 25.6z"/>
   </g>
   <g filter="url(#filter228)">
    <path class="cls-12" d="m217.52 298.62a18.12 18.12 0 0 1-18.13 18.13c-10 0-18.84-8.1-18.84-18.13 0-17 19-39.77 19-39.77l1.37-0.7a2.84 2.84 0 0 0 0.35 1.31c3.46 5.38 16.25 26.17 16.25 39.16z"/>
    <path class="cls-13" d="m219.07 299.14a18.15 18.15 0 0 1-36.29 0c0-15 18.14-41 18.14-41s18.15 25.96 18.15 41z"/>
   </g>
  </g>
 </g>
</svg>
