<?xml version="1.0" encoding="UTF-8" standalone="no"?>
<svg
   viewBox="0 0 492.82971 438.11077"
   version="1.1"
   id="svg94"
   sodipodi:docname="thunderstorm-dark.svg"
   width="492.82971"
   height="438.11078"
   inkscape:version="1.1 (c68e22c387, 2021-05-23)"
   xmlns:inkscape="http://www.inkscape.org/namespaces/inkscape"
   xmlns:sodipodi="http://sodipodi.sourceforge.net/DTD/sodipodi-0.dtd"
   xmlns:xlink="http://www.w3.org/1999/xlink"
   xmlns="http://www.w3.org/2000/svg"
   xmlns:svg="http://www.w3.org/2000/svg">
  <sodipodi:namedview
     id="namedview96"
     pagecolor="#ffffff"
     bordercolor="#666666"
     borderopacity="1.0"
     inkscape:pageshadow="2"
     inkscape:pageopacity="0.0"
     inkscape:pagecheckerboard="0"
     showgrid="false"
     fit-margin-top="0"
     fit-margin-left="0"
     fit-margin-right="0"
     fit-margin-bottom="0"
     inkscape:zoom="1.1107847"
     inkscape:cx="103.08028"
     inkscape:cy="146.29298"
     inkscape:window-width="1920"
     inkscape:window-height="1017"
     inkscape:window-x="-8"
     inkscape:window-y="-8"
     inkscape:window-maximized="1"
     inkscape:current-layer="g26" />
  <defs
     id="defs20">
    <linearGradient
       inkscape:collect="always"
       id="linearGradient1569">
      <stop
         style="stop-color:#5b5466;stop-opacity:1"
         offset="0"
         id="stop1565" />
      <stop
         style="stop-color:#4e4757;stop-opacity:1"
         offset="1"
         id="stop1567" />
    </linearGradient>
    <style
       id="style2">
      .cls-1 {
        fill: #008dd4;
      }

      .cls-2 {
        fill: url(#linear-gradient);
      }

      .cls-3 {
        fill: #4fc5ff;
      }

      .cls-4 {
        fill: url(#linear-gradient-2);
      }

      .cls-5 {
        fill: #ffe3ab;
      }

      .cls-6 {
        fill: url(#linear-gradient-3);
      }

      .cls-7 {
        fill: url(#linear-gradient-4);
      }

      .cls-8 {
        fill: #63ccff;
      }

      .cls-9 {
        fill: #007fc9;
      }

      .cls-10 {
        fill: #6ed8ff;
      }

      .cls-11 {
        fill: #008cde;
      }

      .cls-12 {
        fill: #b3edff;
      }

      .cls-13 {
        fill: #61d7ff;
      }
    </style>
    <linearGradient
       id="linear-gradient"
       x1="116.11"
       y1="89.459999"
       x2="331.79999"
       y2="305.14999"
       gradientUnits="userSpaceOnUse">
      <stop
         offset="0"
         stop-color="#1062a1"
         id="stop4"
         style="stop-color:#453f4d;stop-opacity:1" />
      <stop
         offset="1"
         stop-color="#0a4d80"
         id="stop6"
         style="stop-color:#28242c;stop-opacity:1" />
    </linearGradient>
    <linearGradient
       id="linear-gradient-2"
       x1="31.73"
       y1="119.4"
       x2="294.48001"
       y2="119.4"
       gradientUnits="userSpaceOnUse">
      <stop
         offset="0"
         stop-color="#076bba"
         id="stop9"
         style="stop-color:#5b5466;stop-opacity:1" />
      <stop
         offset="1"
         stop-color="#0060ab"
         id="stop11"
         style="stop-color:#4e4757;stop-opacity:1" />
    </linearGradient>
    <linearGradient
       id="linear-gradient-3"
       x1="45.599998"
       y1="-222.11"
       x2="-30.42"
       y2="-336.79001"
       gradientTransform="matrix(0.97,0.23,-0.23,0.97,264.83,541.99)"
       gradientUnits="userSpaceOnUse">
      <stop
         offset="0"
         stop-color="#ffd45c"
         id="stop14" />
      <stop
         offset="1"
         stop-color="#ff9d00"
         id="stop16" />
    </linearGradient>
    <linearGradient
       id="linear-gradient-4"
       x1="213.34"
       y1="154.92999"
       x2="429.25"
       y2="154.92999"
       xlink:href="#linear-gradient-2" />
    <filter
       style="color-interpolation-filters:sRGB"
       inkscape:label="Drop Shadow"
       id="filter108"
       x="-0.1006965"
       y="-0.17128647"
       width="1.2223714"
       height="1.3782576">
      <feFlood
         flood-opacity="0.301961"
         flood-color="rgb(0,0,0)"
         result="flood"
         id="feFlood98" />
      <feComposite
         in="flood"
         in2="SourceGraphic"
         operator="in"
         result="composite1"
         id="feComposite100" />
      <feGaussianBlur
         in="composite1"
         stdDeviation="12"
         result="blur"
         id="feGaussianBlur102" />
      <feOffset
         dx="6"
         dy="6"
         result="offset"
         id="feOffset104" />
      <feComposite
         in="SourceGraphic"
         in2="offset"
         operator="over"
         result="composite2"
         id="feComposite106" />
    </filter>
    <filter
       style="color-interpolation-filters:sRGB"
       inkscape:label="Drop Shadow"
       id="filter120"
       x="-0.16645197"
       y="-0.2789548"
       width="1.3675814"
       height="1.6160252">
      <feFlood
         flood-opacity="0.301961"
         flood-color="rgb(0,0,0)"
         result="flood"
         id="feFlood110" />
      <feComposite
         in="flood"
         in2="SourceGraphic"
         operator="in"
         result="composite1"
         id="feComposite112" />
      <feGaussianBlur
         in="composite1"
         stdDeviation="12"
         result="blur"
         id="feGaussianBlur114" />
      <feOffset
         dx="6"
         dy="6"
         result="offset"
         id="feOffset116" />
      <feComposite
         in="SourceGraphic"
         in2="offset"
         operator="over"
         result="composite2"
         id="feComposite118" />
    </filter>
    <filter
       style="color-interpolation-filters:sRGB"
       inkscape:label="Drop Shadow"
       id="filter132"
       x="-0.10914605"
       y="-0.18357518"
       width="1.2410309"
       height="1.4053952">
      <feFlood
         flood-opacity="0.301961"
         flood-color="rgb(0,0,0)"
         result="flood"
         id="feFlood122" />
      <feComposite
         in="flood"
         in2="SourceGraphic"
         operator="in"
         result="composite1"
         id="feComposite124" />
      <feGaussianBlur
         in="composite1"
         stdDeviation="12"
         result="blur"
         id="feGaussianBlur126" />
      <feOffset
         dx="6"
         dy="6"
         result="offset"
         id="feOffset128" />
      <feComposite
         in="SourceGraphic"
         in2="offset"
         operator="over"
         result="composite2"
         id="feComposite130" />
    </filter>
    <filter
       style="color-interpolation-filters:sRGB"
       inkscape:label="Drop Shadow"
       id="filter144"
       x="-0.13222116"
       y="-0.2087931"
       width="1.2919884"
       height="1.4610848">
      <feFlood
         flood-opacity="0.301961"
         flood-color="rgb(0,0,0)"
         result="flood"
         id="feFlood134" />
      <feComposite
         in="flood"
         in2="SourceGraphic"
         operator="in"
         result="composite1"
         id="feComposite136" />
      <feGaussianBlur
         in="composite1"
         stdDeviation="12"
         result="blur"
         id="feGaussianBlur138" />
      <feOffset
         dx="6"
         dy="6"
         result="offset"
         id="feOffset140" />
      <feComposite
         in="SourceGraphic"
         in2="offset"
         operator="over"
         result="composite2"
         id="feComposite142" />
    </filter>
    <filter
       style="color-interpolation-filters:sRGB"
       inkscape:label="Drop Shadow"
       id="filter156"
       x="-0.069114307"
       y="-0.13097141"
       width="1.1526274"
       height="1.2892285">
      <feFlood
         flood-opacity="0.301961"
         flood-color="rgb(0,0,0)"
         result="flood"
         id="feFlood146" />
      <feComposite
         in="flood"
         in2="SourceGraphic"
         operator="in"
         result="composite1"
         id="feComposite148" />
      <feGaussianBlur
         in="composite1"
         stdDeviation="12"
         result="blur"
         id="feGaussianBlur150" />
      <feOffset
         dx="6"
         dy="6"
         result="offset"
         id="feOffset152" />
      <feComposite
         in="SourceGraphic"
         in2="offset"
         operator="over"
         result="composite2"
         id="feComposite154" />
    </filter>
    <filter
       style="color-interpolation-filters:sRGB"
       inkscape:label="Drop Shadow"
       id="filter186"
       x="-0.25305333"
       y="-0.15827654"
       width="1.5588261"
       height="1.3495274">
      <feFlood
         flood-opacity="0.301961"
         flood-color="rgb(0,0,0)"
         result="flood"
         id="feFlood176" />
      <feComposite
         in="flood"
         in2="SourceGraphic"
         operator="in"
         result="composite1"
         id="feComposite178" />
      <feGaussianBlur
         in="composite1"
         stdDeviation="12"
         result="blur"
         id="feGaussianBlur180" />
      <feOffset
         dx="6"
         dy="6"
         result="offset"
         id="feOffset182" />
      <feComposite
         in="SourceGraphic"
         in2="offset"
         operator="over"
         result="composite2"
         id="feComposite184" />
    </filter>
    <filter
       style="color-interpolation-filters:sRGB"
       inkscape:label="Drop Shadow"
       id="filter216"
       x="-1.1970075"
       y="-0.78638488"
       width="3.6433915"
       height="2.7365999">
      <feFlood
         flood-opacity="0.301961"
         flood-color="rgb(0,0,0)"
         result="flood"
         id="feFlood206" />
      <feComposite
         in="flood"
         in2="SourceGraphic"
         operator="in"
         result="composite1"
         id="feComposite208" />
      <feGaussianBlur
         in="composite1"
         stdDeviation="12"
         result="blur"
         id="feGaussianBlur210" />
      <feOffset
         dx="6"
         dy="6"
         result="offset"
         id="feOffset212" />
      <feComposite
         in="SourceGraphic"
         in2="offset"
         operator="over"
         result="composite2"
         id="feComposite214" />
    </filter>
    <filter
       style="color-interpolation-filters:sRGB"
       inkscape:label="Drop Shadow"
       id="filter228"
       x="-0.74766355"
       y="-0.4904298"
       width="2.6510903"
       height="2.0830325">
      <feFlood
         flood-opacity="0.301961"
         flood-color="rgb(0,0,0)"
         result="flood"
         id="feFlood218" />
      <feComposite
         in="flood"
         in2="SourceGraphic"
         operator="in"
         result="composite1"
         id="feComposite220" />
      <feGaussianBlur
         in="composite1"
         stdDeviation="12"
         result="blur"
         id="feGaussianBlur222" />
      <feOffset
         dx="6"
         dy="6"
         result="offset"
         id="feOffset224" />
      <feComposite
         in="SourceGraphic"
         in2="offset"
         operator="over"
         result="composite2"
         id="feComposite226" />
    </filter>
    <filter
       style="color-interpolation-filters:sRGB"
       inkscape:label="Drop Shadow"
       id="filter240"
       x="-1.1970075"
       y="-0.77985376"
       width="3.6433915"
       height="2.7221771">
      <feFlood
         flood-opacity="0.301961"
         flood-color="rgb(0,0,0)"
         result="flood"
         id="feFlood230" />
      <feComposite
         in="flood"
         in2="SourceGraphic"
         operator="in"
         result="composite1"
         id="feComposite232" />
      <feGaussianBlur
         in="composite1"
         stdDeviation="12"
         result="blur"
         id="feGaussianBlur234" />
      <feOffset
         dx="6"
         dy="6"
         result="offset"
         id="feOffset236" />
      <feComposite
         in="SourceGraphic"
         in2="offset"
         operator="over"
         result="composite2"
         id="feComposite238" />
    </filter>
    <filter
       style="color-interpolation-filters:sRGB"
       inkscape:label="Drop Shadow"
       id="filter252"
       x="-0.89427108"
       y="-0.57843574"
       width="2.9748486"
       height="2.2773789">
      <feFlood
         flood-opacity="0.301961"
         flood-color="rgb(0,0,0)"
         result="flood"
         id="feFlood242" />
      <feComposite
         in="flood"
         in2="SourceGraphic"
         operator="in"
         result="composite1"
         id="feComposite244" />
      <feGaussianBlur
         in="composite1"
         stdDeviation="12"
         result="blur"
         id="feGaussianBlur246" />
      <feOffset
         dx="6"
         dy="6"
         result="offset"
         id="feOffset248" />
      <feComposite
         in="SourceGraphic"
         in2="offset"
         operator="over"
         result="composite2"
         id="feComposite250" />
    </filter>
    <filter
       style="color-interpolation-filters:sRGB"
       inkscape:label="Drop Shadow"
       id="filter264"
       x="-1.1214953"
       y="-0.73040833"
       width="3.4766355"
       height="2.6129851">
      <feFlood
         flood-opacity="0.301961"
         flood-color="rgb(0,0,0)"
         result="flood"
         id="feFlood254" />
      <feComposite
         in="flood"
         in2="SourceGraphic"
         operator="in"
         result="composite1"
         id="feComposite256" />
      <feGaussianBlur
         in="composite1"
         stdDeviation="12"
         result="blur"
         id="feGaussianBlur258" />
      <feOffset
         dx="6"
         dy="6"
         result="offset"
         id="feOffset260" />
      <feComposite
         in="SourceGraphic"
         in2="offset"
         operator="over"
         result="composite2"
         id="feComposite262" />
    </filter>
    <linearGradient
       inkscape:collect="always"
       xlink:href="#linearGradient1569"
       id="linearGradient1571"
       x1="31.675084"
       y1="119.36695"
       x2="294.47995"
       y2="119.36695"
       gradientUnits="userSpaceOnUse" />
  </defs>
  <g
     id="Layer_2"
     data-name="Layer 2"
     transform="translate(28.757966,28.80077)">
    <g
       id="_Layer_"
       data-name="&lt;Layer&gt;">
      <g
         id="g90">
        <g
           id="g26"
           style="filter:url(#filter156)">
          <path
             class="cls-1"
             d="M 388.64,179.08 A 60.51,60.51 0 0 0 367.21,147.7 71.82,71.82 0 0 0 234.37,93.26 c -2.07,-0.27 -4.17,-0.48 -6.31,-0.57 a 73,73 0 0 0 -61.64,29.23 39,39 0 0 0 -53.34,34.62 38.3,38.3 0 0 0 1,10.32 27.06,27.06 0 0 0 -18.64,12.57 37.59,37.59 0 0 0 -65,8.29 c -0.72,-0.07 -1.45,-0.16 -2.2,-0.2 a 27,27 0 1 0 17.47,46.48 37.52,37.52 0 0 0 17.73,5.39 39,39 0 0 0 70.38,1.61 37.94,37.94 0 0 0 19.41,3.37 52.67,52.67 0 0 0 80.8,4.31 39,39 0 0 0 68.83,0.7 60.37,60.37 0 0 0 74.51,-15.46 28.32,28.32 0 1 0 11.27,-54.82 z"
             id="path22"
             style="fill:#694f9c;fill-opacity:1" />
          <path
             class="cls-2"
             d="M 389.75,180.2 A 60.54,60.54 0 0 0 368.33,148.82 71.82,71.82 0 0 0 235.49,94.37 c -2.08,-0.26 -4.18,-0.46 -6.31,-0.55 a 73,73 0 0 0 -61.65,29.18 39.59,39.59 0 0 0 -12.66,-2.73 39.07,39.07 0 0 0 -40.68,37.34 39.89,39.89 0 0 0 1,10.32 27.12,27.12 0 0 0 -18.63,12.59 37.57,37.57 0 0 0 -65,8.29 c -0.72,-0.09 -1.46,-0.19 -2.19,-0.21 a 27,27 0 1 0 17.52,46.48 37.56,37.56 0 0 0 17.73,5.4 39,39 0 0 0 70.39,1.57 38.14,38.14 0 0 0 19.41,3.39 52.67,52.67 0 0 0 80.8,4.31 39,39 0 0 0 68.81,0.7 60.47,60.47 0 0 0 74.45,-15.45 28.33,28.33 0 1 0 11.27,-54.83 z"
             id="path24"
             style="fill:url(#linear-gradient)" />
        </g>
        <g
           id="g32"
           style="filter:url(#filter132)">
          <path
             class="cls-3"
             d="M 275.31,139 A 77.57,77.57 0 1 0 125.38,99.25 c -0.78,0 -1.58,0 -2.36,0 a 48.29,48.29 0 0 0 -40.48,21.93 37.57,37.57 0 1 0 9.66,63.61 48.26,48.26 0 0 0 64.45,-2.55 77.48,77.48 0 0 0 84.55,2.16 29.28,29.28 0 1 0 34.11,-45.4 z"
             id="path28"
             style="fill:#afa3c7;fill-opacity:1" />
          <path
             class="cls-4"
             d="M 276.41,140.16 A 77.56,77.56 0 1 0 126.49,100.38 c -0.78,0 -1.57,-0.08 -2.35,-0.08 a 48.3,48.3 0 0 0 -40.48,21.93 37.59,37.59 0 1 0 9.66,63.61 48.29,48.29 0 0 0 64.46,-2.52 77.56,77.56 0 0 0 84.54,2.16 29.28,29.28 0 1 0 34.09,-45.32 z"
             id="path30"
             style="fill:url(#linearGradient1571);fill-opacity:1" />
        </g>
        <g
           id="g38"
           style="filter:url(#filter186)">
          <polygon
             class="cls-5"
             points="377.06,261.03 374.43,374.51 348.83,303.96 309.97,333.69 263.25,192.55 318.58,192.55 330.35,287.45 "
             id="polygon34" />
          <polygon
             class="cls-6"
             points="377.06,261.03 374.43,374.51 353.67,304.13 312.3,331.85 265.76,192.55 318.58,192.55 333.91,289.74 "
             id="polygon36"
             style="fill:url(#linear-gradient-3)" />
        </g>
        <g
           id="g44"
           style="filter:url(#filter144)">
          <path
             class="cls-3"
             d="m 389.59,126.3 c -0.86,0 -1.7,0 -2.54,0.1 a 33.16,33.16 0 0 0 -43.53,-19.85 32.2,32.2 0 0 0 -60.19,-1 30.12,30.12 0 0 0 -4.88,-0.42 28.33,28.33 0 0 0 -28.17,25.34 30.59,30.59 0 0 0 -6.32,-0.63 31.94,31.94 0 1 0 0,63.87 c 0.28,0 0.56,0 0.83,0 a 29.44,29.44 0 0 0 53.88,8.17 40.4,40.4 0 0 0 71.83,-4 38.35,38.35 0 1 0 19.09,-71.61 z"
             id="path40"
             style="fill:#afa3c7;fill-opacity:1" />
          <path
             class="cls-7"
             d="m 390.9,127.61 c -0.85,0 -1.69,0 -2.53,0.11 a 33.22,33.22 0 0 0 -43.53,-19.86 32.21,32.21 0 0 0 -60.19,-1 28.23,28.23 0 0 0 -33,24.9 31.95,31.95 0 1 0 -6.32,63.26 h 0.83 a 29.43,29.43 0 0 0 53.84,8.18 40.41,40.41 0 0 0 71.83,-4 38.35,38.35 0 1 0 19.09,-71.61 z"
             id="path42"
             style="fill:url(#linear-gradient-4)" />
        </g>
        <g
           id="g50"
           style="filter:url(#filter108)">
          <path
             class="cls-8"
             d="m 358.2,48.83 a 46,46 0 0 0 -5.16,0.32 48.09,48.09 0 0 0 -72,-24.73 37.18,37.18 0 0 0 -71.42,5.67 30.78,30.78 0 0 0 -48.86,21 h -0.24 a 44.29,44.29 0 1 0 21.49,83 31.88,31.88 0 0 0 60.25,9.11 54.23,54.23 0 0 0 96.43,-13.66 42.71,42.71 0 1 0 19.51,-80.71 z"
             id="path46"
             style="fill:#b9b2c7;fill-opacity:1" />
          <path
             class="cls-9"
             d="m 359.5,50 a 43.88,43.88 0 0 0 -5.17,0.33 48.08,48.08 0 0 0 -72,-24.75 37.19,37.19 0 0 0 -71.43,5.68 30.78,30.78 0 0 0 -48.86,21 h -0.23 a 44.29,44.29 0 1 0 21.49,83 31.89,31.89 0 0 0 60.24,9.1 A 54.25,54.25 0 0 0 340,130.71 42.71,42.71 0 1 0 359.5,50 Z"
             id="path48"
             style="fill:#686075;fill-opacity:1" />
        </g>
        <g
           id="g56"
           style="filter:url(#filter120)">
          <path
             class="cls-10"
             d="m 219.47,155.07 a 29.14,29.14 0 0 0 -10.56,1.42 50.17,50.17 0 0 0 -96.5,-7 v 0 a 34.84,34.84 0 1 0 22.12,60.12 50.16,50.16 0 0 0 60.58,-7.82 29,29 0 1 0 24.39,-46.73 z"
             id="path52"
             style="fill:#bfbbc7;fill-opacity:1" />
          <path
             class="cls-11"
             d="m 221.24,155.27 a 28.56,28.56 0 0 0 -10.56,1.42 50.16,50.16 0 0 0 -96.5,-7 v 0 a 34.84,34.84 0 1 0 22.11,60.09 50.1,50.1 0 0 0 60.57,-7.78 29,29 0 1 0 24.38,-46.72 z"
             id="path54"
             style="fill:#6e667d;fill-opacity:1" />
        </g>
        <g
           id="g88">
          <g
             id="g62"
             style="filter:url(#filter252)">
            <path
               class="cls-12"
               d="m 126.91,321.6 a 15.16,15.16 0 0 1 -15.17,15.17 C 103.37,336.77 96,330 96,321.6 c 0,-14.23 15.88,-33.22 15.88,-33.22 l 1.14,-0.59 a 2.35,2.35 0 0 0 0.29,1.08 c 2.9,4.5 13.6,21.88 13.6,32.73 z"
               id="path58"
               style="fill:#e8e8e8;fill-opacity:1" />
            <path
               class="cls-13"
               d="m 128.2,322 a 15.17,15.17 0 1 1 -30.33,0 c 0,-12.54 15.16,-34.23 15.16,-34.23 0,0 15.17,21.71 15.17,34.23 z"
               id="path60"
               style="fill:#c0bacf;fill-opacity:1" />
          </g>
          <g
             id="g68"
             style="filter:url(#filter264)">
            <path
               class="cls-12"
               d="m 76.66,258 a 12.09,12.09 0 0 1 -12.1,12.09 C 57.88,270.11 52,264.71 52,258 52,246.67 64.67,231.51 64.67,231.51 l 0.91,-0.46 a 2,2 0 0 0 0.23,0.86 c 2.32,3.61 10.85,17.45 10.85,26.09 z"
               id="path64"
               style="fill:#e8e8e8;fill-opacity:1" />
            <path
               class="cls-13"
               d="m 77.68,258.38 a 12.1,12.1 0 0 1 -24.2,0 c 0,-10 12.1,-27.31 12.1,-27.31 0,0 12.1,17.28 12.1,27.31 z"
               id="path66"
               style="fill:#c0bacf;fill-opacity:1" />
          </g>
          <g
             id="g74"
             style="filter:url(#filter216)">
            <path
               class="cls-12"
               d="m 405.76,211.13 a 11.33,11.33 0 0 1 -11.33,11.33 c -6.26,0 -11.76,-5.07 -11.76,-11.33 0,-10.64 11.87,-24.84 11.87,-24.84 l 0.85,-0.45 a 1.84,1.84 0 0 0 0.21,0.81 c 2.18,3.35 10.16,16.35 10.16,24.48 z"
               id="path70"
               style="fill:#e8e8e8;fill-opacity:1" />
            <path
               class="cls-13"
               d="m 406.73,211.46 a 11.34,11.34 0 0 1 -22.67,0 c 0,-9.4 11.33,-25.62 11.33,-25.62 0,0 11.34,16.22 11.34,25.62 z"
               id="path72"
               style="fill:#c0bacf;fill-opacity:1" />
          </g>
          <g
             id="g80"
             style="filter:url(#filter240)">
            <path
               class="cls-12"
               d="m 256.24,361.28 a 11.32,11.32 0 0 1 -11.34,11.31 c -6.26,0 -11.77,-5 -11.77,-11.31 0,-10.64 11.86,-24.84 11.86,-24.84 l 0.87,-0.45 a 1.9,1.9 0 0 0 0.21,0.81 c 2.17,3.36 10.17,16.35 10.17,24.48 z"
               id="path76"
               style="fill:#e8e8e8;fill-opacity:1" />
            <path
               class="cls-13"
               d="m 257.19,361.59 a 11.33,11.33 0 1 1 -22.66,0 c 0,-9.38 11.33,-25.6 11.33,-25.6 0,0 11.33,16.22 11.33,25.6 z"
               id="path78"
               style="fill:#c0bacf;fill-opacity:1" />
          </g>
          <g
             id="g86"
             style="filter:url(#filter228)">
            <path
               class="cls-12"
               d="m 217.52,298.62 a 18.12,18.12 0 0 1 -18.13,18.13 c -10,0 -18.84,-8.1 -18.84,-18.13 0,-17 19,-39.77 19,-39.77 l 1.37,-0.7 a 2.84,2.84 0 0 0 0.35,1.31 c 3.46,5.38 16.25,26.17 16.25,39.16 z"
               id="path82"
               style="fill:#e8e8e8;fill-opacity:1" />
            <path
               class="cls-13"
               d="m 219.07,299.14 a 18.15,18.15 0 0 1 -36.29,0 c 0,-15 18.14,-41 18.14,-41 0,0 18.15,25.96 18.15,41 z"
               id="path84"
               style="fill:#c0bacf;fill-opacity:1" />
          </g>
        </g>
      </g>
    </g>
  </g>
</svg>
