<?xml version="1.0" encoding="UTF-8"?>
<svg width="424.21" height="405.14" version="1.1" viewBox="0 0 424.21 405.14" xmlns="http://www.w3.org/2000/svg" xmlns:xlink="http://www.w3.org/1999/xlink">
 <defs>
  <style>.cls-1 {
        fill: #ffa1a1;
      }

      .cls-2 {
        fill: #36bcff;
      }

      .cls-3 {
        fill: #0a4d80;
      }

      .cls-4 {
        fill: url(#linear-gradient);
      }

      .cls-5 {
        fill: url(#linear-gradient-2);
      }

      .cls-6 {
        fill: #ffe194;
      }

      .cls-7 {
        fill: url(#linear-gradient-3);
      }

      .cls-8 {
        fill: url(#linear-gradient-4);
      }</style>
  <linearGradient id="linear-gradient" x1="57.44" x2="99.8" y1="58.41" y2="100.76" gradientUnits="userSpaceOnUse">
   <stop stop-color="#ff1a1a" offset="0"/>
   <stop stop-color="#d40000" offset="1"/>
  </linearGradient>
  <linearGradient id="linear-gradient-2" x1="221.95" x2="342.11" y1="59.33" y2="179.49" xlink:href="#linear-gradient"/>
  <linearGradient id="linear-gradient-3" x1="108.25" x2="226.8" y1="56.07" y2="174.62" gradientUnits="userSpaceOnUse">
   <stop stop-color="#ff9d00" offset="0"/>
   <stop stop-color="#ffd45c" offset="1"/>
  </linearGradient>
  <linearGradient id="linear-gradient-4" x1="175.77" x2="224.25" y1="286.53" y2="335.01" gradientUnits="userSpaceOnUse">
   <stop stop-color="#ffd45c" offset="0"/>
   <stop stop-color="#ff9d00" offset="1"/>
  </linearGradient>
  <filter id="filter58" x="-3.6" y="-.098294" width="8.95" height="1.2171" color-interpolation-filters="sRGB">
   <feFlood flood-color="rgb(0,0,0)" flood-opacity=".30196" result="flood"/>
   <feComposite in="flood" in2="SourceGraphic" operator="in" result="composite1"/>
   <feGaussianBlur in="composite1" result="blur" stdDeviation="12"/>
   <feOffset dx="6" dy="6" result="offset"/>
   <feComposite in="SourceGraphic" in2="offset" result="composite2"/>
  </filter>
  <filter id="filter70" x="-.47036" y="-.49793" width="2.0387" height="2.0996" color-interpolation-filters="sRGB">
   <feFlood flood-color="rgb(0,0,0)" flood-opacity=".30196" result="flood"/>
   <feComposite in="flood" in2="SourceGraphic" operator="in" result="composite1"/>
   <feGaussianBlur in="composite1" result="blur" stdDeviation="12"/>
   <feOffset dx="6" dy="6" result="offset"/>
   <feComposite in="SourceGraphic" in2="offset" result="composite2"/>
  </filter>
  <filter id="filter119" x="-.15972" y="-.17191" width="1.3527" height="1.3796" color-interpolation-filters="sRGB">
   <feFlood flood-color="rgb(0,0,0)" flood-opacity=".30196" result="flood"/>
   <feComposite in="flood" in2="SourceGraphic" operator="in" result="composite1"/>
   <feGaussianBlur in="composite1" result="blur" stdDeviation="12"/>
   <feOffset dx="6" dy="6" result="offset"/>
   <feComposite in="SourceGraphic" in2="offset" result="composite2"/>
  </filter>
  <filter id="filter131" x="-.14845" y="-.17187" width="1.3278" height="1.3795" color-interpolation-filters="sRGB">
   <feFlood flood-color="rgb(0,0,0)" flood-opacity=".30196" result="flood"/>
   <feComposite in="flood" in2="SourceGraphic" operator="in" result="composite1"/>
   <feGaussianBlur in="composite1" result="blur" stdDeviation="12"/>
   <feOffset dx="6" dy="6" result="offset"/>
   <feComposite in="SourceGraphic" in2="offset" result="composite2"/>
  </filter>
  <filter id="filter143" x="-.15974" y="-.17191" width="1.3528" height="1.3796" color-interpolation-filters="sRGB">
   <feFlood flood-color="rgb(0,0,0)" flood-opacity=".30196" result="flood"/>
   <feComposite in="flood" in2="SourceGraphic" operator="in" result="composite1"/>
   <feGaussianBlur in="composite1" result="blur" stdDeviation="12"/>
   <feOffset dx="6" dy="6" result="offset"/>
   <feComposite in="SourceGraphic" in2="offset" result="composite2"/>
  </filter>
  <linearGradient id="linearGradient873" x1="57.44" x2="99.8" y1="58.41" y2="100.76" gradientUnits="userSpaceOnUse" xlink:href="#linear-gradient"/>
 </defs>
 <g transform="translate(27.62 28.8)" data-name="Layer 2">
  <g id="_Layer_" data-name="&lt;Layer&gt;">
   <path class="cls-1" d="m180.3 12.6c-96.73 0-175.71 69.29-180.3 156.4 0.42 0.49 0.66 0.9 1.18 1.53 0.46-0.1 0.75-2 1.2-2.09a125.49 125.49 0 0 1 26.75-2.84c22 0 42 5.53 57.09 14.58 12.31-20.47 94.08-78.26 94.08-78.26s81.78 57.79 94.07 78.26c15.11-9 35.12-14.58 57.09-14.58a124.2 124.2 0 0 1 29.15 3.4c-4.61-87.11-83.61-156.4-180.31-156.4z"/>
   <path class="cls-2" d="m179 293a4 4 0 0 1-4-4v-285a4 4 0 1 1 8 0v285a4 4 0 0 1-4 4z"/>
   <path class="cls-3" d="m181.5 293a4 4 0 0 1-4-4v-285a4 4 0 1 1 8 0v285a4 4 0 0 1-4 4z" filter="url(#filter58)"/>
   <path class="cls-4" d="m1.18 170.48a124 124 0 0 1 29.13-3.4c22 0 42 5.51 57.09 14.58 12.31-20.45 94.1-78.28 94.1-78.28v-89.25c-96.75 0-175.71 69.29-180.32 156.35z" fill="url(#linearGradient873)" filter="url(#filter119)"/>
   <path class="cls-5" d="m361.79 170.48a124.27 124.27 0 0 0-29.15-3.4c-22 0-42 5.51-57.09 14.58-12.29-20.45-94.05-78.28-94.05-78.28v-89.25c96.72 0 175.68 69.29 180.29 156.35z" fill="url(#linear-gradient-2)" filter="url(#filter143)"/>
   <path class="cls-6" d="m180 155.62c36.63 0 69.84 9.36 94.07 24.53a184.61 184.61 0 0 0 2.93-32.84c0-74.41-43.43-134.72-97-134.72s-97 60.31-97 134.72a185.57 185.57 0 0 0 2.91 32.84c0.37 0.44 1 0.87 1.55 1.51 0.56-0.33 0.33-2.67 0.87-3 23.95-14.28 56.16-23.04 91.67-23.04z"/>
   <path class="cls-7" d="m181.5 157.17c36.63 0 69.84 9.36 94.07 24.53a185 185 0 0 0 2.91-32.84c0-74.41-43.43-134.73-97-134.73s-97 60.32-97 134.73a185 185 0 0 0 2.92 32.84c24.24-15.17 57.44-24.53 94.1-24.53z" fill="url(#linear-gradient-3)" filter="url(#filter131)"/>
   <path class="cls-6" d="m202.58 341.54a30.61 30.61 0 0 1-30.58-30.54v-20.3a7 7 0 1 1 13.95 0v20.3a16.63 16.63 0 0 0 33.25 0 7 7 0 1 1 14 0 30.62 30.62 0 0 1-30.62 30.54z"/>
   <path class="cls-8" d="m205.08 341.54a30.62 30.62 0 0 1-30.59-30.54v-20.3a7 7 0 1 1 14 0v20.3a16.62 16.62 0 1 0 33.23 0 7 7 0 1 1 14 0 30.61 30.61 0 0 1-30.64 30.54z" fill="url(#linear-gradient-4)" filter="url(#filter70)"/>
  </g>
 </g>
</svg>
